<svg width="25" height="25" viewBox="0 0 25 25" fill="none" xmlns="http://www.w3.org/2000/svg">
<path fill-rule="evenodd" clip-rule="evenodd" d="M5 3.32666C4.17157 3.32666 3.5 3.99823 3.5 4.82666V19.8267C3.5 20.6551 4.17157 21.3267 5 21.3267H20C20.8284 21.3267 21.5 20.6551 21.5 19.8267V4.82666C21.5 3.99823 20.8284 3.32666 20 3.32666H5ZM9.02076 7.32938C9.02639 8.28563 8.31061 8.87485 7.46123 8.87063C6.66107 8.86641 5.96357 8.22938 5.96779 7.33079C5.97201 6.48563 6.63998 5.80641 7.50764 5.8261C8.38795 5.84579 9.02639 6.49126 9.02076 7.32938ZM12.7797 10.0884H10.2597H10.2583V18.6483H12.9217V18.4486C12.9217 18.0687 12.9214 17.6887 12.9211 17.3086C12.9203 16.2948 12.9194 15.2799 12.9246 14.2664C12.926 14.0203 12.9372 13.7644 13.0005 13.5295C13.2381 12.652 14.0271 12.0853 14.9074 12.2246C15.4727 12.3131 15.8467 12.6408 16.0042 13.1738C16.1013 13.507 16.1449 13.8656 16.1491 14.213C16.1605 15.2606 16.1589 16.3082 16.1573 17.3559C16.1567 17.7257 16.1561 18.0957 16.1561 18.4655V18.6469H18.828V18.4416C18.828 17.9896 18.8278 17.5377 18.8275 17.0858C18.827 15.9563 18.8264 14.8268 18.8294 13.6969C18.8308 13.1864 18.776 12.683 18.6508 12.1894C18.4638 11.4553 18.0771 10.8478 17.4485 10.4091C17.0027 10.0969 16.5133 9.89576 15.9663 9.87326C15.904 9.87067 15.8412 9.86728 15.7781 9.86387C15.4984 9.84875 15.2141 9.83339 14.9467 9.88732C14.1817 10.0406 13.5096 10.3908 13.0019 11.0081C12.9429 11.0789 12.8852 11.1508 12.7991 11.2581L12.7797 11.2824V10.0884ZM6.18164 18.6511H8.83242V10.094H6.18164V18.6511Z" fill="#E5E7EB"/>
</svg>
