<svg width="49" height="49" viewBox="0 0 49 49" fill="none" xmlns="http://www.w3.org/2000/svg">
<path d="M36.5 38.3613L38.5 24.3613L26.5 26.3613M10.5 16.3613L16.5 10.3613L27.5 16.3613L22.78 23.3613M8.98003 29.3613C8.41571 31.2075 8.3978 33.1775 8.92846 35.0335C9.45913 36.8896 10.5157 38.5524 11.9706 39.8212C13.4255 41.09 15.2165 41.9106 17.1276 42.1839C19.0386 42.4572 20.9878 42.1715 22.74 41.3613M28.02 35.3613C28.5844 33.5152 28.6023 31.5452 28.0716 29.6891C27.5409 27.833 26.4844 26.1702 25.0295 24.9014C23.5746 23.6326 21.7835 22.812 19.8725 22.5388C17.9615 22.2655 16.0122 22.5512 14.26 23.3613M34.5 8.36133C34.5 9.4659 33.6046 10.3613 32.5 10.3613C31.3955 10.3613 30.5 9.4659 30.5 8.36133C30.5 7.25676 31.3955 6.36133 32.5 6.36133C33.6046 6.36133 34.5 7.25676 34.5 8.36133Z" stroke="#E53939" stroke-width="4" stroke-linecap="round" stroke-linejoin="round"/>
</svg>
