<svg width="49" height="49" viewBox="0 0 49 49" fill="none" xmlns="http://www.w3.org/2000/svg">
<g id="lucide/briefcase-business">
<path id="Vector" d="M24.5 24.084H24.52M32.5 12.084V8.08398C32.5 7.02312 32.0786 6.0057 31.3284 5.25556C30.5783 4.50541 29.5609 4.08398 28.5 4.08398H20.5C19.4391 4.08398 18.4217 4.50541 17.6716 5.25556C16.9214 6.0057 16.5 7.02312 16.5 8.08398V12.084M44.5 26.084C38.5656 30.0019 31.6111 32.0906 24.5 32.0906C17.3889 32.0906 10.4344 30.0019 4.5 26.084M8.5 12.084H40.5C42.7091 12.084 44.5 13.8748 44.5 16.084V36.084C44.5 38.2931 42.7091 40.084 40.5 40.084H8.5C6.29086 40.084 4.5 38.2931 4.5 36.084V16.084C4.5 13.8748 6.29086 12.084 8.5 12.084Z" stroke="#E53939" stroke-width="4" stroke-linecap="round" stroke-linejoin="round"/>
</g>
</svg>
