<svg width="419" height="316" viewBox="0 0 419 316" fill="none" xmlns="http://www.w3.org/2000/svg">
<path d="M396.633 198.487C396.382 189.294 397.096 173.616 389.036 167.161C381.956 161.494 376.45 169.185 374.463 175.39C369.649 190.442 371.909 207.04 371.923 222.578C371.923 222.814 371.923 223.049 371.923 223.314C371.548 234.752 370.172 247.125 371.423 258.541C371.423 258.541 370.194 247.103 361.214 252.005C352.234 256.907 365.704 282.632 365.704 282.632C365.704 282.632 355.09 274.874 350.188 281.41C345.286 287.946 356.312 295.292 356.312 295.292C356.312 295.292 346.103 292.436 346.103 295.292C346.103 298.148 349.371 300.599 358.763 301.828H409.388C409.388 301.828 417.558 297.331 415.924 292.436C414.29 287.542 405.708 290.361 405.708 290.361C405.708 290.361 418.78 274.433 417.963 267.492C417.146 260.551 400.401 268.721 400.401 268.721C400.401 268.721 413.466 235.643 411.015 220.944C409.086 209.366 400.099 217.264 395.205 221.739C396.357 214.045 396.835 206.265 396.633 198.487Z" fill="#F27777" stroke="white" stroke-linecap="round" stroke-linejoin="round"/>
<path opacity="0.5" d="M396.633 198.487C396.382 189.294 397.096 173.616 389.036 167.161C381.956 161.494 376.45 169.185 374.463 175.39C369.649 190.442 371.909 207.04 371.923 222.578C371.923 222.814 371.923 223.049 371.923 223.314C371.548 234.752 370.172 247.125 371.423 258.541C371.423 258.541 370.194 247.103 361.214 252.005C352.234 256.907 365.704 282.632 365.704 282.632C365.704 282.632 355.09 274.874 350.188 281.41C345.286 287.946 356.312 295.292 356.312 295.292C356.312 295.292 346.103 292.436 346.103 295.292C346.103 298.148 349.371 300.599 358.763 301.828H409.388C409.388 301.828 417.558 297.331 415.924 292.436C414.29 287.542 405.708 290.361 405.708 290.361C405.708 290.361 418.78 274.433 417.963 267.492C417.146 260.551 400.401 268.721 400.401 268.721C400.401 268.721 413.466 235.643 411.015 220.944C409.086 209.366 400.099 217.264 395.205 221.739C396.357 214.045 396.835 206.265 396.633 198.487Z" fill="white"/>
<path d="M380.388 301.387L384.068 189.088" stroke="white" stroke-linecap="round" stroke-linejoin="round"/>
<path d="M382.434 254.427L401.623 236.46" stroke="white" stroke-linecap="round" stroke-linejoin="round"/>
<path d="M391.414 246.257L395.499 234.826" stroke="white" stroke-linecap="round" stroke-linejoin="round"/>
<path d="M366.506 268.309L381.205 284.237" stroke="white" stroke-linecap="round" stroke-linejoin="round"/>
<path d="M405.708 277.296L381.205 289.956" stroke="white" stroke-linecap="round" stroke-linejoin="round"/>
<path d="M392.643 284.642L401.623 284.237" stroke="white" stroke-linecap="round" stroke-linejoin="round"/>
<path d="M380.388 301.387L384.068 189.088" stroke="#F27777" stroke-linecap="round" stroke-linejoin="round"/>
<path d="M382.434 254.427L401.623 236.46" stroke="#F27777" stroke-linecap="round" stroke-linejoin="round"/>
<path d="M391.414 246.257L395.499 234.826" stroke="#F27777" stroke-linecap="round" stroke-linejoin="round"/>
<path d="M366.506 268.309L381.205 284.237" stroke="#F27777" stroke-linecap="round" stroke-linejoin="round"/>
<path d="M405.708 277.296L381.205 289.956" stroke="#F27777" stroke-linecap="round" stroke-linejoin="round"/>
<path d="M392.643 284.642L401.623 284.237" stroke="#F27777" stroke-linecap="round" stroke-linejoin="round"/>
<g opacity="0.8">
<path d="M380.389 301.387L384.069 189.088" stroke="white" stroke-linecap="round" stroke-linejoin="round"/>
<path d="M382.435 254.427L401.624 236.46" stroke="white" stroke-linecap="round" stroke-linejoin="round"/>
<path d="M391.414 246.257L395.499 234.826" stroke="white" stroke-linecap="round" stroke-linejoin="round"/>
<path d="M366.507 268.309L381.205 284.237" stroke="white" stroke-linecap="round" stroke-linejoin="round"/>
<path d="M405.709 277.296L381.206 289.956" stroke="white" stroke-linecap="round" stroke-linejoin="round"/>
<path d="M392.644 284.642L401.623 284.237" stroke="white" stroke-linecap="round" stroke-linejoin="round"/>
</g>
<path d="M310.243 278.694C310.243 290.11 319.289 299.37 319.289 299.37C319.289 299.37 328.335 290.11 328.335 278.694C328.335 267.278 319.289 258.019 319.289 258.019C319.289 258.019 310.243 267.271 310.243 278.694Z" fill="#F27777"/>
<path d="M303.972 296.308C308.388 301.262 315.852 301.799 315.852 301.799C315.852 301.799 316.212 294.299 311.825 289.345C307.439 284.391 299.946 283.854 299.946 283.854C299.946 283.854 299.578 291.354 303.972 296.308Z" fill="#F27777"/>
<path d="M327.025 289.176C322.41 293.923 322.439 301.431 322.439 301.431C322.439 301.431 329.94 301.232 334.547 296.477C339.155 291.722 339.14 284.222 339.14 284.222C339.14 284.222 331.632 284.421 327.025 289.176Z" fill="#F27777"/>
<g opacity="0.5">
<path d="M310.242 278.694C310.242 290.11 319.288 299.37 319.288 299.37C319.288 299.37 328.334 290.11 328.334 278.694C328.334 267.278 319.288 258.019 319.288 258.019C319.288 258.019 310.242 267.271 310.242 278.694Z" fill="white"/>
<path d="M319.288 299.37V258.019" stroke="white" stroke-linecap="round" stroke-linejoin="round"/>
<path d="M319.288 272.718L314.224 268.294" stroke="white" stroke-linecap="round" stroke-linejoin="round"/>
<path d="M319.369 279.548L325.64 270.465" stroke="white" stroke-linecap="round" stroke-linejoin="round"/>
<path d="M319.288 283.486L311.81 276.817" stroke="white" stroke-linecap="round" stroke-linejoin="round"/>
<path d="M319.369 288.793L326.767 282.205" stroke="white" stroke-linecap="round" stroke-linejoin="round"/>
<path d="M319.369 293.378L313.576 288.793" stroke="white" stroke-linecap="round" stroke-linejoin="round"/>
<path d="M303.971 296.308C308.388 301.261 315.851 301.799 315.851 301.799C315.851 301.799 316.212 294.298 311.825 289.345C307.438 284.391 299.945 283.854 299.945 283.854C299.945 283.854 299.577 291.354 303.971 296.308Z" fill="white"/>
<path d="M315.851 301.799L299.945 283.854" stroke="white" stroke-linecap="round" stroke-linejoin="round"/>
<path d="M305.598 290.235L301.697 290.265" stroke="white" stroke-linecap="round" stroke-linejoin="round"/>
<path d="M308.262 293.165L307.49 286.813" stroke="white" stroke-linecap="round" stroke-linejoin="round"/>
<path d="M309.742 294.909L303.935 294.887" stroke="white" stroke-linecap="round" stroke-linejoin="round"/>
<path d="M311.818 297.176L312.488 291.472" stroke="white" stroke-linecap="round" stroke-linejoin="round"/>
<path d="M313.584 299.164L309.307 299.407" stroke="white" stroke-linecap="round" stroke-linejoin="round"/>
<path d="M327.024 289.176C322.409 293.923 322.439 301.431 322.439 301.431C322.439 301.431 329.939 301.232 334.547 296.477C339.154 291.722 339.14 284.222 339.14 284.222C339.14 284.222 331.632 284.421 327.024 289.176Z" fill="white"/>
<path d="M322.439 301.431L339.14 284.222" stroke="white" stroke-linecap="round" stroke-linejoin="round"/>
<path d="M333.2 290.339L332.883 286.452" stroke="white" stroke-linecap="round" stroke-linejoin="round"/>
<path d="M330.476 293.217L336.755 291.965" stroke="white" stroke-linecap="round" stroke-linejoin="round"/>
<path d="M328.85 294.821L328.438 289.028" stroke="white" stroke-linecap="round" stroke-linejoin="round"/>
<path d="M326.737 297.059L332.479 297.309" stroke="white" stroke-linecap="round" stroke-linejoin="round"/>
<path d="M324.89 298.965L324.33 294.725" stroke="white" stroke-linecap="round" stroke-linejoin="round"/>
</g>
<path d="M319.289 299.37V258.019" stroke="#F27777" stroke-linecap="round" stroke-linejoin="round"/>
<path d="M319.289 272.718L314.225 268.294" stroke="#F27777" stroke-linecap="round" stroke-linejoin="round"/>
<path d="M319.37 279.548L325.641 270.465" stroke="#F27777" stroke-linecap="round" stroke-linejoin="round"/>
<path d="M319.289 283.486L311.811 276.817" stroke="#F27777" stroke-linecap="round" stroke-linejoin="round"/>
<path d="M319.37 288.793L326.767 282.205" stroke="#F27777" stroke-linecap="round" stroke-linejoin="round"/>
<path d="M319.37 293.378L313.577 288.793" stroke="#F27777" stroke-linecap="round" stroke-linejoin="round"/>
<g opacity="0.7">
<path d="M319.289 299.37V258.019" stroke="white" stroke-linecap="round" stroke-linejoin="round"/>
<path d="M319.289 272.718L314.225 268.294" stroke="white" stroke-linecap="round" stroke-linejoin="round"/>
<path d="M319.37 279.548L325.641 270.465" stroke="white" stroke-linecap="round" stroke-linejoin="round"/>
<path d="M319.289 283.486L311.811 276.817" stroke="white" stroke-linecap="round" stroke-linejoin="round"/>
<path d="M319.37 288.793L326.767 282.205" stroke="white" stroke-linecap="round" stroke-linejoin="round"/>
<path d="M319.37 293.378L313.577 288.793" stroke="white" stroke-linecap="round" stroke-linejoin="round"/>
</g>
<path d="M315.852 301.799L299.946 283.854" stroke="#F27777" stroke-linecap="round" stroke-linejoin="round"/>
<path d="M305.598 290.236L301.697 290.265" stroke="#F27777" stroke-linecap="round" stroke-linejoin="round"/>
<path d="M308.263 293.165L307.49 286.813" stroke="#F27777" stroke-linecap="round" stroke-linejoin="round"/>
<path d="M309.742 294.909L303.935 294.887" stroke="#F27777" stroke-linecap="round" stroke-linejoin="round"/>
<path d="M311.818 297.177L312.488 291.472" stroke="#F27777" stroke-linecap="round" stroke-linejoin="round"/>
<path d="M313.585 299.164L309.308 299.407" stroke="#F27777" stroke-linecap="round" stroke-linejoin="round"/>
<g opacity="0.7">
<path d="M315.852 301.799L299.946 283.854" stroke="white" stroke-linecap="round" stroke-linejoin="round"/>
<path d="M305.599 290.235L301.698 290.265" stroke="white" stroke-linecap="round" stroke-linejoin="round"/>
<path d="M308.263 293.165L307.491 286.813" stroke="white" stroke-linecap="round" stroke-linejoin="round"/>
<path d="M309.743 294.909L303.936 294.887" stroke="white" stroke-linecap="round" stroke-linejoin="round"/>
<path d="M311.819 297.176L312.488 291.472" stroke="white" stroke-linecap="round" stroke-linejoin="round"/>
<path d="M313.585 299.164L309.308 299.407" stroke="white" stroke-linecap="round" stroke-linejoin="round"/>
</g>
<path d="M322.439 301.431L339.14 284.222" stroke="#F27777" stroke-linecap="round" stroke-linejoin="round"/>
<path d="M333.2 290.339L332.883 286.452" stroke="#F27777" stroke-linecap="round" stroke-linejoin="round"/>
<path d="M330.477 293.217L336.755 291.965" stroke="#F27777" stroke-linecap="round" stroke-linejoin="round"/>
<path d="M328.85 294.821L328.438 289.028" stroke="#F27777" stroke-linecap="round" stroke-linejoin="round"/>
<path d="M326.737 297.059L332.478 297.309" stroke="#F27777" stroke-linecap="round" stroke-linejoin="round"/>
<path d="M324.89 298.965L324.331 294.725" stroke="#F27777" stroke-linecap="round" stroke-linejoin="round"/>
<g opacity="0.7">
<path d="M322.439 301.431L339.14 284.222" stroke="white" stroke-linecap="round" stroke-linejoin="round"/>
<path d="M333.2 290.339L332.884 286.452" stroke="white" stroke-linecap="round" stroke-linejoin="round"/>
<path d="M330.477 293.217L336.755 291.965" stroke="white" stroke-linecap="round" stroke-linejoin="round"/>
<path d="M328.85 294.821L328.438 289.029" stroke="white" stroke-linecap="round" stroke-linejoin="round"/>
<path d="M326.738 297.059L332.479 297.309" stroke="white" stroke-linecap="round" stroke-linejoin="round"/>
<path d="M324.89 298.965L324.331 294.726" stroke="white" stroke-linecap="round" stroke-linejoin="round"/>
</g>
<path d="M22.3674 198.487C22.6103 189.294 21.9037 173.616 29.9634 167.161C37.0442 161.493 42.5498 169.185 44.5298 175.39C49.3509 190.442 47.0839 207.04 47.0765 222.578C47.0765 222.814 47.0765 223.049 47.0765 223.314C47.4593 234.752 48.8283 247.125 47.5844 258.541C47.5844 258.541 48.8062 247.103 57.7934 252.005C66.7805 256.907 53.2961 282.632 53.2961 282.632C53.2961 282.632 63.9173 274.874 68.8194 281.41C73.7214 287.946 62.7102 295.263 62.7102 295.263C62.7102 295.263 72.9191 292.407 72.9191 295.263C72.9191 298.119 69.6511 300.57 60.2591 301.799H9.61173C9.61173 301.799 1.44161 297.301 3.07563 292.407C4.70966 287.512 13.2846 290.361 13.2846 290.361C13.2846 290.361 0.21977 274.433 1.03678 267.492C1.85379 260.551 18.5989 268.721 18.5989 268.721C18.5989 268.721 5.52667 235.643 7.9777 220.966C9.90615 209.388 18.9006 217.286 23.788 221.761C22.637 214.059 22.1616 206.272 22.3674 198.487Z" fill="#F27777" stroke="white" stroke-linecap="round" stroke-linejoin="round"/>
<path opacity="0.5" d="M22.3674 198.487C22.6103 189.294 21.9037 173.616 29.9634 167.161C37.0442 161.493 42.5498 169.185 44.5298 175.39C49.3509 190.442 47.0839 207.04 47.0765 222.578C47.0765 222.814 47.0765 223.049 47.0765 223.314C47.4593 234.752 48.8283 247.125 47.5844 258.541C47.5844 258.541 48.8062 247.103 57.7934 252.005C66.7805 256.907 53.2961 282.632 53.2961 282.632C53.2961 282.632 63.9173 274.874 68.8194 281.41C73.7214 287.946 62.7102 295.263 62.7102 295.263C62.7102 295.263 72.9191 292.407 72.9191 295.263C72.9191 298.119 69.6511 300.57 60.2591 301.799H9.61173C9.61173 301.799 1.44161 297.301 3.07563 292.407C4.70966 287.512 13.2846 290.361 13.2846 290.361C13.2846 290.361 0.21977 274.433 1.03678 267.492C1.85379 260.551 18.5989 268.721 18.5989 268.721C18.5989 268.721 5.52667 235.643 7.9777 220.966C9.90615 209.388 18.9006 217.286 23.788 221.761C22.637 214.059 22.1616 206.272 22.3674 198.487Z" fill="white"/>
<path d="M38.6044 301.387L34.9315 189.088" stroke="white" stroke-linecap="round" stroke-linejoin="round"/>
<path d="M36.566 254.427L17.3699 236.46" stroke="white" stroke-linecap="round" stroke-linejoin="round"/>
<path d="M27.5786 246.257L23.4935 234.826" stroke="white" stroke-linecap="round" stroke-linejoin="round"/>
<path d="M52.4867 268.309L37.7878 284.237" stroke="white" stroke-linecap="round" stroke-linejoin="round"/>
<path d="M13.2849 277.296L37.7879 289.956" stroke="white" stroke-linecap="round" stroke-linejoin="round"/>
<path d="M26.357 284.642L17.3699 284.237" stroke="white" stroke-linecap="round" stroke-linejoin="round"/>
<path d="M38.6044 301.387L34.9315 189.088" stroke="#F27777" stroke-linecap="round" stroke-linejoin="round"/>
<path d="M36.566 254.427L17.3699 236.46" stroke="#F27777" stroke-linecap="round" stroke-linejoin="round"/>
<path d="M27.5786 246.257L23.4935 234.826" stroke="#F27777" stroke-linecap="round" stroke-linejoin="round"/>
<path d="M52.4867 268.309L37.7878 284.237" stroke="#F27777" stroke-linecap="round" stroke-linejoin="round"/>
<path d="M13.2849 277.296L37.7879 289.956" stroke="#F27777" stroke-linecap="round" stroke-linejoin="round"/>
<path d="M26.357 284.642L17.3699 284.237" stroke="#F27777" stroke-linecap="round" stroke-linejoin="round"/>
<g opacity="0.8">
<path d="M38.6046 301.387L34.9318 189.088" stroke="white" stroke-linecap="round" stroke-linejoin="round"/>
<path d="M36.5656 254.427L17.3695 236.46" stroke="white" stroke-linecap="round" stroke-linejoin="round"/>
<path d="M27.5782 246.257L23.4932 234.826" stroke="white" stroke-linecap="round" stroke-linejoin="round"/>
<path d="M52.4863 268.309L37.7875 284.237" stroke="white" stroke-linecap="round" stroke-linejoin="round"/>
<path d="M13.2845 277.296L37.7876 289.956" stroke="white" stroke-linecap="round" stroke-linejoin="round"/>
<path d="M26.3566 284.642L17.3695 284.237" stroke="white" stroke-linecap="round" stroke-linejoin="round"/>
</g>
<path d="M110.229 278.694C110.229 290.11 101.183 299.37 101.183 299.37C101.183 299.37 92.152 290.11 92.152 278.694C92.152 267.278 101.198 258.019 101.198 258.019C101.198 258.019 110.229 267.271 110.229 278.694Z" fill="#F27777"/>
<path d="M116.493 296.308C112.077 301.262 104.613 301.799 104.613 301.799C104.613 301.799 104.253 294.299 108.647 289.345C113.041 284.391 120.527 283.854 120.527 283.854C120.527 283.854 120.858 291.354 116.493 296.308Z" fill="#F27777"/>
<path d="M93.4477 289.176C98.0554 293.923 98.0333 301.431 98.0333 301.431C98.0333 301.431 90.533 301.232 85.918 296.477C81.303 291.722 81.3324 284.222 81.3324 284.222C81.3324 284.222 88.8327 284.421 93.4477 289.176Z" fill="#F27777"/>
<g opacity="0.5">
<path d="M110.23 278.694C110.23 290.11 101.184 299.37 101.184 299.37C101.184 299.37 92.1531 290.11 92.1531 278.694C92.1531 267.278 101.199 258.019 101.199 258.019C101.199 258.019 110.23 267.271 110.23 278.694Z" fill="white"/>
<path d="M101.184 299.37V258.019" stroke="white" stroke-linecap="round" stroke-linejoin="round"/>
<path d="M101.184 272.718L106.248 268.294" stroke="white" stroke-linecap="round" stroke-linejoin="round"/>
<path d="M101.103 279.548L94.8318 270.465" stroke="white" stroke-linecap="round" stroke-linejoin="round"/>
<path d="M101.184 283.486L108.662 276.817" stroke="white" stroke-linecap="round" stroke-linejoin="round"/>
<path d="M101.103 288.793L93.7056 282.205" stroke="white" stroke-linecap="round" stroke-linejoin="round"/>
<path d="M101.103 293.378L106.888 288.793" stroke="white" stroke-linecap="round" stroke-linejoin="round"/>
<path d="M116.494 296.308C112.078 301.261 104.614 301.799 104.614 301.799C104.614 301.799 104.254 294.298 108.648 289.345C113.042 284.391 120.528 283.854 120.528 283.854C120.528 283.854 120.859 291.354 116.494 296.308Z" fill="white"/>
<path d="M104.614 301.799L120.527 283.854" stroke="white" stroke-linecap="round" stroke-linejoin="round"/>
<path d="M114.874 290.235L118.768 290.265" stroke="white" stroke-linecap="round" stroke-linejoin="round"/>
<path d="M112.21 293.165L112.983 286.813" stroke="white" stroke-linecap="round" stroke-linejoin="round"/>
<path d="M110.723 294.909L116.538 294.887" stroke="white" stroke-linecap="round" stroke-linejoin="round"/>
<path d="M108.647 297.176L107.978 291.472" stroke="white" stroke-linecap="round" stroke-linejoin="round"/>
<path d="M106.888 299.164L111.165 299.407" stroke="white" stroke-linecap="round" stroke-linejoin="round"/>
<path d="M93.4482 289.176C98.0559 293.923 98.0338 301.431 98.0338 301.431C98.0338 301.431 90.5335 301.232 85.9185 296.477C81.3034 291.722 81.3329 284.222 81.3329 284.222C81.3329 284.222 88.8332 284.421 93.4482 289.176Z" fill="white"/>
<path d="M98.0338 301.431L81.3329 284.222" stroke="white" stroke-linecap="round" stroke-linejoin="round"/>
<path d="M87.2656 290.339L87.5895 286.452" stroke="white" stroke-linecap="round" stroke-linejoin="round"/>
<path d="M89.9961 293.217L83.7177 291.965" stroke="white" stroke-linecap="round" stroke-linejoin="round"/>
<path d="M91.6154 294.821L92.0349 289.028" stroke="white" stroke-linecap="round" stroke-linejoin="round"/>
<path d="M93.7277 297.059L87.9866 297.309" stroke="white" stroke-linecap="round" stroke-linejoin="round"/>
<path d="M95.5826 298.965L96.1347 294.725" stroke="white" stroke-linecap="round" stroke-linejoin="round"/>
</g>
<path d="M101.183 299.37V258.019" stroke="#F27777" stroke-linecap="round" stroke-linejoin="round"/>
<path d="M101.183 272.718L106.247 268.294" stroke="#F27777" stroke-linecap="round" stroke-linejoin="round"/>
<path d="M101.102 279.548L94.8313 270.465" stroke="#F27777" stroke-linecap="round" stroke-linejoin="round"/>
<path d="M101.183 283.486L108.662 276.817" stroke="#F27777" stroke-linecap="round" stroke-linejoin="round"/>
<path d="M101.102 288.793L93.7051 282.205" stroke="#F27777" stroke-linecap="round" stroke-linejoin="round"/>
<path d="M101.103 293.378L106.888 288.793" stroke="#F27777" stroke-linecap="round" stroke-linejoin="round"/>
<g opacity="0.7">
<path d="M101.183 299.37V258.019" stroke="white" stroke-linecap="round" stroke-linejoin="round"/>
<path d="M101.183 272.718L106.247 268.294" stroke="white" stroke-linecap="round" stroke-linejoin="round"/>
<path d="M101.103 279.548L94.8314 270.465" stroke="white" stroke-linecap="round" stroke-linejoin="round"/>
<path d="M101.183 283.486L108.662 276.817" stroke="white" stroke-linecap="round" stroke-linejoin="round"/>
<path d="M101.102 288.793L93.7051 282.205" stroke="white" stroke-linecap="round" stroke-linejoin="round"/>
<path d="M101.103 293.378L106.888 288.793" stroke="white" stroke-linecap="round" stroke-linejoin="round"/>
</g>
<path d="M104.613 301.799L120.526 283.854" stroke="#F27777" stroke-linecap="round" stroke-linejoin="round"/>
<path d="M114.874 290.236L118.768 290.265" stroke="#F27777" stroke-linecap="round" stroke-linejoin="round"/>
<path d="M112.209 293.165L112.982 286.813" stroke="#F27777" stroke-linecap="round" stroke-linejoin="round"/>
<path d="M110.723 294.909L116.538 294.887" stroke="#F27777" stroke-linecap="round" stroke-linejoin="round"/>
<path d="M108.647 297.177L107.977 291.472" stroke="#F27777" stroke-linecap="round" stroke-linejoin="round"/>
<path d="M106.888 299.164L111.164 299.407" stroke="#F27777" stroke-linecap="round" stroke-linejoin="round"/>
<g opacity="0.7">
<path d="M104.613 301.799L120.526 283.854" stroke="white" stroke-linecap="round" stroke-linejoin="round"/>
<path d="M114.873 290.235L118.767 290.265" stroke="white" stroke-linecap="round" stroke-linejoin="round"/>
<path d="M112.209 293.165L112.982 286.813" stroke="white" stroke-linecap="round" stroke-linejoin="round"/>
<path d="M110.722 294.909L116.537 294.887" stroke="white" stroke-linecap="round" stroke-linejoin="round"/>
<path d="M108.646 297.176L107.976 291.472" stroke="white" stroke-linecap="round" stroke-linejoin="round"/>
<path d="M106.887 299.164L111.163 299.407" stroke="white" stroke-linecap="round" stroke-linejoin="round"/>
</g>
<path d="M98.0333 301.431L81.3324 284.222" stroke="#F27777" stroke-linecap="round" stroke-linejoin="round"/>
<path d="M87.2646 290.339L87.5885 286.452" stroke="#F27777" stroke-linecap="round" stroke-linejoin="round"/>
<path d="M89.9952 293.217L83.7167 291.965" stroke="#F27777" stroke-linecap="round" stroke-linejoin="round"/>
<path d="M91.6149 294.821L92.0344 289.028" stroke="#F27777" stroke-linecap="round" stroke-linejoin="round"/>
<path d="M93.7273 297.059L87.9861 297.309" stroke="#F27777" stroke-linecap="round" stroke-linejoin="round"/>
<path d="M95.5822 298.965L96.1342 294.725" stroke="#F27777" stroke-linecap="round" stroke-linejoin="round"/>
<g opacity="0.7">
<path d="M98.0338 301.431L81.3329 284.222" stroke="white" stroke-linecap="round" stroke-linejoin="round"/>
<path d="M87.2656 290.339L87.5895 286.452" stroke="white" stroke-linecap="round" stroke-linejoin="round"/>
<path d="M89.9961 293.217L83.7177 291.965" stroke="white" stroke-linecap="round" stroke-linejoin="round"/>
<path d="M91.6154 294.821L92.0349 289.029" stroke="white" stroke-linecap="round" stroke-linejoin="round"/>
<path d="M93.7277 297.059L87.9866 297.309" stroke="white" stroke-linecap="round" stroke-linejoin="round"/>
<path d="M95.5826 298.965L96.1347 294.726" stroke="white" stroke-linecap="round" stroke-linejoin="round"/>
</g>
<path d="M313.982 83.0455H115.006C114.947 83.0465 114.888 83.0356 114.832 83.0135C114.777 82.9914 114.727 82.9585 114.684 82.9167C114.642 82.8749 114.608 82.8251 114.585 82.7701C114.562 82.7151 114.55 82.6561 114.55 82.5966C114.55 82.4755 114.598 82.3595 114.684 82.2739C114.769 82.1883 114.885 82.1402 115.006 82.1402H313.982C314.042 82.1402 314.101 82.1521 314.156 82.1751C314.21 82.1981 314.26 82.2318 314.302 82.2743C314.344 82.3168 314.377 82.3672 314.399 82.4225C314.421 82.4778 314.432 82.537 314.431 82.5966C314.431 82.7156 314.384 82.8298 314.299 82.914C314.215 82.9982 314.101 83.0455 313.982 83.0455Z" fill="#F27777"/>
<g opacity="0.3">
<path d="M313.982 83.0455H115.006C114.947 83.0465 114.888 83.0356 114.832 83.0135C114.777 82.9914 114.727 82.9585 114.684 82.9167C114.642 82.8749 114.608 82.8251 114.585 82.7701C114.562 82.7151 114.55 82.6561 114.55 82.5966C114.55 82.4755 114.598 82.3595 114.684 82.2739C114.769 82.1883 114.885 82.1402 115.006 82.1402H313.982C314.042 82.1402 314.101 82.1521 314.156 82.1751C314.21 82.1981 314.26 82.2318 314.302 82.2743C314.344 82.3168 314.377 82.3672 314.399 82.4225C314.421 82.4778 314.432 82.537 314.431 82.5966C314.431 82.7156 314.384 82.8298 314.299 82.914C314.215 82.9982 314.101 83.0455 313.982 83.0455Z" fill="white"/>
</g>
<path d="M313.584 161.964H114.609C114.549 161.965 114.49 161.955 114.435 161.932C114.379 161.91 114.329 161.877 114.286 161.836C114.244 161.794 114.21 161.744 114.187 161.689C114.164 161.634 114.152 161.575 114.152 161.515C114.152 161.394 114.2 161.278 114.286 161.193C114.372 161.107 114.488 161.059 114.609 161.059H313.584C313.644 161.059 313.703 161.071 313.758 161.094C313.813 161.117 313.863 161.151 313.904 161.193C313.946 161.236 313.979 161.286 314.001 161.341C314.023 161.397 314.034 161.456 314.033 161.515C314.033 161.574 314.022 161.633 313.999 161.687C313.977 161.742 313.943 161.791 313.902 161.833C313.86 161.875 313.811 161.908 313.756 161.93C313.702 161.953 313.643 161.964 313.584 161.964Z" fill="#F27777"/>
<g opacity="0.3">
<path d="M313.584 161.964H114.609C114.549 161.965 114.49 161.955 114.435 161.932C114.379 161.91 114.329 161.877 114.286 161.836C114.244 161.794 114.21 161.744 114.187 161.689C114.164 161.634 114.152 161.575 114.152 161.515C114.152 161.394 114.2 161.278 114.286 161.193C114.372 161.107 114.488 161.059 114.609 161.059H313.584C313.644 161.059 313.703 161.071 313.758 161.094C313.813 161.117 313.863 161.151 313.904 161.193C313.946 161.236 313.979 161.286 314.001 161.341C314.023 161.397 314.034 161.456 314.033 161.515C314.033 161.574 314.022 161.633 313.999 161.687C313.977 161.742 313.943 161.791 313.902 161.833C313.86 161.875 313.811 161.908 313.756 161.93C313.702 161.953 313.643 161.964 313.584 161.964Z" fill="white"/>
</g>
<path d="M313.584 226.479H114.609C114.488 226.479 114.372 226.431 114.286 226.345C114.2 226.26 114.152 226.144 114.152 226.023C114.152 225.963 114.164 225.904 114.187 225.849C114.21 225.794 114.244 225.744 114.286 225.703C114.329 225.661 114.379 225.628 114.435 225.606C114.49 225.584 114.549 225.573 114.609 225.574H313.584C313.643 225.574 313.702 225.585 313.756 225.608C313.811 225.63 313.86 225.664 313.902 225.705C313.943 225.747 313.977 225.796 313.999 225.851C314.022 225.905 314.033 225.964 314.033 226.023C314.034 226.082 314.023 226.141 314.001 226.197C313.979 226.252 313.946 226.302 313.904 226.345C313.863 226.387 313.813 226.421 313.758 226.444C313.703 226.467 313.644 226.479 313.584 226.479Z" fill="#F27777"/>
<g opacity="0.3">
<path d="M313.584 226.479H114.609C114.488 226.479 114.372 226.431 114.286 226.345C114.2 226.26 114.152 226.144 114.152 226.023C114.152 225.963 114.164 225.904 114.187 225.849C114.21 225.794 114.244 225.744 114.286 225.703C114.329 225.661 114.379 225.628 114.435 225.606C114.49 225.584 114.549 225.573 114.609 225.574H313.584C313.643 225.574 313.702 225.585 313.756 225.608C313.811 225.63 313.86 225.664 313.902 225.705C313.943 225.747 313.977 225.796 313.999 225.851C314.022 225.905 314.033 225.964 314.033 226.023C314.034 226.082 314.023 226.141 314.001 226.197C313.979 226.252 313.946 226.302 313.904 226.345C313.863 226.387 313.813 226.421 313.758 226.444C313.703 226.467 313.644 226.479 313.584 226.479Z" fill="white"/>
</g>
<path d="M156.909 237.395V304.537" stroke="#263238" stroke-width="0.265171" stroke-miterlimit="10"/>
<path d="M166.5 237.395V304.537" stroke="#263238" stroke-width="0.265171" stroke-miterlimit="10"/>
<path d="M176.091 237.395V304.537" stroke="#263238" stroke-width="0.265171" stroke-miterlimit="10"/>
<path d="M185.681 237.395V304.537" stroke="#263238" stroke-width="0.265171" stroke-miterlimit="10"/>
<path d="M195.272 237.395V304.537" stroke="#263238" stroke-width="0.265171" stroke-miterlimit="10"/>
<path d="M204.863 237.395V304.537" stroke="#263238" stroke-width="0.265171" stroke-miterlimit="10"/>
<path d="M214.453 237.395V304.537" stroke="#263238" stroke-width="0.265171" stroke-miterlimit="10"/>
<path d="M224.044 237.395V304.537" stroke="#263238" stroke-width="0.265171" stroke-miterlimit="10"/>
<path d="M233.635 237.395V304.537" stroke="#263238" stroke-width="0.265171" stroke-miterlimit="10"/>
<path d="M243.225 237.395V304.537" stroke="#263238" stroke-width="0.265171" stroke-miterlimit="10"/>
<path d="M252.816 237.395V304.537" stroke="#263238" stroke-width="0.265171" stroke-miterlimit="10"/>
<path d="M262.407 237.395V304.537" stroke="#263238" stroke-width="0.265171" stroke-miterlimit="10"/>
<path d="M157.388 243.629H261.928" stroke="#263238" stroke-width="0.265171" stroke-miterlimit="10"/>
<path d="M157.388 252.741H261.928" stroke="#263238" stroke-width="0.265171" stroke-miterlimit="10"/>
<path d="M157.388 261.854H261.928" stroke="#263238" stroke-width="0.265171" stroke-miterlimit="10"/>
<path d="M157.388 270.966H261.928" stroke="#263238" stroke-width="0.265171" stroke-miterlimit="10"/>
<path d="M157.388 280.078H261.928" stroke="#263238" stroke-width="0.265171" stroke-miterlimit="10"/>
<path d="M157.388 289.19H261.928" stroke="#263238" stroke-width="0.265171" stroke-miterlimit="10"/>
<path d="M157.388 298.303H261.928" stroke="#263238" stroke-width="0.265171" stroke-miterlimit="10"/>
<path d="M179.351 260.948L165.322 304.198H194.705L180.669 260.948C180.624 260.809 180.536 260.687 180.418 260.601C180.299 260.514 180.157 260.468 180.01 260.468C179.864 260.468 179.721 260.514 179.602 260.601C179.484 260.687 179.396 260.809 179.351 260.948Z" fill="#F27777" stroke="#263238" stroke-width="1.06068" stroke-miterlimit="10"/>
<path d="M206.099 246.625L187.426 304.198H226.112L207.417 246.625C207.372 246.485 207.284 246.364 207.166 246.277C207.047 246.191 206.905 246.144 206.758 246.144C206.612 246.144 206.469 246.191 206.35 246.277C206.232 246.364 206.144 246.485 206.099 246.625Z" fill="#263238" stroke="#263238" stroke-width="1.06068" stroke-miterlimit="10"/>
<path d="M230.713 270.841L219.885 304.198H242.85L232.001 270.841C231.95 270.711 231.861 270.6 231.747 270.522C231.632 270.444 231.496 270.402 231.357 270.402C231.218 270.402 231.082 270.444 230.967 270.522C230.852 270.6 230.764 270.711 230.713 270.841Z" fill="#F27777" stroke="#263238" stroke-width="1.06068" stroke-miterlimit="10"/>
<path d="M245.544 282.294L238.441 304.198H253.964L246.861 282.294C246.817 282.154 246.729 282.032 246.61 281.946C246.492 281.86 246.349 281.813 246.203 281.813C246.056 281.813 245.913 281.86 245.795 281.946C245.677 282.032 245.589 282.154 245.544 282.294Z" fill="#263238" stroke="#263238" stroke-width="1.06068" stroke-miterlimit="10"/>
<path d="M155.643 216.175C151.435 216.175 147.321 214.927 143.821 212.588C140.322 210.25 137.594 206.927 135.984 203.039C134.373 199.15 133.952 194.872 134.773 190.744C135.594 186.616 137.621 182.825 140.597 179.849C143.573 176.873 147.364 174.846 151.492 174.025C155.62 173.204 159.898 173.625 163.786 175.236C167.675 176.847 170.998 179.574 173.336 183.073C175.674 186.573 176.922 190.687 176.922 194.895C176.917 200.537 174.673 205.946 170.683 209.936C166.694 213.925 161.285 216.169 155.643 216.175ZM155.643 179.865C152.671 179.867 149.766 180.75 147.295 182.402C144.824 184.054 142.899 186.402 141.763 189.149C140.626 191.895 140.329 194.917 140.91 197.832C141.491 200.747 142.923 203.425 145.025 205.526C147.128 207.627 149.806 209.058 152.721 209.637C155.636 210.217 158.658 209.918 161.404 208.781C164.15 207.643 166.497 205.716 168.148 203.245C169.799 200.773 170.681 197.868 170.681 194.895C170.677 190.909 169.091 187.087 166.272 184.269C163.452 181.451 159.63 179.867 155.643 179.865Z" fill="#263238" stroke="#263238" stroke-width="1.06068" stroke-miterlimit="10"/>
<path d="M155.643 216.175C152.771 216.183 149.927 215.606 147.286 214.479C144.645 213.351 142.261 211.697 140.281 209.616L144.793 205.296C146.191 206.765 147.875 207.934 149.74 208.73C151.606 209.526 153.614 209.933 155.643 209.926C157.617 209.926 159.571 209.537 161.395 208.781C163.218 208.026 164.875 206.919 166.271 205.523C167.666 204.128 168.773 202.471 169.529 200.647C170.284 198.824 170.673 196.869 170.673 194.895C170.673 192.922 170.284 190.967 169.529 189.144C168.773 187.32 167.666 185.663 166.271 184.268C164.875 182.872 163.218 181.765 161.395 181.009C159.571 180.254 157.617 179.865 155.643 179.865V173.616C158.437 173.616 161.204 174.167 163.786 175.236C166.368 176.305 168.713 177.873 170.689 179.849C172.665 181.825 174.233 184.171 175.302 186.752C176.372 189.334 176.922 192.101 176.922 194.895C176.922 197.69 176.372 200.457 175.302 203.039C174.233 205.62 172.665 207.966 170.689 209.942C168.713 211.918 166.368 213.485 163.786 214.555C161.204 215.624 158.437 216.175 155.643 216.175Z" fill="#F27777" stroke="#263238" stroke-width="1.06068" stroke-miterlimit="10"/>
<path d="M208.124 216.175C203.915 216.176 199.8 214.929 196.299 212.592C192.799 210.255 190.071 206.932 188.459 203.044C186.847 199.156 186.425 194.877 187.245 190.749C188.065 186.62 190.091 182.828 193.067 179.851C196.043 176.875 199.834 174.847 203.962 174.026C208.09 173.204 212.369 173.625 216.258 175.235C220.146 176.846 223.47 179.573 225.809 183.073C228.147 186.572 229.395 190.687 229.395 194.895C229.389 200.536 227.147 205.944 223.159 209.933C219.171 213.922 213.764 216.167 208.124 216.175ZM208.124 179.865C205.151 179.868 202.247 180.752 199.777 182.406C197.308 184.059 195.383 186.407 194.248 189.154C193.113 191.901 192.817 194.922 193.399 197.837C193.98 200.751 195.413 203.428 197.516 205.529C199.618 207.629 202.296 209.059 205.211 209.638C208.127 210.217 211.148 209.918 213.893 208.78C216.639 207.642 218.985 205.716 220.636 203.244C222.287 200.773 223.168 197.867 223.168 194.895C223.162 190.908 221.575 187.087 218.754 184.269C215.934 181.451 212.111 179.867 208.124 179.865Z" fill="#263238" stroke="#263238" stroke-width="1.06068" stroke-miterlimit="10"/>
<path d="M216.404 214.496L213.975 208.748C217.167 207.395 219.794 204.98 221.41 201.913C223.026 198.846 223.533 195.315 222.845 191.917C222.156 188.519 220.315 185.463 217.632 183.267C214.95 181.071 211.59 179.869 208.124 179.865V173.616C213.033 173.617 217.792 175.315 221.593 178.424C225.393 181.532 228.002 185.859 228.977 190.671C229.952 195.483 229.232 200.484 226.941 204.827C224.649 209.169 220.927 212.585 216.404 214.496Z" fill="#F27777" stroke="#263238" stroke-width="1.06068" stroke-miterlimit="10"/>
<path d="M260.596 216.175C256.388 216.175 252.274 214.927 248.774 212.588C245.275 210.25 242.548 206.927 240.937 203.039C239.326 199.15 238.905 194.872 239.726 190.744C240.547 186.616 242.574 182.825 245.55 179.849C248.526 176.873 252.317 174.846 256.445 174.025C260.573 173.204 264.851 173.626 268.739 175.236C272.628 176.847 275.951 179.574 278.289 183.073C280.627 186.573 281.875 190.687 281.875 194.895C281.87 200.537 279.626 205.946 275.636 209.936C271.647 213.925 266.238 216.169 260.596 216.175ZM260.596 179.865C257.624 179.865 254.718 180.747 252.246 182.398C249.774 184.05 247.848 186.397 246.71 189.144C245.573 191.89 245.275 194.912 245.855 197.828C246.435 200.743 247.866 203.421 249.968 205.523C252.07 207.625 254.748 209.057 257.664 209.637C260.58 210.217 263.602 209.919 266.348 208.781C269.094 207.644 271.442 205.717 273.093 203.246C274.745 200.774 275.626 197.868 275.626 194.895C275.622 190.91 274.038 187.09 271.22 184.272C268.402 181.454 264.581 179.869 260.596 179.865Z" fill="#263238" stroke="#263238" stroke-width="1.06068" stroke-miterlimit="10"/>
<path d="M275.332 191.9C274.633 188.508 272.789 185.46 270.108 183.269C267.427 181.077 264.073 179.875 260.611 179.865V173.616C265.515 173.629 270.265 175.33 274.063 178.433C277.86 181.536 280.474 185.852 281.463 190.656L275.332 191.9Z" fill="#F27777" stroke="#263238" stroke-width="1.06068" stroke-miterlimit="10"/>
<path d="M164.13 150.055H264.063" stroke="#263238" stroke-width="1.06068" stroke-miterlimit="10"/>
<path d="M164.13 150.055V147.928" stroke="#263238" stroke-width="1.06068" stroke-miterlimit="10"/>
<path d="M184.113 150.055V147.928" stroke="#263238" stroke-width="1.06068" stroke-miterlimit="10"/>
<path d="M204.105 150.055V147.928" stroke="#263238" stroke-width="1.06068" stroke-miterlimit="10"/>
<path d="M224.088 150.055V147.928" stroke="#263238" stroke-width="1.06068" stroke-miterlimit="10"/>
<path d="M244.072 150.055V147.928" stroke="#263238" stroke-width="1.06068" stroke-miterlimit="10"/>
<path d="M264.063 150.055V147.928" stroke="#263238" stroke-width="1.06068" stroke-miterlimit="10"/>
<path d="M181.317 121.651H166.927V138.691H181.317V121.651Z" fill="#F27777" stroke="#263238" stroke-width="1.06068" stroke-miterlimit="10"/>
<path d="M201.3 101.771H186.91V141.532H201.3V101.771Z" fill="#F27777" stroke="#263238" stroke-width="1.06068" stroke-miterlimit="10"/>
<path d="M221.291 73.9408H206.901V118.251H221.291V73.9408Z" fill="#F27777" stroke="#263238" stroke-width="1.06068" stroke-miterlimit="10"/>
<path d="M241.275 115.41H226.885V123.933H241.275V115.41Z" fill="#F27777" stroke="#263238" stroke-width="1.06068" stroke-miterlimit="10"/>
<path d="M261.258 110.294H246.869V132.449H261.258V110.294Z" fill="#F27777" stroke="#263238" stroke-width="1.06068" stroke-miterlimit="10"/>
<path d="M181.317 138.698H166.927V150.063H181.317V138.698Z" fill="#263238" stroke="#263238" stroke-width="1.06068" stroke-miterlimit="10"/>
<path d="M201.3 141.539H186.91V150.063H201.3V141.539Z" fill="#263238" stroke="#263238" stroke-width="1.06068" stroke-miterlimit="10"/>
<path d="M221.291 118.244H206.901V150.055H221.291V118.244Z" fill="#263238" stroke="#263238" stroke-width="1.06068" stroke-miterlimit="10"/>
<path d="M241.275 123.926H226.885V150.055H241.275V123.926Z" fill="#263238" stroke="#263238" stroke-width="1.06068" stroke-miterlimit="10"/>
<path d="M261.258 132.449H246.869V150.055H261.258V132.449Z" fill="#263238" stroke="#263238" stroke-width="1.06068" stroke-miterlimit="10"/>
<path d="M290.693 65.8955C290.52 65.8968 290.35 65.855 290.197 65.7741C290.044 65.6932 289.914 65.5756 289.818 65.4318L258.859 20.2827L227.452 53.7728L195.383 32.8691L164.358 40.0677L132.848 65.66C132.63 65.8377 132.349 65.9212 132.069 65.8922C131.789 65.8632 131.532 65.7241 131.354 65.5054C131.176 65.2868 131.093 65.0065 131.122 64.7263C131.151 64.4461 131.29 64.1889 131.509 64.0113L163.401 38.1098L195.788 30.5947L227.128 51.0274L259.124 16.9043L291.569 64.2321C291.679 64.3909 291.744 64.5768 291.756 64.7696C291.768 64.9625 291.727 65.1549 291.638 65.3262C291.548 65.4975 291.414 65.641 291.249 65.7414C291.083 65.8417 290.894 65.8951 290.701 65.8955H290.693Z" fill="#263238"/>
<path d="M134.843 64.8357C134.843 65.3555 134.688 65.8635 134.4 66.2956C134.111 66.7277 133.701 67.0645 133.22 67.2634C132.74 67.4623 132.212 67.5143 131.702 67.4129C131.192 67.3116 130.724 67.0613 130.357 66.6938C129.989 66.3263 129.739 65.8581 129.638 65.3484C129.536 64.8387 129.588 64.3103 129.787 63.8302C129.986 63.35 130.323 62.9396 130.755 62.6509C131.187 62.3622 131.695 62.2081 132.215 62.2081C132.912 62.2081 133.58 62.4849 134.073 62.9777C134.566 63.4705 134.843 64.1388 134.843 64.8357Z" fill="#F27777"/>
<path d="M163.88 41.7165C165.331 41.7165 166.508 40.5401 166.508 39.0888C166.508 37.6376 165.331 36.4612 163.88 36.4612C162.429 36.4612 161.252 37.6376 161.252 39.0888C161.252 40.5401 162.429 41.7165 163.88 41.7165Z" fill="#F27777"/>
<path d="M195.581 34.3561C197.032 34.3561 198.209 33.1796 198.209 31.7284C198.209 30.2771 197.032 29.1007 195.581 29.1007C194.13 29.1007 192.953 30.2771 192.953 31.7284C192.953 33.1796 194.13 34.3561 195.581 34.3561Z" fill="#F27777"/>
<path d="M227.282 55.0243C228.734 55.0243 229.91 53.8478 229.91 52.3966C229.91 50.9453 228.734 49.7689 227.282 49.7689C225.831 49.7689 224.655 50.9453 224.655 52.3966C224.655 53.8478 225.831 55.0243 227.282 55.0243Z" fill="#F27777"/>
<path d="M261.612 18.5972C261.612 19.1169 261.458 19.625 261.169 20.0571C260.881 20.4892 260.47 20.826 259.99 21.0249C259.51 21.2238 258.982 21.2758 258.472 21.1744C257.962 21.073 257.494 20.8228 257.126 20.4553C256.759 20.0878 256.509 19.6196 256.407 19.1099C256.306 18.6001 256.358 18.0718 256.557 17.5917C256.756 17.1115 257.093 16.7011 257.525 16.4124C257.957 16.1237 258.465 15.9695 258.985 15.9695C259.681 15.9695 260.35 16.2464 260.843 16.7392C261.335 17.232 261.612 17.9003 261.612 18.5972Z" fill="#F27777"/>
<path d="M293.313 64.8357C293.313 65.3555 293.159 65.8635 292.871 66.2956C292.582 66.7277 292.172 67.0645 291.691 67.2634C291.211 67.4623 290.683 67.5143 290.173 67.4129C289.663 67.3116 289.195 67.0613 288.828 66.6938C288.46 66.3263 288.21 65.8581 288.109 65.3484C288.007 64.8387 288.059 64.3103 288.258 63.8302C288.457 63.35 288.794 62.9396 289.226 62.6509C289.658 62.3622 290.166 62.2081 290.686 62.2081C291.383 62.2081 292.051 62.4849 292.544 62.9777C293.037 63.4705 293.313 64.1388 293.313 64.8357Z" fill="#F27777"/>
<path d="M347.354 315.283C375.411 315.283 398.156 312.228 398.156 308.46C398.156 304.692 375.411 301.637 347.354 301.637C319.297 301.637 296.552 304.692 296.552 308.46C296.552 312.228 319.297 315.283 347.354 315.283Z" fill="#F27777"/>
<path opacity="0.7" d="M347.354 315.283C375.411 315.283 398.156 312.228 398.156 308.46C398.156 304.692 375.411 301.637 347.354 301.637C319.297 301.637 296.552 304.692 296.552 308.46C296.552 312.228 319.297 315.283 347.354 315.283Z" fill="white"/>
<path d="M69.0253 315.283C94.9158 315.283 115.904 312.228 115.904 308.46C115.904 304.692 94.9158 301.637 69.0253 301.637C43.1349 301.637 22.1465 304.692 22.1465 308.46C22.1465 312.228 43.1349 315.283 69.0253 315.283Z" fill="#F27777"/>
<path opacity="0.7" d="M69.0253 315.283C94.9158 315.283 115.904 312.228 115.904 308.46C115.904 304.692 94.9158 301.637 69.0253 301.637C43.1349 301.637 22.1465 304.692 22.1465 308.46C22.1465 312.228 43.1349 315.283 69.0253 315.283Z" fill="white"/>
<path d="M333.016 68.0894C333.016 68.0894 352.316 66.2198 353.42 69.4363C354.524 72.6529 354.156 79.9986 354.156 79.9986C355.128 80.2513 356.076 80.5888 356.989 81.007C357.247 81.2572 360.103 83.1268 357.438 86.1961C356.742 86.9744 355.899 87.6073 354.958 88.0583C353.783 88.5784 352.665 89.2198 351.624 89.972L347.752 94.3662L348.488 100.026C348.488 100.026 350.218 101.278 352.33 105.642C352.33 105.642 357.321 108.587 360.25 110.257C362.659 111.523 365.165 112.596 367.743 113.467C367.743 113.467 369.083 113.901 368.987 114.865C368.891 115.829 362.318 137.683 362.318 137.683L358.859 148.723C358.793 150.08 358.616 151.429 358.329 152.757C357.836 155.134 355.981 156.695 354.06 156.209L354.251 164.305C354.251 164.305 345.227 168.817 330.344 168.052C330.344 168.052 323.337 167.375 318.156 163.54L318.06 144.624L294.183 140.001C294.183 140.001 291.157 139.361 292.71 136.637C294.263 133.914 299.482 127.157 299.482 127.157L316.257 106.636C316.257 106.636 317.412 105.274 317.839 104.84C318.266 104.406 319.311 104.104 323.455 103.758C327.599 103.412 332.243 102.61 332.243 102.61C332.243 102.61 334.761 100.446 335.121 100.446C335.482 100.446 335.556 97.2074 335.556 97.2074C334.283 96.2888 333.224 95.105 332.453 93.7377C331.681 92.3705 331.216 90.8521 331.088 89.2875C330.727 84.0321 333.031 71.7181 333.031 71.7181L333.016 68.0894Z" fill="white"/>
<path d="M318.45 163.466C318.45 163.466 316.418 193.644 316.418 208.086C316.418 222.527 317.323 234.223 317.772 244.365C318.221 254.508 316.418 261.493 317.993 268.927C319.568 276.361 323.182 298.001 323.182 298.001L327.429 300.563C327.429 300.563 328.165 283.346 329.711 277.267C331.257 271.187 331.743 245.491 332.655 237.601C333.568 229.711 336.49 201.77 336.49 201.77C336.49 201.77 347.759 231.065 350.475 242.562C353.191 254.059 362.421 279.968 364.46 286.276C366.499 292.584 369.642 301.932 369.642 301.932C370.597 302.211 371.6 302.286 372.586 302.152C373.012 302.118 373.422 301.976 373.777 301.739C374.133 301.502 374.422 301.178 374.617 300.798C374.617 300.798 371.622 281.926 370.304 272.755C368.677 261.412 366.028 244.365 364.416 238.057C362.804 231.749 360.36 221.828 360.36 217.095C360.36 212.362 354.28 164.835 354.28 164.835C354.28 164.835 333.097 174.058 318.45 163.466Z" fill="#263238"/>
<path d="M336.475 201.77L327.437 191.23" stroke="white" stroke-width="0.530341" stroke-miterlimit="10" stroke-linecap="round"/>
<path d="M325.126 192.003L332.567 198.929" stroke="white" stroke-width="0.530341" stroke-miterlimit="10" stroke-linecap="round"/>
<path d="M341.032 192.776C342.937 187.955 346.478 183.958 351.035 181.485" stroke="white" stroke-width="0.530341" stroke-miterlimit="10" stroke-linecap="round"/>
<path d="M351.543 167.382C351.543 167.382 350.52 171.224 351.8 173.535C353.081 175.847 354.369 175.847 354.369 175.847C354.369 175.847 356.673 188.411 356.673 195.595C356.673 202.779 355.135 203.544 356.673 211.493C358.211 219.443 359.242 222.012 359.242 226.627C359.242 231.242 361.288 234.326 363.084 237.145C364.88 239.964 365.395 248.185 365.395 251.505C365.395 254.825 366.418 258.431 367.449 261.765C367.449 261.765 367.692 269.244 368.987 270.995C370.283 272.747 370.525 278.695 370.525 278.695" stroke="white" stroke-width="0.530341" stroke-miterlimit="10" stroke-linecap="round"/>
<path d="M334.621 200.725C334.621 200.725 335.129 206.613 333.333 216.881C331.537 227.149 330.256 229.961 329.999 241.76C329.741 253.559 330.771 255.612 330.256 261.765C329.741 267.919 326.664 277.642 326.664 282.058C326.664 286.475 327.135 300.592 327.135 300.592" stroke="white" stroke-width="0.530341" stroke-miterlimit="10" stroke-linecap="round"/>
<path d="M328.975 168.921L329.491 170.974L332.825 171.74L332.31 169.178" stroke="white" stroke-width="0.530341" stroke-miterlimit="10" stroke-linecap="round"/>
<path d="M332.839 171.739C332.839 171.739 338.993 171.482 342.069 170.459L341.333 168.405" stroke="white" stroke-width="0.530341" stroke-miterlimit="10" stroke-linecap="round"/>
<path d="M344.108 167.89L344.844 170.459C344.844 170.459 349.768 170.179 350.505 169.443" stroke="white" stroke-width="0.530341" stroke-miterlimit="10" stroke-linecap="round"/>
<path d="M329.491 170.974C327.79 170.921 326.123 170.48 324.618 169.686L322.307 168.405L323.043 166.609" stroke="white" stroke-width="0.530341" stroke-miterlimit="10" stroke-linecap="round"/>
<path d="M323.183 298.001C323.183 298.001 312.142 305.207 310.56 308.585C308.977 311.964 315.292 310.617 319.797 308.814C324.302 307.01 327.157 300.562 327.157 300.562L323.183 298.001Z" fill="white" stroke="#263238" stroke-width="1.06068" stroke-miterlimit="10" stroke-linecap="round"/>
<path d="M369.995 302.027C370.552 305.114 371.648 308.079 373.234 310.786C375.663 314.562 380.248 317.801 380.248 311.861C380.248 305.921 374.588 300.82 374.588 300.82C374.588 300.82 371.776 302.344 369.995 302.027Z" fill="white" stroke="#263238" stroke-width="1.06068" stroke-miterlimit="10" stroke-linecap="round"/>
<path d="M332.95 72.167C332.95 72.167 330.558 87.0057 331.368 90.6859C333.215 98.9223 339.7 98.569 343.755 96.9939C347.546 95.5218 351.329 90.3179 351.815 89.6334C351.85 89.5851 351.899 89.549 351.955 89.5303C352.559 89.361 356.305 88.1687 357.954 85.276C359.757 82.1183 356.379 80.7714 356.379 80.7714" fill="white"/>
<mask id="mask0_140_5674" style="mask-type:luminance" maskUnits="userSpaceOnUse" x="331" y="72" width="28" height="26">
<path d="M332.95 72.167C332.95 72.167 330.558 87.0057 331.368 90.6859C333.215 98.9223 339.7 98.569 343.755 96.9939C347.546 95.5218 351.329 90.3179 351.815 89.6334C351.85 89.5851 351.899 89.549 351.955 89.5303C352.559 89.361 356.305 88.1687 357.954 85.276C359.757 82.1183 356.379 80.7714 356.379 80.7714" fill="white"/>
</mask>
<g mask="url(#mask0_140_5674)">
<g style="mix-blend-mode:multiply" opacity="0.5">
<path d="M348.297 93.4532L351.874 89.5227C351.874 89.5227 356.106 88.2199 357.954 85.239C359.036 83.4945 358.44 81.9709 357.785 81.5587C356.887 81.0728 355.96 80.6426 355.01 80.2706L353.81 82.913L352.787 83.0897C352.787 83.0897 353.214 80.3663 351.977 78.7544C350.741 77.1424 350.461 72.4759 350.461 72.4759C350.461 72.4759 348.731 81.7795 348.518 85.6732C348.463 87.8401 347.786 89.9455 346.567 91.7382C346.567 91.7382 346.788 94.1157 347.215 96.4931C347.267 96.7728 347.318 97.1924 347.37 97.7149L347.958 96.7728L348.282 97.6708C347.914 96.1251 347.745 94.4837 348.297 93.4532Z" fill="#F27777"/>
</g>
</g>
<path d="M332.95 72.167C332.95 72.167 330.558 87.0057 331.368 90.6859C333.215 98.9223 339.7 98.569 343.755 96.9939C347.546 95.5218 351.329 90.3179 351.815 89.6334C351.85 89.5851 351.899 89.549 351.955 89.5303C352.559 89.361 356.305 88.1687 357.954 85.276C359.757 82.1183 356.379 80.7714 356.379 80.7714" stroke="#263238" stroke-width="1.06068" stroke-miterlimit="10" stroke-linecap="round"/>
<path d="M342.107 79.7115C341.967 80.3003 342.107 80.8303 342.379 80.8965C342.651 80.9628 343.019 80.5506 343.159 79.9691C343.299 79.3876 343.159 78.8577 342.887 78.7841C342.615 78.7105 342.247 79.13 342.107 79.7115Z" fill="#263238"/>
<path d="M335.784 78.1732C335.644 78.7621 335.784 79.292 336.056 79.3583C336.329 79.4245 336.697 79.0123 336.836 78.4308C336.976 77.8494 336.836 77.3121 336.564 77.2458C336.292 77.1796 335.916 77.5844 335.784 78.1732Z" fill="#263238"/>
<path d="M346.03 77.1354C345.682 76.5234 345.187 76.0081 344.589 75.6366C343.991 75.265 343.31 75.049 342.607 75.0082" stroke="#263238" stroke-width="1.06068" stroke-miterlimit="10" stroke-linecap="round"/>
<path d="M337.764 75.1187C337.184 74.8654 336.542 74.7946 335.921 74.9155C335.3 75.0365 334.731 75.3436 334.29 75.7958" stroke="#263238" stroke-width="1.06068" stroke-miterlimit="10" stroke-linecap="round"/>
<path d="M338.19 77.7979C338.204 78.7839 338.13 79.7691 337.97 80.742C337.727 81.9712 336.77 82.2141 337.013 83.1636C337.256 84.1131 338.485 84.2088 338.485 84.2088" stroke="#263238" stroke-width="1.06068" stroke-miterlimit="10" stroke-linecap="round"/>
<path d="M339.766 88.0436C340.286 88.2096 340.837 88.2606 341.38 88.1933C341.922 88.1259 342.444 87.9418 342.908 87.6535" stroke="#263238" stroke-width="1.06068" stroke-miterlimit="10" stroke-linecap="round"/>
<path d="M351.425 61.8035C351.425 61.8035 346.471 57.5197 341.738 57.5197C337.006 57.5197 333.171 60.2284 330.241 60.4639C327.312 60.6995 325.288 57.9834 323.484 61.5901C321.681 65.1967 328.445 71.2838 332.95 72.1818C337.455 73.0798 343.762 71.7328 345.566 71.5046C347.293 71.3862 349.027 71.3862 350.755 71.5046C350.755 71.5046 349.401 75.7884 350.755 77.1427C352.109 78.4971 352.33 79.3951 352.33 80.293C352.407 81.2841 352.557 82.2682 352.779 83.2372L354.133 83.6936L354.811 81.2131C356.638 79.2646 357.887 76.846 358.417 74.228C359.087 70.1724 355.709 66.1315 355.709 66.1315L351.425 61.8035Z" fill="#263238"/>
<path d="M332.449 70.3344C332.449 70.3344 340.156 71.8064 346.191 69.2965C352.227 66.7866 347.023 61.8036 347.023 61.8036" stroke="white" stroke-width="0.530341" stroke-miterlimit="10" stroke-linecap="round"/>
<path d="M348.296 61.3839C348.922 61.3839 354.126 65.3365 353.081 68.2512C352.035 71.166 349.96 71.3794 349.96 71.3794" stroke="white" stroke-width="0.530341" stroke-miterlimit="10" stroke-linecap="round"/>
<path d="M347.443 150.792L340.936 147.362C339.264 147.269 337.601 147.053 335.961 146.714C334.444 146.28 318.884 144.793 318.884 144.793L318.649 148.473C318.649 148.473 336.395 150.858 340.068 151.292C343.741 151.726 346.994 153.456 347.642 154.538C348.29 155.62 349.592 156.702 348.945 159.69C348.297 162.679 343.969 167.051 343.969 167.051C343.763 166.742 354.377 165.976 354.274 164.843C354.045 162.59 352.846 156.01 352.846 156.01L347.443 150.792Z" fill="#F27777"/>
<path opacity="0.5" d="M347.443 150.792L340.936 147.362C339.264 147.269 337.601 147.053 335.961 146.714C334.444 146.28 318.884 144.793 318.884 144.793L318.649 148.473C318.649 148.473 336.395 150.858 340.068 151.292C343.741 151.726 346.994 153.456 347.642 154.538C348.29 155.62 349.592 156.702 348.945 159.69C348.297 162.679 343.969 167.051 343.969 167.051C343.8 166.72 354.399 165.969 354.274 164.843C353.928 161.972 352.846 156.01 352.846 156.01L347.443 150.792Z" fill="white"/>
<path d="M368.906 114.784C368.332 112.09 364.048 112.451 361.465 110.957C358.881 109.463 352.632 106.003 352.632 106.003L349.607 101.454C349.061 100.228 348.62 98.9574 348.29 97.6564L347.966 96.7584L347.377 97.7005C347.752 101.734 348.113 112.061 348.113 112.061L349.408 118.553C349.408 118.553 354.391 139.972 355.687 144.734C356.982 149.496 356.982 152.735 356.121 154.251C355.26 155.767 355.547 156.459 355.547 156.459C355.547 156.459 358.925 153.846 358.719 151.255C358.447 148.208 369.311 116.61 368.906 114.784Z" fill="#F27777"/>
<path opacity="0.5" d="M368.906 114.784C368.612 112.046 364.048 112.451 361.465 110.957C358.881 109.463 352.632 106.003 352.632 106.003L349.607 101.454C349.061 100.228 348.62 98.9574 348.29 97.6564L347.966 96.7584L347.377 97.7005C347.752 101.734 348.113 112.061 348.113 112.061L349.408 118.553C349.408 118.553 354.391 139.972 355.687 144.734C356.982 149.496 356.982 152.735 356.121 154.251C355.26 155.767 355.547 156.459 355.547 156.459C355.547 156.459 359.021 153.839 358.719 151.255C358.373 148.48 369.171 117.059 368.906 114.784Z" fill="white"/>
<path d="M349.997 112.083C349.997 112.083 348.643 99.9161 347.966 96.7584C347.288 93.6008 347.745 91.8048 344.815 91.8048C341.886 91.8048 338.279 91.3485 338.927 92.931C339.575 94.5135 344.079 93.1518 344.815 93.829C345.551 94.5061 345.036 96.0813 345.036 96.0813C345.036 96.0813 339.148 96.5376 339.148 98.1128C339.148 99.6879 339.376 104.001 340.502 104.421C341.628 104.84 342.077 102.397 342.077 102.397C342.077 102.397 342.305 107.549 343.431 109.382C344.149 110.514 344.98 111.569 345.912 112.532L349.997 112.083Z" fill="white" stroke="#263238" stroke-width="1.06068" stroke-miterlimit="10" stroke-linecap="round"/>
<path d="M345.941 115.461C345.941 115.461 345.264 143.431 346.39 147.914C347.516 152.396 353.603 158.505 356.753 155.576C359.904 152.646 358.336 146.338 358.336 143.409C358.336 140.48 351.123 118.847 351.123 117.265C351.015 115.95 350.71 114.66 350.217 113.437" stroke="#263238" stroke-width="1.06068" stroke-miterlimit="10" stroke-linecap="round"/>
<path d="M346.39 118.847L350.895 118.391" stroke="#263238" stroke-width="1.06068" stroke-miterlimit="10" stroke-linecap="round"/>
<path d="M317.582 132.832L318.45 107.946C318.45 107.946 317.368 107.299 316.934 109.676C316.5 112.053 316.286 116.823 316.286 116.823C316.286 116.823 311.09 113.577 312.392 115.52C313.695 117.463 315.852 121.799 315.852 121.799L307.814 129.799L311.494 131.316L317.582 132.832Z" fill="#F27777"/>
<path opacity="0.5" d="M317.582 132.832L318.45 107.946C318.45 107.946 317.368 107.299 316.934 109.676C316.5 112.053 316.286 116.823 316.286 116.823C316.286 116.823 311.09 113.577 312.392 115.52C313.695 117.463 315.852 121.799 315.852 121.799L307.814 129.799L311.494 131.316L317.582 132.832Z" fill="white"/>
<path d="M328.357 113.504C328.357 113.504 327.945 114.976 329.675 114.976C331.404 114.976 334.444 113.746 334.444 113.746L334.223 111.303C334.223 111.303 330.065 113.327 328.357 113.504Z" fill="#F27777"/>
<path opacity="0.5" d="M328.357 113.504C328.357 113.504 327.945 114.976 329.675 114.976C331.404 114.976 334.444 113.746 334.444 113.746L334.223 111.303C334.223 111.303 330.065 113.327 328.357 113.504Z" fill="white"/>
<path d="M335.784 97.0455C335.784 97.0455 333.532 110.294 334.886 113.239C336.24 116.183 338.264 115.491 339.84 114.144C341.415 112.797 343.446 109.411 343.446 109.411" stroke="#263238" stroke-width="1.06068" stroke-miterlimit="10" stroke-linecap="round"/>
<path d="M317.994 144.984L318.45 163.466C318.45 163.466 323.602 168.42 333.546 168.42C343.49 168.42 354.281 164.813 354.281 164.813V158.277" stroke="#263238" stroke-width="1.06068" stroke-miterlimit="10" stroke-linecap="round"/>
<path d="M348.422 99.6879C348.422 99.6879 352.477 103.743 352.477 107.578C352.477 111.413 351.8 112.311 351.8 112.311" stroke="#263238" stroke-width="1.06068" stroke-miterlimit="10" stroke-linecap="round"/>
<path d="M352.021 105.326C352.021 105.326 358.108 108.925 361.487 110.957C364.865 112.988 368.928 112.981 368.928 114.784C368.928 116.588 359.463 147.237 359.463 147.237" stroke="#263238" stroke-width="1.06068" stroke-miterlimit="10" stroke-linecap="round"/>
<path d="M355.856 115.461L353.604 124.478" stroke="#263238" stroke-width="1.06068" stroke-miterlimit="10" stroke-linecap="round"/>
<path d="M318.052 120.753L314.409 113.113" stroke="#263238" stroke-width="0.530341" stroke-miterlimit="10" stroke-linecap="round"/>
<path d="M318.052 122.94L312.591 119.664" stroke="#263238" stroke-width="0.530341" stroke-miterlimit="10" stroke-linecap="round"/>
<path d="M335.872 140.031L334.783 145.492" stroke="#263238" stroke-width="0.530341" stroke-miterlimit="10" stroke-linecap="round"/>
<path d="M365.336 114.571C365.336 114.571 359.882 115.66 354.788 121.843" stroke="#263238" stroke-width="0.530341" stroke-miterlimit="10" stroke-linecap="round"/>
<path d="M361.7 114.24C361.7 114.24 360.228 113.872 355.157 118.236" stroke="#263238" stroke-width="0.530341" stroke-miterlimit="10" stroke-linecap="round"/>
<path d="M335.872 116.028L333.693 133.119L335.511 133.487L336.969 128.033" stroke="#263238" stroke-width="0.530341" stroke-miterlimit="10" stroke-linecap="round"/>
<path d="M337.329 160.765C330.779 166.226 321.688 165.858 321.688 165.858" stroke="#263238" stroke-width="0.530341" stroke-miterlimit="10" stroke-linecap="round"/>
<path d="M309.647 131.08C309.647 131.08 305.194 127.003 298.886 132.192" stroke="#263238" stroke-width="0.530341" stroke-miterlimit="10" stroke-linecap="round"/>
<path d="M335.35 100.365C335.35 100.365 333.546 100.814 331.515 103.972C329.483 107.129 327.01 112.532 328.814 112.981C330.617 113.43 333.966 111.406 333.966 111.406" stroke="#263238" stroke-width="1.06068" stroke-miterlimit="10" stroke-linecap="round"/>
<path d="M342.335 112.311L344.587 114.335" stroke="#263238" stroke-width="1.06068" stroke-miterlimit="10" stroke-linecap="round"/>
<path d="M332.192 102.617C332.192 102.617 323.853 103.744 320.474 103.972C317.096 104.2 317.751 105.444 316.647 106.224C314.865 107.468 294.433 133.369 293.093 135.85C291.753 138.33 291.967 139.457 294.219 140.134C296.472 140.811 318.906 144.756 318.906 144.756L338.728 146.788L340.303 141.827C340.303 141.827 344.911 142.438 345.72 142.438" stroke="#263238" stroke-width="1.06068" stroke-miterlimit="10" stroke-linecap="round"/>
<path d="M338.051 140.001C333.676 138.732 329.447 137.005 325.435 134.849" stroke="#263238" stroke-width="1.06068" stroke-miterlimit="10" stroke-linecap="round"/>
<path d="M323.631 134.392C323.631 134.392 317.007 131.934 313.422 131.485C309.838 131.036 304.347 130.889 304.347 130.889" stroke="#263238" stroke-width="1.06068" stroke-miterlimit="10" stroke-linecap="round"/>
<path d="M317.544 131.463L318.221 113.658" stroke="#263238" stroke-width="1.06068" stroke-miterlimit="10" stroke-linecap="round"/>
<path d="M338.728 146.787C340.274 147.565 341.894 148.186 343.564 148.642" stroke="#263238" stroke-width="1.06068" stroke-miterlimit="10" stroke-linecap="round"/>
<path d="M43.8156 132.442L46.4727 117.92L63.2914 111.295C63.2914 111.295 64.1084 106.783 64.9328 106.585C65.7572 106.386 66.5668 104.531 66.5668 104.531L66.162 100.814C66.162 100.814 67.7003 94.9255 75.4362 99.5111C75.4362 99.5111 73.0956 101.072 73.5004 101.719C73.9052 102.367 73.0514 104.428 74.0745 104.428C75.0976 104.428 77.1659 105.731 78.2111 106.783C78.9426 107.569 79.589 108.43 80.1395 109.352L88.847 109.853C89.7395 109.86 90.6275 109.981 91.4894 110.213C91.6366 105.959 91.114 102.713 90.0835 100.188C86.337 91.076 79.5065 87.8227 78.5276 83.2592C77.5486 78.6957 78.0418 78.2173 78.0418 78.2173C79.0372 77.2052 79.766 75.962 80.1629 74.5991C80.5598 73.2362 80.6125 71.7961 80.3162 70.4078C79.3446 65.5278 75.5981 62.1052 62.0917 61.4575C48.5852 60.8098 50.5431 70.0766 50.5431 70.0766L50.705 70.7243C50.705 70.7243 42.0785 73.6685 43.7126 84.5546C45.3466 95.4408 50.0573 100.174 49.8953 103.589C49.7334 107.004 44.6841 108.307 37.5224 116.102C30.3607 123.896 28.9033 135.622 31.8328 143.269C33.3049 147.03 36.1828 150.166 39.7968 152.507L43.8156 132.442Z" fill="#263238"/>
<path d="M55.0919 133.877V137.16L48.8575 156.422C52.7532 157.453 56.8387 157.539 60.7741 156.673C62.9957 156.094 65.119 155.188 67.0747 153.986L55.0919 133.877Z" fill="#263238"/>
<path d="M73.0148 101.601L73.7508 104.914C73.7508 104.914 75.959 102.705 80.2722 109.411C80.2722 109.411 89.2372 109.197 91.6809 110.419C91.6809 110.419 92.1888 110.566 93.8449 112.326C95.501 114.085 101.728 119.686 101.728 119.686C101.728 119.686 109.721 127.105 110.516 127.68C111.311 128.254 114.292 131.102 116.523 132.096L122.499 118.486L125.164 111.751L126.636 106.209H127.107L127.21 101.741L126.849 96.4123C126.908 96.1413 127.032 95.8886 127.21 95.6762C127.827 94.8209 128.302 93.8714 128.616 92.8645C128.616 92.364 128.108 89.4051 128.108 89.4051C128.108 89.4051 127.858 88.669 128.402 88.5807C128.947 88.4924 130.956 89.1916 131.207 90.5975L131.943 90.3472C132.552 88.8909 133.312 87.502 134.21 86.2033C135.402 84.6576 136.624 83.686 137.382 84.1865C137.59 84.33 137.74 84.5431 137.805 84.7874C137.87 85.0316 137.845 85.291 137.735 85.5188L135.365 89.8762C135.365 89.8762 134.32 91.282 135.616 91.7825C135.616 91.7825 138.42 93.5858 138.604 95.1683C138.788 96.7508 137.772 98.1125 136.874 99.2755C135.976 100.438 134.394 102.956 134.394 102.956L132.554 104.582L131.818 107.387L132.686 108.469L131.391 114.085L130.456 118.295L129.985 120.849L127.041 130.933L124.096 139.721C124.096 139.721 122.58 144.756 118.907 144.616C115.234 144.476 111.208 142.489 109.905 141.841C108.603 141.193 97.8637 135.585 97.8637 135.585L95.6556 134.539C95.9503 135.545 96.0771 136.592 96.031 137.638C95.9942 139.581 93.9038 143.865 93.2929 144.837L92.9322 152.433C92.7896 153.751 92.8144 155.081 93.0058 156.393C93.3297 158.373 94.9858 169.575 95.3464 170.974C95.3464 170.974 91.7692 174.212 81.1113 175.751C70.4533 177.289 65.4629 174.794 65.4629 174.794L60.7154 172.004L66.567 160.441C66.567 160.441 68.0391 157.004 67.8919 156.098C67.7447 155.193 65.2274 151.292 65.2274 151.292L55.99 134.849L55.5557 134.996L54.1204 139.795L48.9313 156.069L42.1008 176.384C42.1008 176.384 40.2312 181.536 39.4584 183.06L37.3018 189.633C37.4216 190.807 37.7117 191.957 38.1629 193.048L32.7383 189.537L33.7025 184.385L34.9023 176.7L36.3744 168.346L37.6698 161.435L39.7381 152.219L40.4741 149.673L41.9462 142.474L44.5371 129.417L46.7453 118.236L62.2022 112.09L63.1665 111.354C63.3809 109.931 63.9034 108.572 64.6974 107.372C65.2486 106.582 65.9048 105.872 66.648 105.26C66.648 105.26 66.5744 104.295 66.5228 103.383C66.4713 102.47 66.2358 100.792 66.2358 100.792C66.2358 100.792 71.0127 102.845 73.0148 101.601Z" fill="white"/>
<path d="M52.3101 72.0196C52.3101 72.0196 55.1733 65.6823 60.8997 65.6823C66.6262 65.6823 78.4839 76.9291 78.4839 76.9291" stroke="white" stroke-width="0.530341" stroke-miterlimit="10" stroke-linecap="round"/>
<path d="M54.761 73.0208C54.761 73.0208 58.2351 69.3406 62.5336 70.7685C66.8322 72.1965 67.4431 77.312 67.4431 77.312" stroke="white" stroke-width="0.530341" stroke-miterlimit="10" stroke-linecap="round"/>
<path d="M51.8977 73.6537C51.8977 73.6537 46.7896 76.517 46.3774 81.8386C45.9652 87.1602 53.5318 93.4902 54.5549 100.652C55.578 107.814 50.2637 109.44 41.674 115.373C33.0844 121.305 34.5197 134.591 36.3598 137.454" stroke="white" stroke-width="0.530341" stroke-miterlimit="10" stroke-linecap="round"/>
<path d="M37.3827 139.096C37.3827 139.096 38.6045 141.753 40.4446 142.57" stroke="white" stroke-width="0.530341" stroke-miterlimit="10" stroke-linecap="round"/>
<path d="M52.5156 87.5577C52.2737 88.0771 52.1652 88.6486 52.1999 89.2206C52.2346 89.7925 52.4115 90.3467 52.7144 90.8331C53.7375 92.6732 61.5469 101.874 60.8992 106.172C60.2515 110.471 56.1959 113.121 56.1959 113.121" stroke="white" stroke-width="0.530341" stroke-miterlimit="10" stroke-linecap="round"/>
<path d="M56.3946 73.6537C56.3946 73.6537 51.6912 75.6999 51.8973 80.4033C52.1034 85.1066 53.1265 86.3358 53.1265 86.3358" stroke="white" stroke-width="0.530341" stroke-miterlimit="10" stroke-linecap="round"/>
<path d="M78.4839 89.2138C79.9453 92.5222 81.9506 95.5624 84.4164 98.2083C88.0967 101.889 88.5015 107.21 88.5015 107.21" stroke="white" stroke-width="0.530341" stroke-miterlimit="10" stroke-linecap="round"/>
<path d="M82.775 100.851C82.775 100.851 84.6151 105.149 84.6151 107.806" stroke="white" stroke-width="0.530341" stroke-miterlimit="10" stroke-linecap="round"/>
<path d="M72.5952 101.992L66.8172 107.195C66.8172 107.195 66.1989 108.771 65.036 111.295C63.873 113.82 64.0644 118.656 64.0644 118.656L67.6268 125.744C67.6268 125.744 60.7743 117.883 60.3841 116.911C59.994 115.94 52.8249 117.691 51.4706 118.273C50.1163 118.854 48.3645 120.017 48.7546 121.762C49.1447 123.506 50.8891 125.825 50.1089 126.215C49.3287 126.605 47.2015 125.633 47.2015 126.796C47.2015 127.959 49.7262 132.42 48.5632 133.965C47.4003 135.511 40.0325 160.522 40.0325 160.522C40.0325 160.522 44.6843 156.643 43.5213 158.196C42.3584 159.749 36.7423 172.343 36.7423 172.343L34.6078 179.703L39.6497 153.544L43.9114 131.463L46.4729 117.92C48.946 117.095 63.2915 111.295 63.2915 111.295C63.2915 111.295 64.4251 106.526 66.5669 104.531L66.1621 100.814C66.1621 100.814 70.0705 102.183 72.5952 101.992Z" fill="#F27777"/>
<path opacity="0.5" d="M72.5952 101.992L66.8172 107.195C66.8172 107.195 66.1989 108.771 65.036 111.295C63.873 113.82 64.0644 118.656 64.0644 118.656L67.6268 125.744C67.6268 125.744 60.7743 117.883 60.3841 116.911C59.994 115.94 52.8249 117.691 51.4706 118.273C50.1163 118.854 48.3645 120.017 48.7546 121.762C49.1447 123.506 50.8891 125.825 50.1089 126.215C49.3287 126.605 47.2015 125.633 47.2015 126.796C47.2015 127.959 49.7262 132.42 48.5632 133.965C47.4003 135.511 40.0325 160.522 40.0325 160.522C40.0325 160.522 44.6843 156.643 43.5213 158.196C42.3584 159.749 36.7423 172.343 36.7423 172.343L34.6078 179.703L39.6497 153.544L43.9114 131.463L46.4729 117.92C48.946 117.095 63.2915 111.295 63.2915 111.295C63.2915 111.295 63.6007 106.879 66.5743 105.333L66.1621 100.814C66.1621 100.814 70.0705 102.183 72.5952 101.992Z" fill="white"/>
<path d="M94.1023 128.151C94.1023 128.151 97.5912 122.343 97.9813 123.698C98.3714 125.052 97.0097 129.696 97.0097 129.696C97.0097 129.696 100.69 128.342 100.307 129.505C99.9244 130.668 99.1442 131.249 99.3356 131.831C99.527 132.412 112.128 139 113.681 139.773C115.234 140.546 118.914 136.093 120.659 137.447C122.403 138.801 120.659 143.446 117.17 143.453C113.681 143.46 103.605 139.037 103.605 139.037L95.6701 134.422" fill="#F27777"/>
<path opacity="0.5" d="M94.1023 128.151C94.1023 128.151 97.5912 122.343 97.9813 123.698C98.3714 125.052 97.0097 129.696 97.0097 129.696C97.0097 129.696 100.69 128.342 100.307 129.505C99.9244 130.668 99.1442 131.249 99.3356 131.831C99.527 132.412 112.128 139 113.681 139.773C115.234 140.546 118.914 136.093 120.659 137.447C122.403 138.801 120.659 143.446 117.17 143.453C113.681 143.46 103.605 139.037 103.605 139.037L95.6995 134.437" fill="white"/>
<path d="M73.1765 151.601C73.1765 151.601 95.832 139.589 92.1518 144.042C88.4716 148.495 76.2753 153.544 73.1765 151.601Z" fill="#F27777"/>
<path opacity="0.5" d="M73.1765 151.601C73.1765 151.601 95.832 139.589 92.1518 144.042C88.4716 148.495 76.2753 153.544 73.1765 151.601Z" fill="white"/>
<path d="M66.1621 100.851C66.1621 100.851 66.324 103.942 66.8172 107.195C67.3103 110.449 67.1411 110.449 70.2324 114.35C73.3238 118.251 76.5772 121.512 77.063 120.864" stroke="#263238" stroke-width="1.06068" stroke-miterlimit="10" stroke-linecap="round"/>
<path d="M77.2253 119.723C77.2253 119.723 77.5491 114.026 76.4156 110.287C75.2821 106.548 73.6481 105.237 73.6481 104.398C73.5931 103.524 73.4849 102.654 73.3242 101.793" stroke="#263238" stroke-width="1.06068" stroke-miterlimit="10" stroke-linecap="round"/>
<path d="M66.162 105.569C64.8619 106.739 63.9524 108.281 63.5564 109.985C63.0706 112.583 62.5848 115.675 62.5848 115.675L67.6268 125.766C68.0657 124.009 68.7209 122.313 69.5773 120.717C70.0014 119.929 70.5508 119.215 71.2039 118.604" stroke="#263238" stroke-width="1.06068" stroke-miterlimit="10" stroke-linecap="round"/>
<path d="M78.3655 116.955C78.7215 116.866 79.0916 116.849 79.4543 116.905C79.8171 116.96 80.1651 117.088 80.478 117.279C81.7808 117.934 84.3864 121.35 84.3864 121.35C84.3864 121.35 82.5978 112.885 79.5064 108.498C76.415 104.111 74.2952 104.428 74.2952 104.428" stroke="#263238" stroke-width="1.06068" stroke-miterlimit="10" stroke-linecap="round"/>
<path d="M62.0918 111.913L46.4729 117.92C46.4729 117.92 40.7832 148.996 38.6634 157.291C36.5436 165.586 32.9738 189.022 32.9738 189.022L37.1987 189.831L38.6708 185.607" stroke="#263238" stroke-linecap="round" stroke-linejoin="round"/>
<path d="M39.4805 183.178C39.4805 183.178 40.4521 181.705 43.0577 173.609C45.6633 165.512 52.6263 145.639 53.7966 141.716C54.9669 137.793 55.909 135.209 55.909 135.209" stroke="#263238" stroke-width="1.06068" stroke-miterlimit="10" stroke-linecap="round"/>
<path d="M53.1417 130.432C53.1417 130.432 66.317 153.986 67.4578 155.002C68.5987 156.017 66.972 158.741 66.6408 160.206" stroke="#263238" stroke-width="1.06068" stroke-miterlimit="10" stroke-linecap="round"/>
<path d="M65.1834 163.165L60.9585 171.953C60.9585 171.953 63.726 176.185 75.4365 176.185C82.4056 176.207 89.2749 174.529 95.4497 171.298C95.4497 171.298 92.6821 156.658 92.8441 154.052C93.006 151.447 93.3372 144.616 93.3372 144.616C93.3372 144.616 96.2814 140.2 95.9355 136.807C95.5895 133.413 94.1469 129.483 94.1469 128.835C94.1469 128.188 93.823 121.188 93.823 121.188" stroke="#263238" stroke-width="1.06068" stroke-miterlimit="10" stroke-linecap="round"/>
<path d="M75.4144 148.701L87.0734 141.547" stroke="#263238" stroke-width="0.530341" stroke-miterlimit="10" stroke-linecap="round"/>
<path d="M81.5527 146.456L87.8901 142.776" stroke="#263238" stroke-width="0.530341" stroke-miterlimit="10" stroke-linecap="round"/>
<path d="M116.442 132.25L114.064 138.073" stroke="#263238" stroke-width="0.530341" stroke-miterlimit="10" stroke-linecap="round"/>
<path d="M115.492 134.797L113.247 137.05" stroke="#263238" stroke-width="0.530341" stroke-miterlimit="10" stroke-linecap="round"/>
<path d="M49.0342 155.458C49.0342 155.458 45.1479 159.955 42.4907 161.795" stroke="#263238" stroke-width="0.530341" stroke-miterlimit="10" stroke-linecap="round"/>
<path d="M46.7893 156.68C46.7893 156.68 40.0398 161.994 38.4058 163.223" stroke="#263238" stroke-width="0.530341" stroke-miterlimit="10" stroke-linecap="round"/>
<path d="M47.989 118.847C50.0237 121.724 51.8677 124.731 53.5094 127.849" stroke="#263238" stroke-width="0.530341" stroke-miterlimit="10" stroke-linecap="round"/>
<path d="M54.1495 129.277L55.5775 131.728" stroke="#263238" stroke-width="0.530341" stroke-miterlimit="10" stroke-linecap="round"/>
<path d="M94.1469 128.835L95.9354 119.723" stroke="#263238" stroke-width="0.530341" stroke-miterlimit="10" stroke-linecap="round"/>
<path d="M94.8016 129.483L97.5618 125.582" stroke="#263238" stroke-width="0.530341" stroke-miterlimit="10" stroke-linecap="round"/>
<path d="M55.9092 135.18L48.0997 130.948" stroke="#263238" stroke-width="0.530341" stroke-miterlimit="10" stroke-linecap="round"/>
<path d="M76.9008 121.673C76.9008 121.673 79.8449 127.562 80.8092 131.765" stroke="#263238" stroke-width="0.530341" stroke-miterlimit="10" stroke-linecap="round"/>
<path d="M125.223 111.42C126.001 111.363 126.784 111.464 127.522 111.717C128.261 111.97 128.941 112.37 129.521 112.892" stroke="#263238" stroke-width="0.530341" stroke-miterlimit="10" stroke-linecap="round"/>
<path d="M35.8002 184.981L37.8169 185.732" stroke="#263238" stroke-width="0.530341" stroke-miterlimit="10" stroke-linecap="round"/>
<path d="M32.9222 189.316C32.9475 192.115 32.8 194.912 32.4806 197.692C31.9948 201.115 32.1567 208.925 32.8044 211.361C33.4522 213.797 33.7834 214.305 34.4311 212.833C35.0788 211.361 37.0367 202.749 37.0367 202.749C37.0367 202.749 37.3606 208.439 38.8253 207.953C40.29 207.467 39.4804 204.7 39.4804 202.256C39.4804 199.812 39.6423 199.003 39.4804 197.052C39.3185 195.102 37.1471 190.28 37.1471 190.28" fill="white"/>
<path d="M32.9222 189.316C32.9475 192.115 32.8 194.912 32.4806 197.692C31.9948 201.115 32.1567 208.925 32.8044 211.361C33.4522 213.797 33.7834 214.305 34.4311 212.833C35.0788 211.361 37.0367 202.749 37.0367 202.749C37.0367 202.749 37.3606 208.439 38.8253 207.953C40.29 207.467 39.4804 204.7 39.4804 202.256C39.4804 199.812 39.6423 199.003 39.4804 197.052C39.3185 195.102 37.1471 190.28 37.1471 190.28" stroke="#263238" stroke-miterlimit="10" stroke-linecap="round"/>
<path d="M127.122 106.084C127.048 104.645 127.048 103.203 127.122 101.763C127.254 100.409 126.717 98.3849 126.849 96.6111C126.982 94.8372 128.741 94.1821 128.468 91.8856C128.196 89.5892 127.659 89.3168 128.064 88.7795C128.468 88.2422 131.008 89.0445 131.17 90.5313C131.314 92.0613 131.314 93.6016 131.17 95.1316C131.037 95.5364 131.979 98.0758 131.442 99.1798C131.134 99.7779 130.907 100.414 130.765 101.071" stroke="#263238" stroke-width="0.880843" stroke-miterlimit="10" stroke-linecap="round"/>
<path d="M131.715 90.4136C131.715 90.4136 134.821 84.2014 136.58 84.0615C138.339 83.9217 137.794 85.5336 137.25 86.358C136.705 87.1823 134.953 90.1413 134.821 91.3631C134.688 92.5849 133.062 96.6258 133.062 96.6258" stroke="#263238" stroke-width="0.880843" stroke-miterlimit="10" stroke-linecap="round"/>
<path d="M134.843 91.363C134.843 91.363 139.576 94.1968 138.523 96.5153C137.47 98.8339 136.896 99.7613 136.087 99.4595C135.369 99.0927 134.727 98.5932 134.195 97.9874" stroke="#263238" stroke-width="0.880843" stroke-miterlimit="10" stroke-linecap="round"/>
<path d="M136.58 99.467C136.58 99.467 135.358 101.491 134.416 102.713C133.874 103.419 133.232 104.041 132.51 104.56L131.936 106.555" stroke="#263238" stroke-width="0.880843" stroke-miterlimit="10" stroke-linecap="round"/>
<path d="M79.8303 109.308C79.8303 109.308 91.055 109.146 92.5198 110.934C93.9845 112.723 111.723 128.997 113.865 130.462C116.007 131.927 116.471 132.25 116.471 132.25C116.471 132.25 125.252 112.377 125.252 111.42C125.252 110.463 126.724 106.055 126.724 106.055C126.724 106.055 129.491 106.378 130.146 106.378C130.802 106.378 132.583 108.498 132.583 108.498C132.583 108.498 130.146 118.42 130.146 119.539C130.146 120.658 125.59 136.137 123.471 140.884C121.351 145.632 118.429 144.947 113.711 143.482C108.993 142.018 96.1411 134.701 96.1411 134.701" stroke="#263238" stroke-width="1.06068" stroke-miterlimit="10" stroke-linecap="round"/>
<path d="M60.9582 171.953C60.9582 171.953 54.4442 188.249 52.685 199.341C50.9259 210.433 51.6766 236.372 51.1687 239.146C50.6609 241.921 43.6095 255.016 43.6095 261.316C43.6095 267.617 39.8336 300.113 39.8336 300.113L42.3509 301.622C42.3509 301.622 51.1835 274.388 54.4442 267.359C57.7048 260.33 62.2536 243.681 63.5122 240.405C64.7709 237.13 73.5961 210.926 74.0966 207.651C74.5971 204.376 77.6223 196.316 77.6223 196.316C77.6223 196.316 84.1731 236.372 85.4317 244.689C86.6904 253.006 95.5082 298.097 95.5082 298.097C96.0873 298.238 96.6791 298.322 97.2747 298.347C98.0108 298.347 98.2831 297.088 98.2831 297.088C98.2831 297.088 101.809 265.092 100.8 256.525C99.792 247.957 96.7742 237.387 96.7742 234.355C96.7742 231.322 101.308 205.134 101.308 196.08C101.308 187.027 95.4199 171.312 95.4199 171.312C95.4199 171.312 74.5235 181.853 60.9582 171.953Z" fill="#263238"/>
<path d="M96.6786 236.018C96.6786 236.018 94.4337 245.631 91.3644 250.739" stroke="white" stroke-width="0.530341" stroke-miterlimit="10" stroke-linecap="round"/>
<path d="M96.0677 245.837C96.0677 245.837 94.2276 252.786 90.5474 256.061" stroke="white" stroke-width="0.530341" stroke-miterlimit="10" stroke-linecap="round"/>
<path d="M52.5155 242.768C52.5155 242.768 53.9434 251.152 55.5775 254.626" stroke="white" stroke-width="0.530341" stroke-miterlimit="10" stroke-linecap="round"/>
<path d="M52.1039 247.677C52.1039 247.677 53.3331 253.61 55.578 257.084" stroke="white" stroke-width="0.530341" stroke-miterlimit="10" stroke-linecap="round"/>
<path d="M78.2777 196.353L86.4552 189.603" stroke="white" stroke-width="0.530341" stroke-miterlimit="10" stroke-linecap="round"/>
<path d="M82.1636 193.49L91.7764 189.191" stroke="white" stroke-width="0.530341" stroke-miterlimit="10" stroke-linecap="round"/>
<path d="M61.0979 182.037C61.0979 182.037 67.4426 186.122 71.1229 189.603" stroke="white" stroke-width="0.530341" stroke-miterlimit="10" stroke-linecap="round"/>
<path d="M40.099 300.091C40.099 300.091 30.5304 308.188 30.5304 312.207C30.5304 316.225 34.3063 315.983 38.3399 312.207C42.3734 308.431 42.5795 300.651 42.5795 300.651L40.099 300.091Z" fill="white" stroke="#263238" stroke-width="1.06068" stroke-miterlimit="10" stroke-linecap="round"/>
<path d="M95.5085 298.097C95.5085 298.097 98.784 306.156 102.317 309.689C105.85 313.222 107.859 314.474 107.859 310.69C107.859 306.907 105.592 302.631 98.2908 297.088C98.2834 297.088 100.3 298.597 95.5085 298.097Z" fill="white" stroke="#263238" stroke-width="1.06068" stroke-miterlimit="10" stroke-linecap="round"/>
<path d="M61.7089 75.008C61.0538 74.7651 60.4355 74.4707 59.7952 74.1984C59.1548 73.9261 57.9845 73.7788 57.5429 75.7883C56.8878 78.7324 61.4439 81.1614 59.9792 83.5977C59.068 85.0799 57.6984 86.2246 56.0781 86.8584C55.8144 86.9491 55.5395 87.0036 55.2611 87.0203C53.9583 87.1823 51.8459 87.0203 52.4936 89.2947C53.1413 91.5691 55.2611 93.527 56.5639 93.527H57.8667C57.8667 93.527 59.3388 97.9433 64.8592 100.358C70.3795 102.772 74.1334 102.639 75.4362 99.5478C76.739 96.4565 77.7179 93.8509 77.7179 89.7805C77.7179 85.7102 76.2458 78.8797 76.2458 78.8797C76.2458 78.8797 74.943 80.6756 69.9011 78.3939C66.5668 76.885 63.446 75.6631 61.7089 75.008Z" fill="white"/>
<mask id="mask1_140_5674" style="mask-type:luminance" maskUnits="userSpaceOnUse" x="52" y="74" width="26" height="29">
<path d="M61.7089 75.008C61.0538 74.7651 60.4355 74.4707 59.7952 74.1984C59.1548 73.9261 57.9845 73.7788 57.5429 75.7883C56.8878 78.7324 61.4439 81.1614 59.9792 83.5977C59.068 85.0799 57.6984 86.2246 56.0781 86.8584C55.8144 86.9491 55.5395 87.0036 55.2611 87.0203C53.9583 87.1823 51.8459 87.0203 52.4936 89.2947C53.1413 91.5691 55.2611 93.527 56.5639 93.527H57.8667C57.8667 93.527 59.3388 97.9433 64.8592 100.358C70.3795 102.772 74.1334 102.639 75.4362 99.5478C76.739 96.4565 77.7179 93.8509 77.7179 89.7805C77.7179 85.7102 76.2458 78.8797 76.2458 78.8797C76.2458 78.8797 74.943 80.6756 69.9011 78.3939C66.5668 76.885 63.446 75.6631 61.7089 75.008Z" fill="white"/>
</mask>
<g mask="url(#mask1_140_5674)">
<g style="mix-blend-mode:multiply" opacity="0.5">
<path d="M69.9082 78.3938C69.9082 78.3938 62.1282 77.9596 60.9653 78.1509C59.8023 78.3423 61.1566 81.8312 60.7739 85.32C60.3912 88.8089 60.5752 94.4323 62.1282 96.1767C63.9609 97.9754 65.9029 99.6592 67.943 101.219C67.943 101.219 61.9737 100.254 59.8023 97.7298C57.631 95.2051 57.285 93.8508 57.285 93.8508C57.285 93.8508 52.2431 90.9066 51.853 88.6175C51.4629 86.3284 54.7972 87.5429 56.3944 86.4094C57.2924 85.7911 61.0094 84.6281 60.0747 81.5294C59.1399 78.4306 57.631 77.8492 57.5721 75.7735C57.5279 74.3014 58.8234 73.8745 59.6183 73.742C59.9767 73.6817 60.345 73.7358 60.6709 73.8966L69.9082 78.3938Z" fill="#F27777"/>
</g>
</g>
<path d="M61.7089 75.008C61.0538 74.7651 60.4355 74.4707 59.7952 74.1984C59.1548 73.9261 57.9845 73.7788 57.5429 75.7883C56.8878 78.7324 61.4439 81.1614 59.9792 83.5977C59.068 85.0799 57.6984 86.2246 56.0781 86.8584C55.8144 86.9491 55.5395 87.0036 55.2611 87.0203C53.9583 87.1823 51.8459 87.0203 52.4936 89.2947C53.1413 91.5691 55.2611 93.527 56.5639 93.527H57.8667C57.8667 93.527 59.3388 97.9433 64.8592 100.358C70.3795 102.772 74.1334 102.639 75.4362 99.5478C76.739 96.4565 77.7179 93.8509 77.7179 89.7805C77.7179 85.7102 76.2458 78.8797 76.2458 78.8797C76.2458 78.8797 74.943 80.6756 69.9011 78.3939C66.5668 76.885 63.446 75.6631 61.7089 75.008Z" stroke="#263238" stroke-width="1.06068" stroke-miterlimit="10" stroke-linecap="round"/>
<path d="M67.4578 84.6503C67.5608 85.2686 67.3915 85.8133 67.075 85.8648C66.7585 85.9163 66.4346 85.4526 66.339 84.8343C66.2433 84.2161 66.4126 83.664 66.7217 83.6125C67.0308 83.561 67.3547 84.0615 67.4578 84.6503Z" fill="#263238"/>
<path d="M74.1923 83.5241C74.288 84.1424 74.1187 84.6871 73.8096 84.7386C73.5005 84.7901 73.1692 84.3264 73.0736 83.7082C72.9779 83.0899 73.1398 82.5452 73.4489 82.4937C73.7581 82.4421 74.0893 82.9059 74.1923 83.5241Z" fill="#263238"/>
<path d="M63.5565 81.6473C63.9683 81.035 64.527 80.5358 65.1815 80.195C65.8359 79.8543 66.5653 79.683 67.303 79.6967" stroke="#263238" stroke-width="1.06068" stroke-miterlimit="10" stroke-linecap="round"/>
<path d="M72.345 80.1825C72.9702 79.964 73.6471 79.9406 74.2859 80.1154C74.9247 80.2902 75.4953 80.655 75.9222 81.1614" stroke="#263238" stroke-width="1.06068" stroke-miterlimit="10" stroke-linecap="round"/>
<path d="M71.6973 82.95C71.6073 83.9785 71.6073 85.0128 71.6973 86.0414C71.8592 87.3442 72.8308 87.668 72.5069 88.647C72.183 89.6259 70.8802 89.6185 70.8802 89.6185" stroke="#263238" stroke-width="1.06068" stroke-miterlimit="10" stroke-linecap="round"/>
<path d="M69.2538 93.5271C68.6964 93.6587 68.117 93.6684 67.5555 93.5553C66.994 93.4422 66.4635 93.2091 66.0005 92.872" stroke="#263238" stroke-width="1.06068" stroke-miterlimit="10" stroke-linecap="round"/>
</svg>
