<svg width="67" height="50" viewBox="0 0 67 50" fill="none" xmlns="http://www.w3.org/2000/svg">
<path d="M56.1946 4.25409C51.9066 2.2804 47.3703 0.878004 42.7055 0.0839844C42.1244 1.1174 41.4455 2.50735 40.9774 3.61313C35.9479 2.86916 30.9646 2.86916 26.0275 3.61313C25.5596 2.5076 24.8654 1.1174 24.279 0.0839844C19.6096 0.87837 15.0694 2.28433 10.7794 4.26439C2.24261 16.9551 -0.0716506 29.3302 1.08535 41.5302C6.74751 45.6898 12.2347 48.2166 17.6294 49.8702C18.9702 48.0564 20.1553 46.1361 21.1727 44.1292C19.2358 43.4038 17.3685 42.5098 15.5931 41.4579C16.0603 41.1172 16.5165 40.7622 16.961 40.3933C27.7194 45.3435 39.4089 45.3435 50.039 40.3933C50.4855 40.7597 50.9415 41.1147 51.4067 41.4579C49.6285 42.5126 47.7577 43.4083 45.8169 44.1345C46.84 46.1496 48.0231 48.0717 49.3601 49.8752C54.76 48.2219 60.2523 45.695 65.9145 41.5302C67.2722 27.3875 63.5953 15.1259 56.1946 4.25409ZM22.6385 34.0275C19.4089 34.0275 16.7603 31.0614 16.7603 27.4496C16.7603 23.8378 19.3524 20.8666 22.6385 20.8666C25.9249 20.8666 28.5732 23.8325 28.5168 27.4496C28.5219 31.0614 25.9249 34.0275 22.6385 34.0275ZM44.3613 34.0275C41.1316 34.0275 38.4833 31.0614 38.4833 27.4496C38.4833 23.8378 41.0752 20.8666 44.3613 20.8666C47.6476 20.8666 50.296 23.8325 50.2395 27.4496C50.2395 31.0614 47.6476 34.0275 44.3613 34.0275Z" fill="#FDE3E3"/>
</svg>
