<svg width="25" height="25" viewBox="0 0 25 25" fill="none" xmlns="http://www.w3.org/2000/svg">
<path fill-rule="evenodd" clip-rule="evenodd" d="M16.7 3.32666H8.69995C5.93853 3.32666 3.69995 5.56524 3.69995 8.32666V16.3267C3.69995 19.0881 5.93853 21.3267 8.69995 21.3267H16.7C19.4614 21.3267 21.7 19.0881 21.7 16.3267V8.32666C21.7 5.56524 19.4614 3.32666 16.7 3.32666ZM19.95 16.3267C19.9445 18.1193 18.4926 19.5712 16.7 19.5767H8.69995C6.9073 19.5712 5.45544 18.1193 5.44995 16.3267V8.32666C5.45544 6.53401 6.9073 5.08215 8.69995 5.07666H16.7C18.4926 5.08215 19.9445 6.53401 19.95 8.32666V16.3267ZM17.45 8.57666C18.0023 8.57666 18.45 8.12894 18.45 7.57666C18.45 7.02438 18.0023 6.57666 17.45 6.57666C16.8977 6.57666 16.45 7.02438 16.45 7.57666C16.45 8.12894 16.8977 8.57666 17.45 8.57666ZM12.7 7.82666C10.2147 7.82666 8.19995 9.84138 8.19995 12.3267C8.19995 14.812 10.2147 16.8267 12.7 16.8267C15.1853 16.8267 17.2 14.812 17.2 12.3267C17.2027 11.1324 16.7294 9.98623 15.8849 9.14174C15.0404 8.29725 13.8943 7.824 12.7 7.82666ZM9.94995 12.3267C9.94995 13.8455 11.1812 15.0767 12.7 15.0767C14.2188 15.0767 15.45 13.8455 15.45 12.3267C15.45 10.8079 14.2188 9.57666 12.7 9.57666C11.1812 9.57666 9.94995 10.8079 9.94995 12.3267Z" fill="white"/>
</svg>
