<svg width="25" height="25" viewBox="0 0 25 25" fill="none" xmlns="http://www.w3.org/2000/svg">
<path fill-rule="evenodd" clip-rule="evenodd" d="M4.59998 3.32666C3.77155 3.32666 3.09998 3.99823 3.09998 4.82666V19.8267C3.09998 20.6551 3.77155 21.3267 4.59998 21.3267H19.6C20.4284 21.3267 21.1 20.6551 21.1 19.8267V4.82666C21.1 3.99823 20.4284 3.32666 19.6 3.32666H4.59998ZM8.62074 7.32938C8.62637 8.28563 7.91059 8.87485 7.06121 8.87063C6.26105 8.86641 5.56355 8.22938 5.56777 7.33079C5.57199 6.48563 6.23996 5.80641 7.10762 5.8261C7.98793 5.84579 8.62637 6.49126 8.62074 7.32938ZM12.3797 10.0884H9.85969H9.85828V18.6483H12.5217V18.4486C12.5217 18.0687 12.5214 17.6887 12.5211 17.3086C12.5203 16.2948 12.5194 15.2799 12.5246 14.2664C12.526 14.0203 12.5372 13.7644 12.6005 13.5295C12.8381 12.652 13.6271 12.0853 14.5074 12.2246C15.0727 12.3131 15.4467 12.6408 15.6042 13.1738C15.7013 13.507 15.7449 13.8656 15.7491 14.213C15.7605 15.2606 15.7589 16.3082 15.7573 17.3559C15.7567 17.7257 15.7561 18.0957 15.7561 18.4655V18.6469H18.428V18.4416C18.428 17.9896 18.4278 17.5377 18.4275 17.0858C18.427 15.9563 18.4264 14.8268 18.4294 13.6969C18.4308 13.1864 18.376 12.683 18.2508 12.1894C18.0638 11.4553 17.6771 10.8478 17.0485 10.4091C16.6027 10.0969 16.1133 9.89576 15.5663 9.87326C15.504 9.87067 15.4412 9.86728 15.3781 9.86387C15.0984 9.84875 14.8141 9.83339 14.5467 9.88732C13.7817 10.0406 13.1096 10.3908 12.6019 11.0081C12.5429 11.0789 12.4852 11.1508 12.3991 11.2581L12.3797 11.2824V10.0884ZM5.78162 18.6511H8.4324V10.094H5.78162V18.6511Z" fill="white"/>
</svg>
