<svg width="25" height="25" viewBox="0 0 25 25" fill="none" xmlns="http://www.w3.org/2000/svg">
<path d="M21.8929 7.28699C21.779 6.86439 21.5564 6.479 21.2473 6.16916C20.9381 5.85932 20.5532 5.63585 20.1309 5.52099C18.5649 5.09099 12.2999 5.08399 12.2999 5.08399C12.2999 5.08399 6.03589 5.07699 4.46889 5.48799C4.04682 5.60814 3.66271 5.83477 3.35346 6.14613C3.0442 6.45748 2.82018 6.84311 2.70289 7.26599C2.28989 8.83199 2.28589 12.08 2.28589 12.08C2.28589 12.08 2.28189 15.344 2.69189 16.894C2.92189 17.751 3.59689 18.428 4.45489 18.659C6.03689 19.089 12.2849 19.096 12.2849 19.096C12.2849 19.096 18.5499 19.103 20.1159 18.693C20.5384 18.5783 20.9236 18.3554 21.2335 18.0462C21.5434 17.737 21.7673 17.3522 21.8829 16.93C22.2969 15.365 22.2999 12.118 22.2999 12.118C22.2999 12.118 22.3199 8.85299 21.8929 7.28699ZM10.2959 15.089L10.3009 9.08899L15.5079 12.094L10.2959 15.089Z" fill="white"/>
</svg>
