<svg width="25" height="25" viewBox="0 0 25 25" fill="none" xmlns="http://www.w3.org/2000/svg">
<path d="M12.5 2.08398C11.1868 2.08398 9.88642 2.34264 8.67317 2.84519C7.45991 3.34774 6.35752 4.08433 5.42893 5.01292C3.55357 6.88828 2.5 9.43182 2.5 12.084C2.5 16.504 5.37 20.254 9.34 21.584C9.84 21.664 10 21.354 10 21.084V19.394C7.23 19.994 6.64 18.054 6.64 18.054C6.18 16.894 5.53 16.584 5.53 16.584C4.62 15.964 5.6 15.984 5.6 15.984C6.6 16.054 7.13 17.014 7.13 17.014C8 18.534 9.47 18.084 10.04 17.844C10.13 17.194 10.39 16.754 10.67 16.504C8.45 16.254 6.12 15.394 6.12 11.584C6.12 10.474 6.5 9.58398 7.15 8.87398C7.05 8.62398 6.7 7.58398 7.25 6.23398C7.25 6.23398 8.09 5.96398 10 7.25398C10.79 7.03398 11.65 6.92398 12.5 6.92398C13.35 6.92398 14.21 7.03398 15 7.25398C16.91 5.96398 17.75 6.23398 17.75 6.23398C18.3 7.58398 17.95 8.62398 17.85 8.87398C18.5 9.58398 18.88 10.474 18.88 11.584C18.88 15.404 16.54 16.244 14.31 16.494C14.67 16.804 15 17.414 15 18.344V21.084C15 21.354 15.16 21.674 15.67 21.584C19.64 20.244 22.5 16.504 22.5 12.084C22.5 10.7708 22.2413 9.47041 21.7388 8.25715C21.2362 7.04389 20.4997 5.9415 19.5711 5.01292C18.6425 4.08433 17.5401 3.34774 16.3268 2.84519C15.1136 2.34264 13.8132 2.08398 12.5 2.08398Z" fill="#D1D5DB"/>
</svg>
