<svg width="20" height="21" viewBox="0 0 20 21" fill="none" xmlns="http://www.w3.org/2000/svg">
<path d="M10.04 0.0840383C4.58004 0.0840383 0.130049 4.53403 0.130049 9.99401C0.130049 11.744 0.590047 13.444 1.45005 14.944L0.0500488 20.084L5.30003 18.704C6.75003 19.494 8.38003 19.914 10.04 19.914C15.5 19.914 19.95 15.464 19.95 10.004C19.95 7.35402 18.92 4.86403 17.05 2.99403C16.1331 2.06814 15.041 1.334 13.8375 0.834399C12.634 0.334796 11.3431 0.0797212 10.04 0.0840383ZM10.05 1.75403C12.25 1.75403 14.31 2.61403 15.87 4.17403C16.6354 4.93954 17.2422 5.84854 17.6558 6.84894C18.0693 7.84934 18.2815 8.9215 18.28 10.004C18.28 14.544 14.58 18.234 10.04 18.234C8.56003 18.234 7.11003 17.844 5.85003 17.084L5.55003 16.914L2.43004 17.734L3.26004 14.694L3.06004 14.374C2.23459 13.0624 1.79771 11.5437 1.80004 9.99401C1.81004 5.45402 5.50003 1.75403 10.05 1.75403ZM6.53003 5.41402C6.37003 5.41402 6.10003 5.47402 5.87003 5.72402C5.65003 5.97402 5.00004 6.58402 5.00004 7.79402C5.00004 9.01401 5.89003 10.184 6.00003 10.354C6.14003 10.524 7.76003 13.024 10.25 14.084C10.84 14.354 11.3 14.504 11.66 14.614C12.25 14.804 12.79 14.774 13.22 14.714C13.7 14.644 14.68 14.114 14.89 13.534C15.1 12.954 15.1 12.464 15.04 12.354C14.97 12.254 14.81 12.194 14.56 12.084C14.31 11.944 13.09 11.344 12.87 11.264C12.64 11.184 12.5 11.144 12.31 11.384C12.15 11.634 11.67 12.194 11.53 12.354C11.38 12.524 11.24 12.544 11 12.424C10.74 12.294 9.94002 12.034 9.00002 11.194C8.26003 10.534 7.77003 9.72401 7.62003 9.47401C7.50003 9.23401 7.61003 9.08401 7.73003 8.97402C7.84003 8.86402 8.00003 8.68402 8.10003 8.53402C8.23003 8.39402 8.27003 8.28402 8.35003 8.12402C8.43003 7.95402 8.39003 7.81402 8.33003 7.69402C8.27003 7.58402 7.77003 6.34402 7.56003 5.85402C7.36003 5.37402 7.16003 5.43402 7.00003 5.42402C6.86003 5.42402 6.70003 5.41402 6.53003 5.41402Z" fill="white"/>
</svg>
