<svg width="589" height="487" viewBox="0 0 589 487" fill="none" xmlns="http://www.w3.org/2000/svg">
<path d="M588.5 426.93H0.5V427.256H588.5V426.93Z" fill="#EBEBEB"/>
<path d="M529.582 447.911H490.633V448.237H529.582V447.911Z" fill="#EBEBEB"/>
<path d="M390.015 451.458H379.795V451.784H390.015V451.458Z" fill="#EBEBEB"/>
<path d="M489.457 435.81H466.89V436.136H489.457V435.81Z" fill="#EBEBEB"/>
<path d="M112.985 438.001H62.1931V438.327H112.985V438.001Z" fill="#EBEBEB"/>
<path d="M130.907 438.001H123.463V438.327H130.907V438.001Z" fill="#EBEBEB"/>
<path d="M265.277 443.503H155.109V443.829H265.277V443.503Z" fill="#EBEBEB"/>
<path d="M279.212 368.771H52.1383C50.3594 368.768 48.6544 367.982 47.3977 366.586C46.1409 365.19 45.4351 363.298 45.4351 361.325V7.38064C45.4505 5.41946 46.1632 3.54424 47.4183 2.16232C48.6734 0.78039 50.3695 0.00335961 52.1383 0H279.212C280.993 0 282.701 0.784471 283.96 2.18084C285.22 3.5772 285.927 5.47108 285.927 7.44584V361.325C285.927 363.3 285.22 365.194 283.96 366.59C282.701 367.987 280.993 368.771 279.212 368.771ZM52.1383 0.260801C50.4374 0.264255 48.8072 1.0159 47.6056 2.35076C46.4039 3.68561 45.7291 5.4946 45.7291 7.38064V361.325C45.7291 363.211 46.4039 365.02 47.6056 366.355C48.8072 367.69 50.4374 368.442 52.1383 368.445H279.212C280.914 368.442 282.545 367.691 283.749 366.356C284.952 365.022 285.63 363.213 285.633 361.325V7.38064C285.63 5.4934 284.952 3.68444 283.749 2.34996C282.545 1.01548 280.914 0.264248 279.212 0.260801H52.1383Z" fill="#EBEBEB"/>
<path d="M533.593 368.771H306.507C304.727 368.768 303.021 367.982 301.762 366.587C300.504 365.191 299.795 363.299 299.792 361.325V7.38064C299.811 5.41827 300.526 3.54307 301.783 2.1615C303.04 0.779934 304.737 0.00332297 306.507 0H533.593C535.359 0.00678666 537.052 0.785333 538.305 2.16689C539.558 3.54845 540.269 5.42171 540.284 7.38064V361.325C540.284 363.296 539.58 365.186 538.326 366.581C537.071 367.977 535.37 368.764 533.593 368.771ZM306.507 0.260801C304.805 0.264248 303.174 1.01548 301.97 2.34996C300.767 3.68444 300.089 5.4934 300.086 7.38064V361.325C300.089 363.213 300.767 365.022 301.97 366.356C303.174 367.691 304.805 368.442 306.507 368.445H533.593C535.295 368.442 536.926 367.691 538.13 366.356C539.333 365.022 540.011 363.213 540.014 361.325V7.38064C540.011 5.4934 539.333 3.68444 538.13 2.34996C536.926 1.01548 535.295 0.264248 533.593 0.260801H306.507Z" fill="#EBEBEB"/>
<path d="M100.93 238.332H107.551L107.551 83.8082H100.93L100.93 238.332Z" fill="#E0E0E0"/>
<path d="M230.749 83.8212H104.752V238.345H230.749V83.8212Z" fill="#E0E0E0"/>
<path d="M234.771 83.8212H104.082V238.345H234.771V83.8212Z" fill="#F0F0F0"/>
<path d="M229.244 88.7502H109.409V231.238H229.244V88.7502Z" fill="white"/>
<path d="M229.244 88.7502H225.775V231.238H229.244V88.7502Z" fill="#E0E0E0"/>
<path d="M109.092 191.206V195.052H226.139V191.206H109.092Z" fill="#E0E0E0"/>
<path d="M229.244 184.764H107.551V191.219H229.244V184.764Z" fill="#F0F0F0"/>
<path d="M322.383 424.517H495.737V181.1L322.383 181.1V424.517Z" fill="#F0F0F0"/>
<path d="M328.51 242.009L489.61 242.009V189.954L328.51 189.954V242.009Z" fill="#E0E0E0"/>
<path d="M480.449 242.009H489.598V198.391H480.449V242.009Z" fill="#EBEBEB"/>
<path d="M436.196 242.009H445.346V198.391H436.196V242.009Z" fill="#EBEBEB"/>
<path d="M379.288 240.284L388.305 242.007L394.987 199.022L385.97 197.299L379.288 240.284Z" fill="#EBEBEB"/>
<path d="M469.124 242.009H478.273V204.128H469.124V242.009Z" fill="#EBEBEB"/>
<path d="M448.074 242.009H457.223V204.128H448.074V242.009Z" fill="#EBEBEB"/>
<path d="M394.978 242.009H404.127V204.128H394.978V242.009Z" fill="#EBEBEB"/>
<path d="M416.788 239.807L425.719 242.008L433.131 205.029L424.199 202.828L416.788 239.807Z" fill="#EBEBEB"/>
<path d="M461.21 242.009H465.785V196.213H461.21V242.009Z" fill="#EBEBEB"/>
<path d="M406.773 242.009H411.347V196.213H406.773V242.009Z" fill="#EBEBEB"/>
<path d="M489.599 250.264H328.498V302.319H489.599V250.264Z" fill="#E0E0E0"/>
<path d="M337.648 258.688H328.498V302.306H337.648V258.688Z" fill="#EBEBEB"/>
<path d="M381.9 258.688H372.751V302.306H381.9V258.688Z" fill="#EBEBEB"/>
<path d="M432.143 257.584L423.126 259.307L429.808 302.292L438.825 300.569L432.143 257.584Z" fill="#EBEBEB"/>
<path d="M348.996 264.438H339.847V302.319H348.996V264.438Z" fill="#EBEBEB"/>
<path d="M370.023 264.438H360.873V302.319H370.023V264.438Z" fill="#EBEBEB"/>
<path d="M423.119 264.438H413.97V302.319H423.119V264.438Z" fill="#EBEBEB"/>
<path d="M393.936 263.119L385.004 265.32L392.416 302.299L401.347 300.098L393.936 263.119Z" fill="#EBEBEB"/>
<path d="M356.91 256.523H352.336V302.319H356.91V256.523Z" fill="#EBEBEB"/>
<path d="M411.336 256.523H406.761V302.319H411.336V256.523Z" fill="#EBEBEB"/>
<path d="M480.449 302.306H489.598V258.687H480.449V302.306Z" fill="#EBEBEB"/>
<path d="M469.124 302.306H478.273V264.425H469.124V302.306Z" fill="#EBEBEB"/>
<path d="M448.074 302.306H457.223V264.425H448.074V302.306Z" fill="#EBEBEB"/>
<path d="M461.21 302.306H465.785V256.51H461.21V302.306Z" fill="#EBEBEB"/>
<path d="M328.51 362.603H489.61V310.548H328.51V362.603Z" fill="#E0E0E0"/>
<path d="M387.98 362.603H397.129V318.984H387.98V362.603Z" fill="#EBEBEB"/>
<path d="M331.076 360.863L340.093 362.586L346.775 319.601L337.758 317.878L331.076 360.863Z" fill="#EBEBEB"/>
<path d="M420.908 362.603H430.057V324.722H420.908V362.603Z" fill="#EBEBEB"/>
<path d="M399.87 362.603H409.019V324.722H399.87V362.603Z" fill="#EBEBEB"/>
<path d="M346.761 362.603H355.911V324.722H346.761V362.603Z" fill="#EBEBEB"/>
<path d="M368.58 360.384L377.512 362.585L384.923 325.606L375.992 323.406L368.58 360.384Z" fill="#EBEBEB"/>
<path d="M412.994 362.603H417.568V316.807H412.994V362.603Z" fill="#EBEBEB"/>
<path d="M358.557 362.603H363.131V316.807H358.557V362.603Z" fill="#EBEBEB"/>
<path d="M436.365 360.865L445.381 362.589L452.063 319.604L443.047 317.88L436.365 360.865Z" fill="#EBEBEB"/>
<path d="M452.06 362.603H461.21V324.722H452.06V362.603Z" fill="#EBEBEB"/>
<path d="M473.87 360.38L482.802 362.581L490.213 325.602L481.282 323.401L473.87 360.38Z" fill="#EBEBEB"/>
<path d="M463.832 362.603H468.407V316.807H463.832V362.603Z" fill="#EBEBEB"/>
<path d="M207.946 274.857H107.328C104.73 274.852 102.156 275.415 99.7547 276.513C97.3529 277.612 95.17 279.224 93.3308 281.259C91.4915 283.294 90.0319 285.71 89.0356 288.371C88.0392 291.031 87.5256 293.883 87.524 296.764V383.898H227.715V296.764C227.715 293.886 227.204 291.037 226.21 288.378C225.216 285.719 223.76 283.303 221.924 281.269C220.088 279.235 217.909 277.621 215.511 276.521C213.112 275.421 210.542 274.855 207.946 274.857Z" fill="#E6E6E6"/>
<path d="M257.468 339.431H239.463C236.344 339.431 233.353 340.805 231.147 343.251C228.942 345.696 227.703 349.013 227.703 352.471V424.517H269.192V352.458C269.189 349.009 267.954 345.701 265.756 343.26C263.559 340.818 260.578 339.441 257.468 339.431Z" fill="#E0E0E0"/>
<path d="M257.468 339.431H257.08C253.961 339.431 250.97 340.805 248.764 343.251C246.559 345.696 245.32 349.013 245.32 352.471V424.517H269.181V352.458C269.178 349.011 267.944 345.705 265.749 343.264C263.554 340.823 260.577 339.445 257.468 339.431Z" fill="#EBEBEB"/>
<path d="M240.322 391.409H102.224V424.504H240.322V391.409Z" fill="#E6E6E6"/>
<path d="M240.51 361.143H107.328C100.735 361.143 95.3914 367.069 95.3914 374.378V382.633C95.3914 389.943 100.735 395.868 107.328 395.868H240.51C247.102 395.868 252.446 389.943 252.446 382.633V374.378C252.446 367.069 247.102 361.143 240.51 361.143Z" fill="#F5F5F5"/>
<path d="M124.074 361.143H107.551C100.959 361.143 95.6149 367.069 95.6149 374.378V382.633C95.6149 389.943 100.959 395.868 107.551 395.868H124.074C130.666 395.868 136.01 389.943 136.01 382.633V374.378C136.01 367.069 130.666 361.143 124.074 361.143Z" fill="#E0E0E0"/>
<path d="M105.764 339.431H87.7591C84.6402 339.431 81.649 340.805 79.4436 343.251C77.2381 345.696 75.9991 349.013 75.9991 352.471V424.517H117.512V352.458C117.509 349.004 116.27 345.693 114.068 343.25C111.865 340.808 108.879 339.435 105.764 339.431Z" fill="#E0E0E0"/>
<path d="M105.764 339.431H105.387C102.268 339.431 99.2772 340.805 97.0717 343.251C94.8663 345.696 93.6273 349.013 93.6273 352.471V424.517H117.512V352.458C117.509 349.004 116.27 345.693 114.067 343.25C111.865 340.808 108.879 339.435 105.764 339.431Z" fill="#F0F0F0"/>
<path d="M404.668 123.267C417.891 123.267 428.611 111.381 428.611 96.7177C428.611 82.0548 417.891 70.1682 404.668 70.1682C391.444 70.1682 380.724 82.0548 380.724 96.7177C380.724 111.381 391.444 123.267 404.668 123.267Z" fill="#E0E0E0"/>
<path d="M424.782 100.343C426.583 88.0377 419.047 76.4431 407.95 74.4457C396.852 72.4483 386.396 80.8044 384.595 93.1096C382.793 105.415 390.329 117.009 401.427 119.007C412.524 121.004 422.98 112.648 424.782 100.343Z" fill="#F0F0F0"/>
<path d="M403.715 81.2262V97.0046L394.284 91.0844" fill="#F0F0F0"/>
<path d="M403.715 98.139C403.537 98.1397 403.362 98.0856 403.21 97.9826L393.802 92.0754C393.581 91.9188 393.422 91.674 393.359 91.3916C393.296 91.1093 393.334 90.8109 393.464 90.5582C393.593 90.3054 393.806 90.1176 394.057 90.0335C394.308 89.9495 394.579 89.9756 394.813 90.1064L402.716 95.0746V81.2262C402.743 80.9479 402.861 80.6906 403.049 80.5036C403.237 80.3166 403.48 80.2131 403.733 80.2131C403.985 80.2131 404.229 80.3166 404.416 80.5036C404.604 80.6906 404.723 80.9479 404.75 81.2262V97.0046C404.751 97.2026 404.705 97.3974 404.616 97.5691C404.527 97.7409 404.399 97.8836 404.244 97.9826C404.085 98.0903 403.902 98.1447 403.715 98.139Z" fill="#E0E0E0"/>
<path d="M294.5 485.831C420.429 485.831 522.515 477.792 522.515 467.875C522.515 457.958 420.429 449.919 294.5 449.919C168.571 449.919 66.4854 457.958 66.4854 467.875C66.4854 477.792 168.571 485.831 294.5 485.831Z" fill="#F5F5F5"/>
<path d="M457.564 196.669H425.812C422.921 196.669 420.148 197.943 418.104 200.21C416.059 202.477 414.911 205.551 414.911 208.757V223.336C414.911 226.542 416.059 229.617 418.104 231.884C420.148 234.151 422.921 235.424 425.812 235.424H439.383L443.029 248.19L446.71 235.424H457.505C460.397 235.424 463.169 234.151 465.214 231.884C467.258 229.617 468.407 226.542 468.407 223.336V208.757C468.407 205.563 467.266 202.498 465.235 200.233C463.203 197.968 460.445 196.687 457.564 196.669Z" fill="#F27777"/>
<path d="M429.364 215.16C429.364 215.642 429.235 216.114 428.993 216.515C428.752 216.916 428.408 217.228 428.006 217.413C427.605 217.597 427.162 217.646 426.736 217.552C426.309 217.458 425.917 217.225 425.61 216.884C425.302 216.543 425.093 216.109 425.008 215.636C424.923 215.163 424.967 214.672 425.133 214.227C425.3 213.781 425.581 213.4 425.943 213.132C426.305 212.865 426.73 212.722 427.165 212.722C427.454 212.722 427.74 212.785 428.006 212.907C428.273 213.03 428.516 213.209 428.72 213.436C428.924 213.662 429.086 213.931 429.197 214.227C429.307 214.523 429.364 214.84 429.364 215.16ZM436.867 212.722C436.432 212.722 436.007 212.865 435.645 213.132C435.283 213.4 435.002 213.781 434.835 214.227C434.669 214.672 434.625 215.163 434.71 215.636C434.795 216.109 435.004 216.543 435.312 216.884C435.619 217.225 436.011 217.458 436.438 217.552C436.864 217.646 437.307 217.597 437.708 217.413C438.11 217.228 438.454 216.916 438.695 216.515C438.937 216.114 439.066 215.642 439.066 215.16C439.054 214.522 438.817 213.915 438.405 213.469C437.994 213.023 437.442 212.774 436.867 212.774V212.722ZM446.569 212.722C446.134 212.722 445.709 212.865 445.347 213.132C444.985 213.4 444.704 213.781 444.537 214.227C444.371 214.672 444.327 215.163 444.412 215.636C444.497 216.109 444.706 216.543 445.014 216.884C445.321 217.225 445.713 217.458 446.14 217.552C446.566 217.646 447.009 217.597 447.41 217.413C447.812 217.228 448.156 216.916 448.397 216.515C448.639 216.114 448.768 215.642 448.768 215.16C448.756 214.522 448.519 213.915 448.107 213.469C447.696 213.023 447.144 212.774 446.569 212.774V212.722ZM456.271 212.722C455.836 212.722 455.411 212.865 455.049 213.132C454.687 213.4 454.406 213.781 454.239 214.227C454.073 214.672 454.029 215.163 454.114 215.636C454.199 216.109 454.408 216.543 454.716 216.884C455.023 217.225 455.415 217.458 455.842 217.552C456.268 217.646 456.711 217.597 457.112 217.413C457.514 217.228 457.858 216.916 458.099 216.515C458.341 216.114 458.47 215.642 458.47 215.16C458.458 214.522 458.221 213.915 457.809 213.469C457.398 213.023 456.846 212.774 456.271 212.774V212.722Z" fill="white"/>
<path d="M131.624 239.701H99.9307C98.4991 239.701 97.0815 240.014 95.7589 240.621C94.4362 241.229 93.2345 242.119 92.2222 243.242C91.2099 244.364 90.4069 245.697 89.859 247.163C89.3111 248.63 89.0292 250.202 89.0292 251.789V266.368C89.0292 269.574 90.1777 272.649 92.2222 274.916C94.2666 277.183 97.0394 278.456 99.9307 278.456H113.502L117.147 291.209L120.828 278.456H131.624C134.515 278.456 137.288 277.183 139.332 274.916C141.377 272.649 142.525 269.574 142.525 266.368V251.789C142.525 250.202 142.243 248.63 141.696 247.163C141.148 245.697 140.345 244.364 139.332 243.242C138.32 242.119 137.118 241.229 135.796 240.621C134.473 240.014 133.056 239.701 131.624 239.701Z" fill="#F27777"/>
<path d="M103.423 258.192C103.423 258.674 103.294 259.146 103.053 259.547C102.811 259.948 102.468 260.26 102.066 260.445C101.664 260.629 101.222 260.678 100.795 260.584C100.369 260.49 99.9767 260.257 99.6691 259.916C99.3616 259.575 99.1521 259.141 99.0673 258.668C98.9824 258.195 99.026 257.704 99.1924 257.259C99.3589 256.813 99.6407 256.432 100.002 256.164C100.364 255.897 100.789 255.754 101.224 255.754C101.807 255.754 102.367 256.01 102.779 256.468C103.192 256.925 103.423 257.545 103.423 258.192ZM110.926 255.754C110.491 255.754 110.066 255.897 109.704 256.164C109.343 256.432 109.061 256.813 108.894 257.259C108.728 257.704 108.684 258.195 108.769 258.668C108.854 259.141 109.064 259.575 109.371 259.916C109.679 260.257 110.071 260.49 110.497 260.584C110.924 260.678 111.366 260.629 111.768 260.445C112.17 260.26 112.513 259.948 112.755 259.547C112.996 259.146 113.125 258.674 113.125 258.192C113.116 257.553 112.88 256.944 112.468 256.498C112.056 256.051 111.502 255.802 110.926 255.806V255.754ZM120.628 255.754C120.192 255.748 119.765 255.887 119.4 256.152C119.035 256.417 118.75 256.796 118.58 257.241C118.41 257.686 118.363 258.177 118.445 258.652C118.527 259.126 118.735 259.563 119.041 259.907C119.348 260.25 119.74 260.485 120.167 260.582C120.594 260.678 121.037 260.631 121.441 260.447C121.844 260.264 122.189 259.951 122.431 259.549C122.674 259.148 122.804 258.675 122.804 258.192C122.795 257.558 122.562 256.953 122.155 256.507C121.748 256.061 121.2 255.809 120.628 255.806V255.754ZM130.33 255.754C129.895 255.754 129.47 255.897 129.108 256.164C128.747 256.432 128.465 256.813 128.298 257.259C128.132 257.704 128.088 258.195 128.173 258.668C128.258 259.141 128.468 259.575 128.775 259.916C129.083 260.257 129.475 260.49 129.901 260.584C130.328 260.678 130.77 260.629 131.172 260.445C131.574 260.26 131.917 259.948 132.159 259.547C132.4 259.146 132.529 258.674 132.529 258.192C132.52 257.553 132.284 256.944 131.872 256.498C131.46 256.051 130.906 255.802 130.33 255.806V255.754Z" fill="white"/>
<path d="M486.188 469.701H336.93C309.047 469.701 307.26 433.293 330.18 416.159C334.37 413.069 339.008 410.802 343.892 409.456C389.274 396.22 453.037 307.249 497.948 344.478L498.077 344.582C542.812 382.072 511.543 469.701 486.188 469.701Z" fill="#263238"/>
<path opacity="0.5" d="M486.188 469.701H336.93C309.047 469.701 307.26 433.293 330.18 416.159C334.37 413.069 339.008 410.802 343.892 409.456C389.274 396.22 453.037 307.249 497.948 344.478L498.077 344.582C542.812 382.072 511.543 469.701 486.188 469.701Z" fill="white"/>
<path opacity="0.2" d="M497.83 344.412C494.067 344.139 489.504 345.312 484.589 349.876C471.829 361.743 491.233 418.871 460.716 442.63C443.687 455.891 370.223 461.733 345.703 445.472C327.604 433.463 327.369 425.913 330.18 416.159C334.37 413.069 339.008 410.802 343.892 409.456C389.215 396.155 452.978 307.183 497.83 344.412Z" fill="black"/>
<path d="M381.782 333.641L372.88 326.691L379.536 319.141C379.536 319.141 386.369 323.053 385.722 330.029L381.782 333.641Z" fill="#E4897B"/>
<path d="M369.388 319.024L375.562 314.72L379.536 319.141L372.88 326.691L369.388 319.024Z" fill="#E4897B"/>
<path d="M425.577 315.685C417.145 318.437 412.993 334.88 406.032 350.411L385.769 328.086L379.325 334.424C379.325 334.424 397.882 367.115 406.643 367.115C417.58 367.115 428.928 333.433 428.928 333.433L425.577 315.685Z" fill="#263238"/>
<path opacity="0.1" d="M428.928 333.433C428.928 333.433 427.129 338.766 424.224 345.169C421.461 351.402 417.698 358.665 413.64 363.06C411.347 365.524 408.936 367.089 406.584 367.089C397.823 367.089 379.266 334.398 379.266 334.398L385.71 328.06L405.973 350.385C412.935 334.854 417.074 318.411 425.53 315.659L428.928 333.433Z" fill="white"/>
<path opacity="0.2" d="M424.271 345.195C421.508 351.428 417.745 358.691 413.687 363.086C414.122 348.181 420.743 333.641 420.743 333.641C422.569 337.21 423.766 341.131 424.271 345.195Z" fill="black"/>
<path d="M417.509 406.522C417.509 406.522 345.95 395.125 342.163 412.534C338.176 430.946 395.636 443.36 429.975 444.664C464.314 445.968 474.169 436.84 468.653 389.896H421.613L417.509 406.522Z" fill="#F27777"/>
<path opacity="0.6" d="M417.509 406.522C417.509 406.522 345.95 395.125 342.163 412.534C338.176 430.946 395.636 443.36 429.975 444.664C464.314 445.968 474.169 436.84 468.653 389.896H421.613L417.509 406.522Z" fill="white"/>
<path d="M377.655 442.825L362.661 442.838L355.463 442.851L354.605 434.441L361.261 433.45L377.525 431.05L377.655 442.825Z" fill="#E4897B"/>
<path d="M356.228 433.385L358.051 442.982C358.077 443.108 358.079 443.239 358.057 443.366C358.036 443.493 357.991 443.614 357.926 443.721C357.861 443.828 357.778 443.92 357.68 443.99C357.582 444.06 357.472 444.108 357.357 444.129L353.041 444.99C353.041 444.99 347.314 446.607 345.703 445.473C340.999 442.134 336.483 421.036 338.4 419.471C339.094 418.897 340.305 419.771 340.917 420.462C342.845 422.64 346.949 428.729 348.584 430.529C350.477 432.641 353.853 432.706 355.334 432.615C355.542 432.604 355.745 432.676 355.909 432.817C356.073 432.958 356.186 433.159 356.228 433.385Z" fill="#263238"/>
<path opacity="0.2" d="M377.655 442.825L362.661 442.838L361.261 433.45L377.525 431.05L377.655 442.825Z" fill="black"/>
<path d="M399.575 427.986L413.805 433.241L420.638 435.758L419.05 444.025L412.453 442.63L396.341 439.213L399.575 427.986Z" fill="#E4897B"/>
<path d="M417.216 444.455L418.215 434.715C418.23 434.587 418.267 434.464 418.324 434.352C418.382 434.24 418.459 434.142 418.55 434.063C418.642 433.985 418.747 433.927 418.859 433.893C418.971 433.859 419.088 433.85 419.203 433.867L423.542 434.571C423.542 434.571 429.422 435.041 430.598 436.684C434.126 441.495 432.386 463.103 430.128 463.911C429.293 464.211 428.399 462.959 428.011 462.099C426.835 459.347 424.648 452.123 423.613 449.854C422.437 447.181 419.227 445.942 417.804 445.499C417.61 445.43 417.445 445.287 417.337 445.096C417.229 444.905 417.186 444.678 417.216 444.455Z" fill="#263238"/>
<path opacity="0.2" d="M399.575 427.986L413.805 433.241L412.453 442.63L396.341 439.213L399.575 427.986Z" fill="black"/>
<path d="M409.983 444.09L405.926 444.521L408.348 428.951L413.005 431.676L409.983 444.09Z" fill="#F27777"/>
<path opacity="0.6" d="M409.983 444.09L405.926 444.521L408.348 428.951L413.005 431.676L409.983 444.09Z" fill="white"/>
<path d="M423.566 449.737C423.671 450.442 423.577 451.167 423.295 451.81C423.181 452.003 423.024 452.159 422.838 452.262C422.652 452.365 422.444 452.411 422.237 452.397C422.112 452.403 421.987 452.372 421.876 452.308C421.764 452.244 421.67 452.149 421.602 452.032C420.99 450.884 422.425 447.35 422.602 446.959C422.613 446.915 422.638 446.878 422.673 446.853C422.708 446.829 422.749 446.82 422.79 446.829C422.834 446.833 422.877 446.853 422.911 446.886C422.945 446.919 422.968 446.963 422.978 447.011C423.257 447.895 423.454 448.808 423.566 449.737ZM421.872 451.432C421.88 451.547 421.913 451.659 421.967 451.758C421.989 451.808 422.024 451.849 422.069 451.874C422.113 451.9 422.164 451.91 422.213 451.901C422.356 451.92 422.5 451.893 422.63 451.824C422.759 451.754 422.867 451.646 422.943 451.51C423.285 450.27 423.223 448.936 422.766 447.741C422.271 448.902 421.968 450.152 421.872 451.432Z" fill="#F27777"/>
<path d="M423.013 447.037V447.142C422.625 448.276 420.861 450.519 419.861 450.363C419.698 450.331 419.548 450.239 419.437 450.102C419.327 449.965 419.26 449.79 419.25 449.606C419.205 449.423 419.196 449.232 419.224 449.045C419.253 448.858 419.318 448.68 419.414 448.524C420.144 447.22 422.672 446.803 422.813 446.816C422.852 446.807 422.892 446.813 422.928 446.832C422.964 446.851 422.994 446.881 423.013 446.92C423.022 446.959 423.022 446.999 423.013 447.037ZM419.626 449.424V449.528C419.697 449.854 419.814 449.867 419.873 449.893C420.461 449.984 421.813 448.524 422.401 447.402C421.398 447.538 420.464 448.038 419.744 448.824C419.643 449.003 419.598 449.213 419.614 449.424H419.626Z" fill="#F27777"/>
<path d="M364.025 432.237C364.025 432.237 430.598 403.549 450.99 408.348C471.382 413.146 471.476 424.974 461.139 436.005C450.802 447.037 435.361 442.786 435.361 442.786C435.361 442.786 447.497 434.728 446.651 429.746C445.804 424.765 438.089 436.149 438.089 436.149C438.089 436.149 397.858 447.063 364.636 444.182L364.025 432.237Z" fill="#F27777"/>
<path d="M349.043 430.685C348.656 430.117 348.442 429.428 348.431 428.716C348.45 428.487 348.523 428.267 348.642 428.08C348.762 427.892 348.925 427.743 349.113 427.647C349.223 427.58 349.346 427.544 349.472 427.544C349.597 427.544 349.721 427.58 349.831 427.647C350.842 428.364 351.007 432.237 351.007 432.68C351.011 432.725 351.003 432.77 350.981 432.808C350.96 432.846 350.927 432.874 350.889 432.889C350.852 432.916 350.809 432.93 350.766 432.93C350.722 432.93 350.679 432.916 350.642 432.889C350.041 432.218 349.505 431.48 349.043 430.685ZM349.842 428.312C349.783 428.218 349.707 428.138 349.619 428.077C349.579 428.046 349.532 428.03 349.484 428.03C349.435 428.03 349.388 428.046 349.348 428.077C349.213 428.132 349.094 428.228 349.007 428.355C348.919 428.483 348.866 428.635 348.855 428.794C349.065 430.07 349.678 431.221 350.583 432.041C350.538 430.759 350.287 429.497 349.842 428.312Z" fill="#F27777"/>
<path d="M350.642 432.798V432.68C350.524 431.481 351.148 428.586 352.112 428.208C352.271 428.152 352.443 428.158 352.598 428.225C352.754 428.291 352.885 428.414 352.97 428.573C353.192 428.863 353.302 429.237 353.276 429.616C353.159 431.142 351.089 432.798 350.924 432.876C350.891 432.901 350.852 432.914 350.812 432.914C350.773 432.914 350.734 432.901 350.701 432.876C350.676 432.856 350.655 432.829 350.642 432.798ZM352.665 428.951V428.86C352.476 428.612 352.359 428.664 352.3 428.677C351.736 428.886 351.124 430.868 351.124 432.172C351.7 431.637 352.817 430.516 352.888 429.564C352.9 429.352 352.851 429.142 352.747 428.964L352.665 428.951Z" fill="#F27777"/>
<path opacity="0.7" d="M364.025 432.237C364.025 432.237 430.598 403.549 450.99 408.348C471.382 413.146 471.476 424.974 461.139 436.005C450.802 447.037 435.361 442.786 435.361 442.786C435.361 442.786 447.497 434.728 446.651 429.746C445.804 424.765 438.089 436.149 438.089 436.149C438.089 436.149 397.858 447.063 364.636 444.182L364.025 432.237Z" fill="white"/>
<path d="M363.213 432.015L366.953 430.111L369.105 445.642L363.907 444.703L363.213 432.015Z" fill="#F27777"/>
<path opacity="0.6" d="M363.213 432.015L366.953 430.111L369.105 445.642L363.907 444.703L363.213 432.015Z" fill="white"/>
<path d="M473.381 318.176C466.196 362.512 468.806 391.2 468.806 391.2C468.806 391.2 435.373 390.691 421.637 389.831C414.31 336.093 425.577 315.672 425.577 315.672C429.169 314.874 432.801 314.321 436.455 314.016C437.219 313.951 438.007 313.912 438.807 313.873C445.286 313.868 451.761 314.273 458.199 315.086C459.375 315.229 460.657 315.412 461.856 315.607C467.983 316.637 473.381 318.176 473.381 318.176Z" fill="#263238"/>
<path opacity="0.1" d="M473.381 318.176C472.487 323.679 471.746 328.947 471.135 333.928C470.171 341.752 469.524 349.003 469.1 355.444C468.971 357.387 468.853 359.278 468.771 361.078C468.43 367.676 468.336 373.322 468.348 377.886C468.348 386.467 468.806 391.2 468.806 391.2C468.806 391.2 435.373 390.692 421.637 389.831C414.299 336.093 425.588 315.672 425.588 315.672C429.176 314.874 432.805 314.321 436.455 314.016C437.219 313.951 438.007 313.912 438.807 313.873C445.286 313.862 451.761 314.266 458.199 315.086C459.375 315.229 460.657 315.412 461.856 315.607C467.983 316.624 473.381 318.176 473.381 318.176Z" fill="white"/>
<path opacity="0.2" d="M443.523 367.115C452.09 365.987 460.543 363.97 468.771 361.091C468.43 367.689 468.336 373.335 468.348 377.899C452.39 379.529 445.875 376.126 445.875 376.126L443.523 367.115Z" fill="black"/>
<path opacity="0.2" d="M471.135 333.941C470.171 341.765 469.524 349.016 469.1 355.457C464.526 345.13 467.924 332.742 467.924 332.742L471.135 333.941Z" fill="black"/>
<path d="M445.334 385.319H421.014C420.541 385.311 420.089 385.107 419.745 384.747C419.401 384.388 419.191 383.899 419.156 383.376L415.769 347.581C415.746 347.341 415.769 347.098 415.836 346.868C415.904 346.639 416.015 346.427 416.161 346.249C416.308 346.07 416.487 345.928 416.687 345.831C416.887 345.735 417.103 345.687 417.321 345.69H441.641C442.104 345.701 442.548 345.899 442.888 346.247C443.228 346.596 443.441 347.07 443.487 347.581L446.886 383.376C446.917 383.62 446.899 383.869 446.835 384.105C446.77 384.341 446.661 384.559 446.513 384.744C446.366 384.928 446.184 385.075 445.98 385.175C445.777 385.274 445.556 385.323 445.334 385.319Z" fill="#263238"/>
<path opacity="0.6" d="M445.334 385.319H421.014C420.541 385.311 420.089 385.107 419.745 384.747C419.401 384.388 419.191 383.899 419.156 383.376L415.769 347.581C415.746 347.341 415.769 347.098 415.836 346.868C415.904 346.639 416.015 346.427 416.161 346.249C416.308 346.07 416.487 345.928 416.687 345.831C416.887 345.735 417.103 345.687 417.321 345.69H441.641C442.104 345.701 442.548 345.899 442.888 346.247C443.228 346.596 443.441 347.07 443.487 347.581L446.886 383.376C446.917 383.62 446.899 383.869 446.835 384.105C446.77 384.341 446.661 384.559 446.513 384.744C446.366 384.928 446.184 385.075 445.98 385.175C445.777 385.274 445.556 385.323 445.334 385.319Z" fill="white"/>
<path opacity="0.2" d="M444.322 385.319H421.014C420.541 385.311 420.089 385.107 419.745 384.747C419.401 384.388 419.191 383.899 419.156 383.376L415.769 347.581C415.746 347.341 415.769 347.098 415.836 346.868C415.904 346.639 416.015 346.427 416.161 346.249C416.308 346.07 416.487 345.928 416.687 345.831C416.887 345.735 417.103 345.687 417.321 345.69H440.63C441.093 345.701 441.536 345.899 441.877 346.247C442.217 346.596 442.43 347.07 442.476 347.581L445.875 383.376C445.905 383.62 445.888 383.869 445.823 384.105C445.759 384.341 445.649 384.559 445.502 384.744C445.354 384.928 445.172 385.075 444.969 385.175C444.765 385.274 444.545 385.323 444.322 385.319Z" fill="white"/>
<path d="M430.14 362.603C429.805 362.6 429.473 362.677 429.166 362.828C428.86 362.979 428.586 363.201 428.364 363.479C428.141 363.756 427.974 364.084 427.875 364.439C427.776 364.794 427.746 365.169 427.788 365.537C427.857 366.329 428.187 367.064 428.714 367.603C429.241 368.141 429.929 368.446 430.646 368.458C430.98 368.461 431.31 368.385 431.616 368.234C431.921 368.084 432.194 367.864 432.417 367.587C432.64 367.311 432.806 366.985 432.907 366.632C433.007 366.278 433.038 365.905 432.998 365.537C432.28 365.522 431.592 365.214 431.065 364.673C430.538 364.133 430.209 363.396 430.14 362.603Z" fill="#263238"/>
<path opacity="0.3" d="M435.408 348.585H422.554C422.238 348.581 421.93 348.478 421.664 348.289C421.398 348.1 421.185 347.832 421.049 347.516L420.285 345.743H437.243L436.796 347.516C436.708 347.843 436.523 348.126 436.271 348.321C436.019 348.515 435.714 348.608 435.408 348.585Z" fill="black"/>
<path d="M442.958 365.968L437.337 365.459L437.572 373.753L442.276 376.491L453.119 375.396L454.001 369.801C450.438 364.012 442.958 365.968 442.958 365.968Z" fill="#E4897B"/>
<path d="M473.381 318.176C479.155 320.106 487.34 357.296 486.035 365.511C484.729 373.726 470.488 377.247 452.389 376.791V367.089L473.381 360.295L469.853 345.951C469.853 345.951 466.937 335.402 468.242 328.021C468.959 324.213 470.76 320.762 473.381 318.176Z" fill="#263238"/>
<path opacity="0.1" d="M473.381 318.176C479.155 320.106 487.34 357.296 486.035 365.511C484.729 373.726 470.488 377.247 452.389 376.791V367.089L473.381 360.295L469.853 345.951C469.853 345.951 466.937 335.402 468.242 328.021C468.959 324.213 470.76 320.762 473.381 318.176Z" fill="white"/>
<path d="M455.4 314.668C452.472 318.059 447.874 320.901 440.5 320.601C434.844 320.354 434.056 316.416 435.044 314.251C438.478 313.469 440.03 311.812 440.512 309.7C440.994 307.588 440.324 304.745 439.336 302.111L448.874 293.204L450.485 291.692C450.485 292.2 450.426 292.735 450.402 293.296C450.291 295.363 450.291 297.436 450.402 299.503C450.72 305.332 451.966 311.656 455.4 314.668Z" fill="#E4897B"/>
<path opacity="0.2" d="M450.414 299.503C448.638 303.532 445.522 308.396 440.512 309.7C441.029 307.457 440.324 304.745 439.336 302.111L448.873 293.204C449.379 293.204 449.897 293.204 450.402 293.296C450.295 295.363 450.299 297.436 450.414 299.503Z" fill="black"/>
<path d="M428.564 275.496C427.164 279.043 426.988 286.658 431.856 284.768C436.725 282.877 430.916 269.406 428.564 275.496Z" fill="#263238"/>
<path d="M451.884 283.359C451.461 292.852 451.661 298.447 447.38 303.337C440.935 310.691 430.304 306.362 428.141 296.895C426.212 288.354 427.223 274.257 435.573 270.45C437.425 269.608 439.439 269.302 441.427 269.557C443.415 269.813 445.312 270.624 446.941 271.913C448.57 273.202 449.878 274.929 450.742 276.93C451.607 278.932 452 281.144 451.884 283.359Z" fill="#E4897B"/>
<path d="M438.901 286.046C438.901 286.815 438.548 287.454 438.089 287.454C437.631 287.454 437.254 286.828 437.242 286.046C437.231 285.263 437.607 284.65 438.054 284.65C438.501 284.65 438.889 285.276 438.901 286.046Z" fill="#263238"/>
<path d="M430.998 286.072C430.998 286.841 430.645 287.467 430.187 287.467C429.728 287.467 429.352 286.841 429.352 286.072C429.352 285.302 429.704 284.676 430.163 284.676C430.622 284.676 430.998 285.289 430.998 286.072Z" fill="#263238"/>
<path d="M433.515 286.45C432.683 288.74 431.567 290.891 430.198 292.839C430.684 293.193 431.231 293.431 431.804 293.536C432.377 293.642 432.964 293.613 433.526 293.452L433.515 286.45Z" fill="#DE5753"/>
<path d="M441.3 283.216C441.229 283.227 441.157 283.218 441.091 283.188C441.025 283.158 440.967 283.109 440.924 283.046C440.62 282.583 440.222 282.205 439.762 281.942C439.303 281.68 438.795 281.54 438.278 281.534C438.169 281.541 438.062 281.502 437.979 281.424C437.896 281.347 437.843 281.236 437.831 281.116C437.826 281.056 437.832 280.996 437.848 280.939C437.865 280.881 437.891 280.828 437.926 280.782C437.961 280.736 438.004 280.698 438.052 280.67C438.1 280.643 438.153 280.626 438.207 280.621C438.861 280.616 439.506 280.783 440.09 281.107C440.675 281.431 441.182 281.903 441.571 282.486C441.637 282.581 441.667 282.702 441.654 282.821C441.641 282.941 441.585 283.05 441.5 283.125C441.442 283.174 441.373 283.205 441.3 283.216Z" fill="#263238"/>
<path d="M427.564 283.072C427.487 283.097 427.406 283.097 427.329 283.072C427.28 283.046 427.237 283.009 427.201 282.964C427.165 282.919 427.137 282.866 427.12 282.809C427.102 282.752 427.095 282.692 427.099 282.632C427.102 282.572 427.117 282.513 427.141 282.459C427.401 281.796 427.802 281.213 428.31 280.759C428.818 280.304 429.417 279.993 430.057 279.851C430.111 279.844 430.166 279.849 430.219 279.865C430.271 279.882 430.32 279.91 430.363 279.947C430.405 279.985 430.441 280.031 430.467 280.084C430.493 280.137 430.51 280.196 430.516 280.256C430.524 280.314 430.522 280.374 430.509 280.431C430.496 280.488 430.474 280.542 430.442 280.59C430.41 280.637 430.37 280.677 430.324 280.707C430.278 280.737 430.228 280.756 430.175 280.764C429.67 280.87 429.197 281.112 428.796 281.469C428.396 281.826 428.082 282.287 427.882 282.812C427.851 282.88 427.806 282.939 427.751 282.984C427.696 283.03 427.632 283.06 427.564 283.072Z" fill="#263238"/>
<path d="M438.43 275.744C438.43 275.744 440.782 273.866 441.864 275.887C442.946 277.909 442.876 283.294 442.876 283.294L443.346 282.342C443.346 282.342 446.392 294.339 450.802 291.314C455.212 288.288 461.692 276.109 451.39 269.902C451.39 269.902 450.296 267.007 443.487 265.573C436.678 264.138 428.446 268.807 427.023 273.801C425.6 278.795 427.588 281.625 427.588 281.625C427.806 280.538 428.253 279.523 428.893 278.665C428.984 279.174 429.188 279.65 429.485 280.05C429.783 280.451 430.165 280.763 430.598 280.96C430.529 279.939 430.72 278.918 431.151 278.013C431.376 278.9 431.778 279.72 432.327 280.412C432.821 275.274 435.973 274.231 436.96 274.27C437.314 274.314 437.646 274.479 437.91 274.744C438.174 275.008 438.356 275.358 438.43 275.744Z" fill="#263238"/>
<path d="M455.283 291.222C454.968 292.352 454.455 293.401 453.772 294.31C453.09 295.219 452.253 295.969 451.308 296.517C448.768 297.964 446.909 295.578 447.121 292.605C447.309 289.905 448.85 285.902 451.637 285.706C452.247 285.676 452.854 285.813 453.404 286.105C453.955 286.397 454.431 286.836 454.792 287.382C455.153 287.928 455.386 288.564 455.472 289.234C455.558 289.904 455.492 290.587 455.283 291.222Z" fill="#E4897B"/>
<path d="M433.797 296.634C434.531 297.486 435.207 298.397 435.82 299.359L436.325 299.086C438.595 297.782 439.277 296.386 439.336 295.174C439.351 294.589 439.242 294.008 439.018 293.478C438.899 293.176 438.74 292.895 438.548 292.644C437.464 294.123 436.104 295.325 434.561 296.165C434.103 296.478 433.797 296.634 433.797 296.634Z" fill="#263238"/>
<path d="M434.561 296.191L435.185 296.973C437.313 295.773 438.713 294.6 439.018 293.504C438.899 293.202 438.74 292.921 438.548 292.67C437.465 294.149 436.104 295.351 434.561 296.191Z" fill="white"/>
<path d="M436.325 299.085C438.595 297.781 439.277 296.386 439.336 295.173C438.481 295.677 437.713 296.343 437.066 297.143C436.64 297.687 436.381 298.367 436.325 299.085Z" fill="#A24E3F"/>
<path d="M229.126 327.539L229.738 334.776C229.738 334.776 267.934 341.218 274.049 347.816C280.165 354.414 301.862 458.773 301.862 458.773L293.112 460.077C293.112 460.077 262.748 383.141 261.125 372.005C261.125 372.005 234.383 373.114 216.131 373.114C197.88 373.114 195.704 327.474 195.704 327.474L229.126 327.539Z" fill="#F27777"/>
<path opacity="0.3" d="M301.862 458.786L293.112 460.09C293.112 460.09 280.694 428.625 271.321 403.027C266.017 388.592 261.701 376.022 261.125 372.005C261.125 372.005 242.615 372.762 225.845 373.022C222.458 373.022 219.154 373.101 216.084 373.101C197.833 373.101 195.657 327.461 195.657 327.461H229.079L229.691 334.698C229.691 334.698 267.899 341.127 274.002 347.738C280.106 354.349 301.862 458.786 301.862 458.786Z" fill="white"/>
<path d="M308.612 468.136C302.732 468.136 301.944 468.032 298.628 467.901C295.794 467.797 295.1 468.188 292.842 468.136C290.937 468.136 291.007 466.063 291.595 463.742C291.889 462.568 292.336 460.103 292.771 458.226L301.403 457.521C302.579 460.129 305.355 463.768 308.671 464.263C311.987 464.759 310.964 468.136 308.612 468.136Z" fill="#263238"/>
<path opacity="0.2" d="M271.321 403.079C266.017 388.644 261.702 376.074 261.125 372.057C261.125 372.057 242.615 372.814 225.845 373.074L224.034 337.619C224.034 337.619 247.648 341.374 263.524 356.54C265.535 358.417 269.451 387.458 271.321 403.079Z" fill="black"/>
<path d="M263.089 379.894H194.752V375.239C194.752 373.686 195.308 372.197 196.298 371.099C197.289 370.001 198.632 369.384 200.032 369.384H257.809C259.209 369.384 260.552 370.001 261.543 371.099C262.533 372.197 263.089 373.686 263.089 375.239V379.894Z" fill="#263238"/>
<path opacity="0.2" d="M263.089 379.894H194.752V375.239C194.752 373.686 195.308 372.197 196.298 371.099C197.289 370.001 198.632 369.384 200.032 369.384H257.809C259.209 369.384 260.552 370.001 261.543 371.099C262.533 372.197 263.089 373.686 263.089 375.239V379.894Z" fill="white"/>
<path d="M260.713 448.028L234.371 445.486V407.122H225.116V445.472L198.679 448.08C197.555 448.203 196.513 448.785 195.754 449.713C194.996 450.641 194.576 451.849 194.575 453.101V457.013H264.829V453.101C264.841 451.838 264.424 450.616 263.662 449.676C262.9 448.737 261.848 448.149 260.713 448.028Z" fill="#263238"/>
<path d="M203.089 461.773C203.089 463.101 202.734 464.399 202.069 465.504C201.403 466.608 200.457 467.469 199.351 467.977C198.244 468.485 197.026 468.618 195.852 468.359C194.677 468.1 193.598 467.46 192.751 466.521C191.904 465.582 191.327 464.385 191.093 463.083C190.859 461.78 190.979 460.43 191.438 459.203C191.896 457.976 192.672 456.927 193.668 456.189C194.664 455.451 195.835 455.057 197.033 455.057C198.639 455.057 200.18 455.765 201.316 457.024C202.451 458.283 203.089 459.992 203.089 461.773Z" fill="#263238"/>
<path d="M262.348 468.488C265.693 468.488 268.405 465.482 268.405 461.773C268.405 458.064 265.693 455.057 262.348 455.057C259.003 455.057 256.292 458.064 256.292 461.773C256.292 465.482 259.003 468.488 262.348 468.488Z" fill="#263238"/>
<path d="M223.516 377.391H235.97V410.108C235.97 411.391 235.511 412.622 234.692 413.529C233.874 414.436 232.764 414.946 231.607 414.946H227.891C226.734 414.946 225.624 414.436 224.806 413.529C223.988 412.622 223.528 411.391 223.528 410.108V377.391H223.516Z" fill="#263238"/>
<path opacity="0.2" d="M223.516 377.391H235.97V410.108C235.97 411.391 235.511 412.622 234.692 413.529C233.874 414.436 232.764 414.946 231.607 414.946H227.891C226.734 414.946 225.624 414.436 224.806 413.529C223.988 412.622 223.528 411.391 223.528 410.108V377.391H223.516Z" fill="white"/>
<path d="M194.27 381.107H263.56C264.735 381.107 265.688 380.05 265.688 378.747V378.212C265.688 376.909 264.735 375.852 263.56 375.852H194.27C193.094 375.852 192.141 376.909 192.141 378.212V378.747C192.141 380.05 193.094 381.107 194.27 381.107Z" fill="#263238"/>
<path opacity="0.2" d="M203.089 461.773C203.089 463.101 202.734 464.399 202.069 465.504C201.403 466.608 200.457 467.469 199.351 467.977C198.244 468.485 197.026 468.618 195.852 468.359C194.677 468.1 193.598 467.46 192.751 466.521C191.904 465.582 191.327 464.385 191.093 463.083C190.859 461.78 190.979 460.43 191.438 459.203C191.896 457.976 192.672 456.927 193.668 456.189C194.664 455.451 195.835 455.057 197.033 455.057C198.639 455.057 200.18 455.765 201.316 457.024C202.451 458.283 203.089 459.992 203.089 461.773Z" fill="white"/>
<path opacity="0.2" d="M262.348 468.488C265.693 468.488 268.405 465.482 268.405 461.773C268.405 458.064 265.693 455.057 262.348 455.057C259.003 455.057 256.292 458.064 256.292 461.773C256.292 465.482 259.003 468.488 262.348 468.488Z" fill="white"/>
<path d="M268.899 315.386H247.789C241.604 315.386 237.135 309.218 237.817 301.628L238.711 291.483C239.393 283.881 244.943 277.713 251.129 277.713H272.238C278.424 277.713 282.893 283.881 282.223 291.483L281.317 301.628C280.647 309.218 275.084 315.386 268.899 315.386Z" fill="#263238"/>
<path opacity="0.2" d="M268.899 315.386H247.789C241.604 315.386 237.135 309.218 237.817 301.628L238.711 291.483C239.393 283.881 244.943 277.713 251.129 277.713H272.238C278.424 277.713 282.893 283.881 282.223 291.483L281.317 301.628C280.647 309.218 275.084 315.386 268.899 315.386Z" fill="white"/>
<path d="M266.958 310.443H254.516C250.859 310.443 248.213 306.805 248.636 302.306L249.177 296.321C249.565 291.822 252.858 288.184 256.515 288.184H268.981C272.638 288.184 275.284 291.822 274.861 296.321L274.32 302.306C273.896 306.805 270.615 310.443 266.958 310.443Z" fill="#263238"/>
<path d="M257.056 301.498C257.056 301.498 254.21 364.938 241.886 375.826H255.069C255.069 375.826 266.829 354.219 267.687 301.498H257.056Z" fill="#263238"/>
<path d="M267.664 275.066L269.933 273.762C270.359 273.52 270.831 273.394 271.309 273.394C271.788 273.394 272.259 273.52 272.685 273.762L276.754 275.979C277.555 276.415 278.25 277.059 278.78 277.856C279.31 278.652 279.66 279.578 279.8 280.556L279.988 281.794C276.354 284.324 270.756 284.089 270.756 284.089L269.145 284.233C268.817 284.271 268.485 284.236 268.168 284.13C267.852 284.024 267.558 283.85 267.303 283.617C267.048 283.384 266.837 283.097 266.683 282.773C266.529 282.449 266.435 282.094 266.405 281.729L266.123 278.208C266.069 277.574 266.187 276.937 266.462 276.377C266.736 275.817 267.154 275.361 267.664 275.066Z" fill="#B97964"/>
<path opacity="0.2" d="M267.664 275.066L269.933 273.762C270.359 273.52 270.831 273.394 271.309 273.394C271.788 273.394 272.259 273.52 272.685 273.762L276.754 275.979C277.555 276.415 278.25 277.059 278.78 277.856C279.31 278.652 279.66 279.578 279.8 280.556L279.988 281.794C276.354 284.324 270.756 284.089 270.756 284.089L269.145 284.233C268.817 284.271 268.485 284.236 268.168 284.13C267.852 284.024 267.558 283.85 267.303 283.617C267.048 283.384 266.837 283.097 266.683 282.773C266.529 282.449 266.435 282.094 266.405 281.729L266.123 278.208C266.069 277.574 266.187 276.937 266.462 276.377C266.736 275.817 267.154 275.361 267.664 275.066Z" fill="black"/>
<path d="M250.988 278.169L242.756 289.71H234.924L235.947 273.605C241.874 274.87 250.988 278.169 250.988 278.169Z" fill="#F27777"/>
<path opacity="0.2" d="M242.062 289.71H235.288L239.499 278.169C239.499 278.169 241.909 282.225 242.062 289.71Z" fill="black"/>
<path d="M229.632 331.894L195.163 328.347C196.245 324.279 197.198 320.289 197.997 316.442C199.009 311.734 199.808 307.222 200.443 303.01C201.078 298.799 201.619 294.887 201.996 291.34L202.101 290.336C202.101 289.775 202.219 289.227 202.266 288.706C202.607 285.276 202.819 282.29 202.96 279.825C203.254 275.014 203.254 272.236 203.254 272.236C215.064 269.728 227.251 270.531 238.71 274.57C243.838 290.583 229.632 331.894 229.632 331.894Z" fill="#F27777"/>
<path d="M229.514 277.126C228.991 278.329 228.19 279.357 227.194 280.107C226.197 280.857 225.04 281.302 223.838 281.398C222.637 281.493 221.434 281.235 220.352 280.65C219.269 280.065 218.345 279.173 217.672 278.065L216.179 275.6L214.344 272.536C217.425 270.515 218.636 264.047 219.048 258.492C219.177 256.745 219.224 255.102 219.224 253.706L226.962 265.442C226.421 266.685 226.026 268 225.786 269.354C225.689 269.912 225.649 270.481 225.669 271.049C225.681 273.331 226.704 275.444 229.514 277.126Z" fill="#B97964"/>
<path opacity="0.2" d="M226.939 265.507C226.398 266.75 226.002 268.065 225.763 269.419C223.728 272.314 220.565 275.379 216.202 275.574L214.344 272.536C217.425 270.515 218.636 264.047 219.048 258.492C219.177 256.745 219.224 255.102 219.224 253.706L226.939 265.507Z" fill="black"/>
<path d="M208.347 245.908C208.347 245.908 204.525 244.318 205.654 241.384C206.782 238.45 208.147 238.476 208.147 238.476C207.569 237.276 207.255 235.942 207.231 234.582C207.206 233.223 207.472 231.876 208.006 230.652C209.899 226.74 214.085 228.33 214.085 228.33C214.102 227.102 214.495 225.916 215.201 224.968C215.906 224.02 216.881 223.366 217.966 223.114C219.074 222.911 220.21 223.115 221.204 223.694C222.197 224.273 222.993 225.196 223.47 226.322C223.47 226.322 226.104 222.528 229.961 223.571C233.819 224.614 234.595 230.573 234.595 230.573C235.648 230.192 236.794 230.277 237.793 230.809C238.792 231.341 239.567 232.279 239.957 233.429C240.482 234.629 240.701 235.966 240.591 237.294C240.481 238.622 240.047 239.892 239.334 240.966C239.334 240.966 241.792 239.662 242.603 244.057C243.415 248.451 239.275 252.311 239.275 252.311C239.275 252.311 241.51 252.611 240.357 255.858C239.205 259.105 235.571 259.157 235.571 259.157C235.571 259.157 236.982 259.952 234.313 262.626C231.643 265.299 223.047 261.478 223.047 261.478L208.347 245.908Z" fill="#263238"/>
<path d="M218.86 238.945C210.628 239.414 208.276 244.448 208.076 253.876C207.876 265.612 210.616 273.84 220.765 270.737C234.524 266.525 232.501 238.15 218.86 238.945Z" fill="#B97964"/>
<path d="M213.356 253.054C212.763 254.452 212.021 255.765 211.145 256.966C211.405 257.33 211.749 257.607 212.141 257.768C212.533 257.929 212.958 257.967 213.368 257.879L213.356 253.054Z" fill="#A24E3F"/>
<path d="M218.354 252.011C218.354 252.767 218.754 253.315 219.201 253.315C219.648 253.315 220 252.689 219.989 251.933C219.977 251.177 219.589 250.629 219.13 250.629C218.672 250.629 218.331 251.268 218.354 252.011Z" fill="#263238"/>
<path d="M219.319 250.668L217.837 250.068C217.837 250.068 218.601 251.424 219.319 250.668Z" fill="#263238"/>
<path d="M209.946 252.128C209.946 252.885 210.345 253.432 210.804 253.432C211.263 253.432 211.604 252.807 211.58 252.05C211.557 251.294 211.18 250.746 210.734 250.746C210.287 250.746 209.934 251.385 209.946 252.128Z" fill="#263238"/>
<path d="M210.922 250.772L209.428 250.186C209.428 250.186 210.204 251.529 210.922 250.772Z" fill="#263238"/>
<path d="M221.764 247.278C221.715 247.279 221.666 247.267 221.622 247.245C221.577 247.222 221.537 247.189 221.505 247.147C221.061 246.708 220.534 246.386 219.961 246.205C219.389 246.024 218.787 245.99 218.201 246.104C218.155 246.113 218.109 246.113 218.063 246.102C218.018 246.092 217.975 246.071 217.937 246.042C217.898 246.013 217.866 245.976 217.84 245.933C217.815 245.89 217.798 245.842 217.789 245.791C217.776 245.691 217.797 245.589 217.85 245.506C217.902 245.424 217.982 245.367 218.072 245.348C218.776 245.205 219.501 245.248 220.188 245.475C220.875 245.702 221.503 246.105 222.023 246.652C222.088 246.725 222.124 246.823 222.124 246.925C222.124 247.028 222.088 247.126 222.023 247.199C221.949 247.261 221.856 247.289 221.764 247.278Z" fill="#263238"/>
<path d="M208.911 247.004C208.857 247.004 208.805 246.991 208.756 246.966C208.707 246.941 208.664 246.905 208.629 246.86C208.573 246.777 208.549 246.673 208.562 246.57C208.575 246.468 208.624 246.375 208.699 246.313C209.182 245.863 209.75 245.539 210.36 245.366C210.971 245.192 211.609 245.172 212.227 245.309C212.272 245.323 212.314 245.348 212.351 245.381C212.387 245.414 212.417 245.455 212.439 245.501C212.461 245.548 212.474 245.598 212.478 245.65C212.482 245.702 212.477 245.754 212.463 245.804C212.433 245.9 212.371 245.979 212.29 246.025C212.209 246.071 212.115 246.081 212.027 246.052C211.511 245.949 210.979 245.975 210.473 246.128C209.966 246.282 209.497 246.558 209.099 246.939C209.043 246.979 208.978 247.002 208.911 247.004Z" fill="#263238"/>
<path d="M228.562 253.772C228.562 253.772 224.363 246.508 224.681 240.732C224.681 240.732 208.052 234.303 208.111 252.663C208.111 252.663 205.759 236.494 219.871 235.307C233.983 234.12 234.994 257.032 228.021 264.282C228.009 264.256 231.161 258.309 228.562 253.772Z" fill="#263238"/>
<path d="M227.315 255.78C227.326 255.253 227.43 254.733 227.622 254.251C227.814 253.769 228.09 253.334 228.434 252.971C228.779 252.607 229.184 252.323 229.628 252.133C230.071 251.944 230.544 251.854 231.019 251.868C233.583 252.037 235.065 257.762 228.797 259.522C227.903 259.796 227.338 258.844 227.315 255.78Z" fill="#B97964"/>
<path d="M215.344 263.186C215.109 263.205 214.873 263.205 214.638 263.186C214.592 263.177 214.549 263.158 214.51 263.13C214.471 263.102 214.438 263.065 214.412 263.023C214.385 262.981 214.367 262.933 214.357 262.883C214.348 262.832 214.347 262.781 214.356 262.73C214.363 262.68 214.379 262.632 214.403 262.589C214.427 262.546 214.459 262.509 214.496 262.48C214.533 262.451 214.575 262.43 214.62 262.419C214.665 262.408 214.711 262.408 214.756 262.417C215.641 262.59 216.554 262.426 217.345 261.953C218.137 261.48 218.762 260.724 219.119 259.809C219.136 259.761 219.161 259.717 219.193 259.68C219.225 259.643 219.264 259.613 219.306 259.593C219.349 259.572 219.395 259.561 219.441 259.56C219.488 259.559 219.534 259.569 219.577 259.587C219.62 259.606 219.66 259.634 219.693 259.67C219.727 259.706 219.754 259.748 219.772 259.796C219.791 259.843 219.801 259.894 219.802 259.945C219.802 259.997 219.794 260.048 219.777 260.096C219.416 261.056 218.797 261.868 218.003 262.422C217.209 262.975 216.28 263.242 215.344 263.186Z" fill="#263238"/>
<path d="M231.584 250.446C229.62 239.141 214.544 229.647 208.887 242.792C209.835 239.497 211.67 236.604 214.144 234.498C214.144 234.498 229.432 229.66 232.125 248.973L231.584 250.446Z" fill="#F27777"/>
<path d="M223.552 468.136C217.672 468.136 216.884 468.032 213.568 467.901C210.733 467.797 210.04 468.188 207.782 468.136C205.877 468.136 205.947 466.063 206.535 463.742C206.829 462.568 207.276 460.103 207.711 458.226L216.343 457.521C217.519 460.129 220.294 463.768 223.611 464.263C226.927 464.759 225.892 468.136 223.552 468.136Z" fill="#263238"/>
<path d="M195.716 327.539C195.716 327.539 183.956 346.929 190.33 362.864C196.704 378.799 228.938 371.601 228.938 371.601L207.7 458.265L217.86 460.129C217.86 460.129 253.881 374.235 254.798 359.591C255.716 344.947 216.825 335.545 216.825 335.545L195.716 327.539Z" fill="#F27777"/>
<path opacity="0.3" d="M195.716 327.539C195.716 327.539 183.956 346.929 190.33 362.864C196.704 378.799 228.938 371.601 228.938 371.601L207.7 458.265L217.86 460.129C217.86 460.129 253.881 374.235 254.798 359.591C255.716 344.947 216.825 335.545 216.825 335.545L195.716 327.539Z" fill="white"/>
<path opacity="0.2" d="M231.584 282.968C231.584 282.968 215.12 295.826 202.102 290.297C202.102 289.736 202.219 289.188 202.266 288.667C202.607 285.237 202.819 282.251 202.96 279.786C207.179 277.649 211.559 275.925 216.049 274.635C220.671 278.54 225.954 281.373 231.584 282.968Z" fill="black"/>
<path d="M208.652 272.262C215.896 276.174 223.376 281.038 231.267 282.825C235.806 282.499 240.886 280.451 245.449 279.069L259.126 274.479C259.712 274.275 260.346 274.32 260.903 274.605C261.461 274.891 261.902 275.396 262.142 276.024C262.381 276.651 262.401 277.354 262.198 277.997C261.995 278.64 261.583 279.175 261.043 279.499C256.774 282.107 252.47 284.507 248.013 286.698C242.509 289.201 237.429 292.122 231.22 292.748C228.991 292.719 226.776 292.36 224.634 291.679C217.405 289.327 210.444 286.059 203.89 281.938C202.847 281.181 202.098 280.018 201.791 278.679C201.485 277.339 201.643 275.921 202.234 274.705C202.826 273.488 203.807 272.562 204.985 272.11C206.162 271.658 207.45 271.712 208.594 272.262H208.652Z" fill="#B97864"/>
<path d="M204.76 270.815C198.421 272.484 198.209 284.546 204.03 290.205L218.142 276.996C218.142 276.996 212.274 268.833 204.76 270.815Z" fill="#F27777"/>
<path d="M259.49 274.544L267.311 274.336L263.783 283.111C263.783 283.111 256.727 282.838 257.068 278.847L259.49 274.544Z" fill="#B97964"/>
<path d="M274.026 278.626L268.663 285.028L263.759 283.111L267.311 274.336L274.026 278.626Z" fill="#B97964"/>
<path d="M379.03 380.129C384.499 392.674 389.767 405.218 393.331 418.649C394.965 427.777 395.271 437.062 395.883 446.125C396.306 453.623 396.553 461.108 396.647 468.632L390.591 469.336C388.674 458.76 386.874 446.959 385.204 436.292C384.405 431.468 383.793 426.721 382.7 422.079C378.537 410.121 372.762 397.811 367.976 386.049L379.03 380.129Z" fill="#DC897C"/>
<path d="M388.062 396.546L378.478 401.632L372.527 404.827L368.917 395.203L365.142 385.123L368.329 366.75C378.113 371.497 388.062 396.546 388.062 396.546Z" fill="#F27777"/>
<path opacity="0.2" d="M378.478 401.632L372.527 404.827L368.917 395.203C369.658 389.753 370.281 385.123 370.281 385.123C370.281 385.123 377.243 392.048 378.478 401.632Z" fill="black"/>
<path d="M349.772 333.433C349.878 334.215 350.336 334.737 350.795 334.737C351.253 334.737 351.536 333.968 351.43 333.185C351.324 332.403 350.854 331.881 350.395 331.881C349.936 331.881 349.595 332.664 349.772 333.433Z" fill="#263238"/>
<path d="M350.207 334.789C351.373 337.021 352.809 339.066 354.476 340.866C354.053 341.332 353.544 341.691 352.983 341.916C352.422 342.141 351.824 342.228 351.23 342.17L350.207 334.789Z" fill="#DE5753"/>
<path d="M346.538 329.56C346.433 329.556 346.332 329.509 346.256 329.43C346.179 329.342 346.137 329.225 346.137 329.104C346.137 328.982 346.179 328.865 346.256 328.778C346.716 328.254 347.284 327.862 347.91 327.635C348.537 327.408 349.204 327.352 349.854 327.474C349.908 327.486 349.958 327.51 350.003 327.544C350.048 327.579 350.087 327.623 350.116 327.674C350.146 327.725 350.166 327.782 350.176 327.841C350.185 327.901 350.184 327.962 350.172 328.021C350.161 328.081 350.139 328.137 350.108 328.187C350.077 328.237 350.037 328.279 349.991 328.312C349.945 328.345 349.894 328.367 349.84 328.378C349.786 328.388 349.731 328.387 349.678 328.373C349.161 328.292 348.634 328.348 348.141 328.539C347.648 328.73 347.203 329.048 346.844 329.469C346.801 329.506 346.751 329.533 346.699 329.548C346.646 329.564 346.592 329.568 346.538 329.56Z" fill="#263238"/>
<path d="M351.959 345.221C351.734 348.369 350.523 351.33 348.537 353.593C347.225 355.087 345.613 356.217 343.833 356.892C342.129 357.548 340.305 357.723 338.525 357.402C336.745 357.081 335.066 356.274 333.637 355.053C328.604 350.906 327.945 345.26 326.087 335.806C325.63 333.614 325.685 331.329 326.248 329.168C326.812 327.007 327.864 325.041 329.305 323.458C330.746 321.874 332.528 320.725 334.482 320.12C336.436 319.516 338.497 319.475 340.47 320.002C349.454 322.362 352.606 336.328 351.959 345.221Z" fill="#E4897B"/>
<path d="M329.321 351.232C332.849 353.697 346.185 346.773 343.986 335.128C343.986 335.128 349.243 328.752 348.984 321.41C348.725 314.069 344.28 310.978 339.435 312.36C335.131 313.521 335.142 316.116 335.142 316.116C335.142 316.116 314.962 317.694 318.867 326.965C310.282 336.432 324.982 348.168 329.321 351.232Z" fill="#263238"/>
<path d="M340.364 336.941C340.84 339.289 342.002 341.397 343.668 342.939C345.867 344.947 347.655 343.174 347.62 340.331C347.62 337.723 346.444 333.589 343.892 332.69C341.34 331.79 339.87 334.111 340.364 336.941Z" fill="#E4897B"/>
<path opacity="0.2" d="M351.348 348.507C350.761 350.411 349.801 352.148 348.537 353.593C347.225 355.087 345.613 356.217 343.833 356.892C342.637 356.221 341.489 355.449 340.399 354.584L342.187 349.72C342.187 349.72 347.667 352.693 351.348 348.507Z" fill="black"/>
<path d="M332.191 363.164L330.685 351.728C330.685 351.728 337.4 346.512 344.433 350.02L355.017 364.168L332.191 363.164Z" fill="#E4897B"/>
<path d="M356.24 362.76L353.782 358.678C353.782 358.678 335.954 351.363 328.18 360.739C328.18 360.739 345.573 370.936 356.24 362.76Z" fill="#F27777"/>
<path opacity="0.2" d="M356.24 362.76L353.782 358.678C353.782 358.678 335.954 351.363 328.18 360.739C328.18 360.739 345.573 370.936 356.24 362.76Z" fill="black"/>
<path d="M287.785 473.639L281.07 468.84L283.646 464.576L290.643 452.997L297.369 457.795L289.631 470.588L287.785 473.639Z" fill="#E4897B"/>
<path d="M281.564 468.227L290.972 468.123C291.124 468.127 291.272 468.186 291.391 468.292C291.51 468.399 291.594 468.545 291.63 468.71L293.206 476.286C293.264 476.612 293.207 476.95 293.047 477.231C292.888 477.512 292.637 477.715 292.348 477.799H292.101C289.067 477.799 286.867 477.59 283.069 477.629C280.717 477.629 273.661 478.007 270.439 478.033C267.216 478.06 266.746 474.539 268.087 474.2C273.967 472.7 278.459 470.666 280.341 468.749C280.677 468.415 281.112 468.23 281.564 468.227Z" fill="#263238"/>
<path d="M283.375 461.694L295.676 465.372L362.449 409.195L328.192 400.876C325.745 400.296 323.197 400.555 320.886 401.619C318.576 402.684 316.612 404.503 315.256 406.835L283.375 461.694Z" fill="#263238"/>
<path opacity="0.2" d="M283.375 461.694L295.676 465.372L362.449 409.195L328.192 400.876C325.745 400.296 323.197 400.555 320.886 401.619C318.576 402.684 316.612 404.503 315.256 406.835L283.375 461.694Z" fill="black"/>
<path d="M246.872 473.913L239.933 469.518L242.309 465.111L248.741 453.14L255.68 457.535L248.565 470.757L246.872 473.913Z" fill="#E4897B"/>
<path d="M240.204 468.045H249.612C249.765 468.046 249.913 468.105 250.033 468.211C250.152 468.318 250.236 468.466 250.27 468.632L251.787 476.234C251.841 476.561 251.779 476.899 251.615 477.178C251.451 477.457 251.197 477.656 250.905 477.733H250.659C247.636 477.733 245.425 477.473 241.627 477.473C239.275 477.473 232.219 477.747 228.997 477.747C225.774 477.747 225.339 474.2 226.645 473.835C232.525 472.4 237.052 470.418 238.957 468.527C239.307 468.206 239.75 468.035 240.204 468.045Z" fill="#263238"/>
<path d="M378.56 438.692L331.873 438.822C330.697 434.232 329.215 418.258 324.652 398.502C323.418 393.143 321.947 387.51 320.219 381.733C318.783 376.509 317.039 371.395 314.997 366.424C319.222 363.593 323.864 361.611 328.709 360.569C349.372 356.657 368.329 366.75 368.329 366.75C368.329 366.75 376.526 392.048 378.56 438.692Z" fill="#F27777"/>
<path opacity="0.2" d="M324.652 398.503C323.417 393.143 321.947 387.51 320.219 381.733L323.476 380.273C323.476 380.273 328.604 393.091 324.652 398.503Z" fill="black"/>
<path d="M304.225 407.37L309.647 410.212L311.717 400.093C311.717 400.093 307.389 398.411 304.143 400.863L304.225 407.37Z" fill="#E4897B"/>
<path d="M317.42 413.642L317.667 404.423L311.716 400.093L309.647 410.212L317.42 413.642Z" fill="#E4897B"/>
<path d="M321.125 382.268C312.105 387.679 301.803 392.7 293.959 399.78C293.783 399.95 293.841 400.028 294.041 399.272C294.079 398.791 294.023 398.306 293.877 397.851C293.747 397.355 293.458 396.928 293.065 396.651C292.912 396.586 293.006 396.742 293.218 396.899C293.512 397.102 293.823 397.272 294.147 397.407C297.769 398.933 302.791 399.441 306.848 400.015L307.459 406.731C306.178 407.135 304.978 407.409 303.72 407.67C299.016 408.569 294.135 409.208 289.184 407.396C287.057 406.686 285.261 405.086 284.179 402.935C283.097 400.783 282.813 398.249 283.387 395.868C285.809 386.336 307.73 374.444 315.774 370.023L321.125 382.281V382.268Z" fill="#DC897C"/>
<path d="M329.674 427.803L327.581 433.75C327.581 433.75 302.567 399.481 288.773 397.525C274.978 395.569 242.909 460.69 242.909 460.69L255.069 464.772L289.29 430.346C303.402 457.652 320.278 477.681 340.34 477.681H359.932C381.841 477.681 382.088 450.584 377.761 427.608L329.674 427.803Z" fill="#263238"/>
<path d="M314.997 366.424C307.154 369.606 297.934 379.255 297.934 379.255C297.934 379.255 305.695 394.173 306.471 393.599C307.248 393.026 323.171 387.966 323.171 387.966C323.171 387.966 326.416 383.298 323.923 375.396C323.275 373.164 322.109 371.161 320.542 369.586C318.976 368.012 317.064 366.921 314.997 366.424Z" fill="#F27777"/>
<path d="M393.766 464.133L402.292 464.602L397.788 473.835C397.788 473.835 390.203 472.909 390.802 468.619L393.766 464.133Z" fill="#E4897B"/>
<path d="M409.278 469.87L402.986 476.351L397.788 473.835L402.292 464.602L409.278 469.87Z" fill="#E4897B"/>
<path d="M129.531 370.623C135.246 377.012 140.879 384.171 147.723 389.009C147.723 389.009 148.147 389.257 148.182 389.296C147.998 389.22 147.802 389.185 147.606 389.192C147.429 389.192 147.712 389.192 148.017 389.192C155.826 386.74 163.082 381.094 170.267 376.752C170.823 376.38 171.483 376.248 172.121 376.381C172.76 376.514 173.331 376.903 173.728 377.473C174.124 378.043 174.318 378.755 174.272 379.473C174.226 380.191 173.943 380.866 173.478 381.368C167.88 387.118 152.792 402.493 144.866 399.272C140.02 397.303 135.975 393.599 132.165 390.039C128.443 386.462 124.935 382.62 121.663 378.538C117.183 372.631 124.662 365.107 129.531 370.636V370.623Z" fill="#E9B376"/>
<path d="M139.362 379.647C138.362 387.94 132.306 396.077 132.306 396.077L131.036 395.112L124.85 390.561C124.85 390.561 124.733 390.17 124.556 389.479C124.38 388.788 124.156 387.979 123.886 386.871C122.463 381.342 119.899 371.001 119.582 366.711C127.261 366.515 130.718 370.571 139.362 379.647Z" fill="#F27777"/>
<path opacity="0.7" d="M139.362 379.647C138.362 387.94 132.306 396.077 132.306 396.077L131.036 395.112L124.85 390.561C124.85 390.561 124.733 390.17 124.556 389.479C124.38 388.788 124.156 387.979 123.886 386.871C122.463 381.342 119.899 371.001 119.582 366.711C127.261 366.515 130.718 370.571 139.362 379.647Z" fill="white"/>
<path opacity="0.2" d="M131.036 395.112L124.85 390.561C124.85 390.561 124.733 390.17 124.556 389.479C124.786 387.379 125.131 385.298 125.591 383.246C127.221 384.667 128.552 386.465 129.492 388.514C130.432 390.563 130.959 392.814 131.036 395.112Z" fill="black"/>
<path d="M123.51 420.54L128.79 430.789C142.902 427.138 188.272 419.471 193.834 436.723C200.761 458.147 150.746 475.243 123.074 476.286C95.4031 477.329 71.2598 470.027 88.7587 425.287L123.51 420.54Z" fill="#263238"/>
<path opacity="0.2" d="M123.51 420.54L128.79 430.789C142.902 427.138 188.272 419.471 193.834 436.723C200.761 458.147 150.746 475.243 123.074 476.286C95.4031 477.329 71.2598 470.027 88.7587 425.287L123.51 420.54Z" fill="black"/>
<path d="M185.826 467.015C185.794 467.037 185.758 467.048 185.72 467.048C185.683 467.048 185.646 467.037 185.614 467.015C185.598 466.985 185.589 466.951 185.589 466.917C185.589 466.882 185.598 466.848 185.614 466.819C185.708 466.48 186.626 463.533 187.555 463.22C187.652 463.194 187.754 463.195 187.851 463.225C187.948 463.255 188.036 463.311 188.107 463.389C188.235 463.509 188.332 463.663 188.39 463.837C188.448 464.01 188.464 464.198 188.437 464.38C188.285 464.935 187.981 465.423 187.566 465.776C187.026 466.254 186.443 466.669 185.826 467.015ZM186.061 466.454C186.925 466.037 187.623 465.287 188.025 464.341C188.051 464.218 188.044 464.09 188.004 463.971C187.964 463.853 187.894 463.75 187.802 463.676C187.775 463.64 187.74 463.614 187.701 463.6C187.661 463.586 187.618 463.585 187.578 463.598C187.5 463.63 187.428 463.679 187.366 463.742C186.786 464.55 186.344 465.469 186.061 466.454Z" fill="#263238"/>
<path d="M185.767 467.054C185.744 467.075 185.715 467.087 185.685 467.087C185.655 467.087 185.625 467.075 185.602 467.054C185.508 466.975 184.238 465.189 184.426 463.976C184.449 463.826 184.499 463.682 184.574 463.554C184.649 463.426 184.747 463.317 184.861 463.233C184.961 463.133 185.087 463.072 185.22 463.058C185.354 463.044 185.488 463.078 185.602 463.155C186.273 463.689 186.19 466.076 185.861 466.989V467.08L185.767 467.054ZM185.049 463.559C184.932 463.664 184.853 463.812 184.826 463.976C184.861 464.88 185.163 465.746 185.685 466.441C185.884 465.424 185.826 463.742 185.426 463.442C185.426 463.442 185.308 463.337 185.108 463.442V463.507L185.049 463.559Z" fill="#263238"/>
<path d="M137.175 472.048C137.193 472.015 137.219 471.989 137.25 471.973C137.282 471.957 137.317 471.951 137.351 471.957C137.383 471.959 137.413 471.973 137.436 471.997C137.459 472.021 137.475 472.052 137.48 472.087C137.551 472.439 138.033 475.517 137.363 476.286C137.287 476.361 137.195 476.412 137.096 476.435C136.997 476.458 136.894 476.452 136.798 476.416C136.633 476.386 136.478 476.306 136.351 476.184C136.224 476.062 136.131 475.903 136.081 475.725C135.965 475.165 136.018 474.579 136.234 474.056C136.483 473.352 136.799 472.679 137.175 472.048ZM137.175 472.674C136.602 473.501 136.314 474.528 136.363 475.569C136.395 475.694 136.461 475.806 136.551 475.89C136.641 475.973 136.752 476.025 136.869 476.038C136.902 476.063 136.941 476.076 136.98 476.076C137.02 476.076 137.059 476.063 137.092 476.038C137.145 475.969 137.185 475.89 137.21 475.804C137.386 474.769 137.386 473.708 137.21 472.674H137.175Z" fill="#263238"/>
<path d="M155.285 456.517L143.902 461.016L138.433 463.181L139.833 469.818L145.125 468.566L158.061 465.502L155.285 456.517Z" fill="#EBB376"/>
<path d="M141.326 470.131L140.362 462.307C140.349 462.204 140.318 462.105 140.27 462.015C140.222 461.925 140.158 461.847 140.082 461.785C140.007 461.723 139.921 461.679 139.829 461.654C139.738 461.63 139.643 461.625 139.55 461.642L136.022 462.294C136.022 462.294 131.318 462.777 130.342 464.133C127.59 468.045 129.307 485.44 131.142 486.053C131.812 486.275 132.518 485.258 132.812 484.553C133.741 482.31 135.376 476.456 136.175 474.604C137.093 472.426 139.703 471.37 140.785 470.992C140.955 470.948 141.105 470.836 141.205 470.677C141.305 470.518 141.348 470.323 141.326 470.131Z" fill="#F27777"/>
<path d="M137.198 472.048C137.224 472.028 137.255 472.017 137.286 472.017C137.318 472.017 137.349 472.028 137.375 472.048C137.481 472.048 139.386 472.961 139.727 474.121C139.768 474.267 139.783 474.42 139.771 474.573C139.759 474.725 139.72 474.873 139.656 475.008C139.619 475.152 139.537 475.278 139.426 475.364C139.314 475.449 139.18 475.489 139.045 475.478C138.233 475.373 137.257 473.235 137.151 472.27V472.048C137.167 472.044 137.183 472.044 137.198 472.048ZM139.362 474.721C139.409 474.56 139.409 474.387 139.362 474.226C139.139 473.482 138.08 472.83 137.539 472.53C137.798 473.535 138.586 474.969 139.068 475.021C139.068 475.021 139.209 475.021 139.315 474.799V474.721H139.362Z" fill="#263238"/>
<path opacity="0.2" d="M155.285 456.517L143.901 461.016L145.125 468.566L158.061 465.502L155.285 456.517Z" fill="black"/>
<path d="M147.147 469.701L150.417 469.962L148.229 457.469L144.513 459.738L147.147 469.701Z" fill="#F27777"/>
<path opacity="0.6" d="M147.147 469.701L150.417 469.962L148.229 457.469L144.513 459.738L147.147 469.701Z" fill="white"/>
<path opacity="0.2" d="M99.6486 421.192L116.701 442.16C116.701 442.16 135.517 441.691 158.449 454.105C158.449 454.105 183.015 442.851 185.273 433.502C188.237 421.257 128.825 430.829 128.825 430.829L99.6486 421.192Z" fill="black"/>
<path d="M123.333 429.577L88.5588 425.104C89.2248 421.122 89.6179 417.09 89.7348 413.042C89.8741 407.274 89.6698 401.502 89.1233 395.764C88.6411 390.274 87.9473 383.963 86.7713 376.556C86.536 375.232 86.571 373.865 86.8736 372.558C87.1762 371.25 87.7388 370.034 88.5202 368.999C89.3016 367.964 90.282 367.135 91.3895 366.575C92.4971 366.014 93.7037 365.735 94.9209 365.759C96.3204 365.759 97.7904 365.837 99.2957 365.942C104.621 366.206 109.922 366.89 115.16 367.989C116.853 368.367 118.606 368.836 120.287 369.293C126.32 371.027 130.06 379.451 129.542 386.245C129.339 391.525 128.812 396.783 127.967 401.984C126.896 409.652 125.638 417.137 123.333 429.577Z" fill="#F27777"/>
<path opacity="0.7" d="M123.333 429.577L88.5588 425.104C89.2248 421.122 89.6179 417.09 89.7348 413.042C89.8741 407.274 89.6698 401.502 89.1233 395.764C88.6411 390.274 87.9473 383.963 86.7713 376.556C86.536 375.232 86.571 373.865 86.8736 372.558C87.1762 371.25 87.7388 370.034 88.5202 368.999C89.3016 367.964 90.282 367.135 91.3895 366.575C92.4971 366.014 93.7037 365.735 94.9209 365.759C96.3204 365.759 97.7904 365.837 99.2957 365.942C104.621 366.206 109.922 366.89 115.16 367.989C116.853 368.367 118.606 368.836 120.287 369.293C126.32 371.027 130.06 379.451 129.542 386.245C129.339 391.525 128.812 396.783 127.967 401.984C126.896 409.652 125.638 417.137 123.333 429.577Z" fill="white"/>
<path opacity="0.2" d="M89.7583 413.055C89.8976 407.287 89.6933 401.515 89.1467 395.777C93.4979 390.079 97.6139 385.345 97.6139 385.345C97.6139 385.345 104.435 404.814 89.7583 413.055Z" fill="black"/>
<path d="M95.2502 383.233C95.6501 391.487 95.5795 404.331 96.9319 412.22L96.5791 411.255C96.3439 410.877 96.485 411.255 96.732 411.464C97.0501 411.814 97.3879 412.14 97.7433 412.442C102.447 416.354 108.092 419.366 113.396 422.483L120.087 426.304C120.667 426.626 121.12 427.174 121.36 427.843C121.6 428.511 121.609 429.254 121.387 429.931C121.165 430.607 120.727 431.169 120.155 431.51C119.584 431.851 118.919 431.947 118.288 431.78C115.736 431.102 113.29 430.294 110.809 429.459C103.753 426.851 96.5085 424.348 90.4404 419.249C89.2552 418.229 88.3343 416.879 87.7709 415.337C85.0543 404.644 84.8426 394.317 84.6427 383.415C84.8897 375.813 94.8151 375.669 95.2267 383.272L95.2502 383.233Z" fill="#E9B376"/>
<path d="M129.472 425.834L127.355 424.126C126.963 423.811 126.508 423.605 126.029 423.526C125.55 423.446 125.061 423.496 124.603 423.67L120.252 425.287C119.394 425.608 118.618 426.153 117.988 426.874C117.358 427.595 116.893 428.472 116.63 429.433L116.301 430.646C119.64 433.723 125.297 434.336 125.297 434.336L126.885 434.701C127.21 434.788 127.547 434.803 127.878 434.744C128.208 434.686 128.524 434.555 128.809 434.36C129.093 434.164 129.34 433.908 129.534 433.607C129.729 433.305 129.868 432.964 129.942 432.602L130.648 429.107C130.761 428.494 130.71 427.857 130.501 427.276C130.292 426.694 129.935 426.193 129.472 425.834Z" fill="#EBB376"/>
<path d="M92.075 366.294C85.2777 368.993 83.3256 375.565 83.1844 389.27C86.7124 392.83 97.4258 393.026 97.4258 393.026C97.4258 393.026 99.2839 372.24 92.075 366.294Z" fill="#F27777"/>
<path d="M174.419 433.384V436.488C174.419 437.283 173.572 437.609 172.854 437.609H116.924C116.195 437.609 115.336 437.283 115.336 436.488V433.384H174.419Z" fill="#263238"/>
<path opacity="0.4" d="M174.419 433.384V436.488C174.419 437.283 173.572 437.609 172.854 437.609H116.924C116.195 437.609 115.336 437.283 115.336 436.488V433.384H174.419Z" fill="white"/>
<path opacity="0.2" d="M174.419 433.384V436.488C174.419 437.283 173.572 437.609 172.855 437.609H135.928C135.211 437.609 134.352 437.283 134.352 436.488V433.384H174.419Z" fill="black"/>
<path d="M183.791 401.123L177.123 434.649C177 435.185 176.722 435.662 176.331 436.006C175.94 436.349 175.458 436.542 174.96 436.553H138.504C138.277 436.546 138.054 436.481 137.854 436.363C137.653 436.245 137.48 436.077 137.348 435.873C137.216 435.668 137.128 435.432 137.092 435.184C137.056 434.935 137.072 434.681 137.139 434.441L143.796 401.176C143.932 400.668 144.221 400.228 144.615 399.929C145.009 399.63 145.483 399.49 145.959 399.533H182.415C183.391 399.533 183.956 400.028 183.791 401.123Z" fill="#263238"/>
<path opacity="0.4" d="M183.791 401.123L177.123 434.649C177 435.185 176.722 435.662 176.331 436.006C175.94 436.349 175.458 436.542 174.96 436.553H139.774C139.547 436.546 139.324 436.48 139.124 436.362C138.923 436.245 138.749 436.077 138.616 435.873C138.483 435.669 138.394 435.433 138.357 435.185C138.319 434.937 138.333 434.682 138.398 434.441L145.066 401.176C145.202 400.668 145.491 400.228 145.885 399.929C146.279 399.63 146.754 399.49 147.23 399.533H182.415C183.392 399.533 183.956 400.028 183.791 401.123Z" fill="white"/>
<path opacity="0.2" d="M165.834 418.154C165.717 419.513 165.17 420.783 164.29 421.738C163.409 422.693 162.252 423.271 161.024 423.37C158.989 423.37 157.778 421.036 158.366 418.154C158.954 415.272 160.965 413.042 162.952 412.938C162.376 415.807 163.623 418.154 165.645 418.154H165.834Z" fill="black"/>
<path d="M171.608 382.437L179.44 382.659L175.912 373.87C175.912 373.87 168.927 374.144 169.197 378.134L171.608 382.437Z" fill="#EBB376"/>
<path d="M186.155 378.382L180.792 371.966L175.889 373.87L179.44 382.659L186.155 378.382Z" fill="#EBB376"/>
<path d="M97.5787 365.85C96.779 365.785 99.2251 376.673 111.103 379.36C122.98 382.046 122.063 369.932 121.134 366.893C121.134 366.893 105.517 366.424 97.5787 365.85Z" fill="#EBB376"/>
<path d="M100.836 323.275C100.836 323.275 107.645 314.903 120.099 319.219C132.553 323.535 132.024 348.181 125.697 357.126C115.788 356.741 105.876 357.766 96.2028 360.178C96.2028 360.178 90.2052 342.3 93.1805 331.79C96.1558 321.28 100.836 323.275 100.836 323.275Z" fill="#263238"/>
<path d="M103.341 347.855C104.129 353.671 104.741 364.207 100.989 367.545C100.989 367.545 105.881 367.363 115.372 375.682C118.817 371.353 116.783 369.567 116.783 369.567C111.173 367.337 111.491 362.642 112.632 358.352L103.341 347.855Z" fill="#EBB376"/>
<path opacity="0.2" d="M107.151 352.145L112.69 358.352C112.411 359.357 112.21 360.387 112.09 361.43C109.938 360.804 107.057 357.765 106.928 355.197C106.836 354.173 106.912 353.139 107.151 352.145Z" fill="black"/>
<path d="M100.178 335.989C100.766 345.286 100.848 349.224 105.07 354.245C111.432 361.704 121.534 359.461 123.357 350.333C125.062 342.091 123.803 328.269 115.666 324.187C113.949 323.245 112.037 322.828 110.126 322.979C108.216 323.13 106.376 323.844 104.797 325.047C103.219 326.25 101.958 327.898 101.146 329.821C100.334 331.745 99.9997 333.874 100.178 335.989Z" fill="#EBB376"/>
<path d="M110.503 338.844C110.503 339.64 110.891 340.279 111.35 340.305C111.808 340.331 112.138 339.705 112.126 338.923C112.114 338.14 111.726 337.488 111.279 337.475C110.832 337.462 110.479 338.062 110.503 338.844Z" fill="#263238"/>
<path d="M119.276 338.949C119.276 339.731 119.676 340.383 120.123 340.409C120.569 340.435 120.911 339.809 120.899 339.027C120.887 338.245 120.499 337.593 120.052 337.58C119.605 337.567 119.276 338.166 119.276 338.949Z" fill="#263238"/>
<path d="M119.817 337.606L121.452 337.136C121.452 337.136 120.64 338.571 119.817 337.606Z" fill="#263238"/>
<path d="M116.618 340.553C117.276 342.369 118.137 344.086 119.182 345.664C118.83 345.93 118.428 346.105 118.006 346.175C117.585 346.245 117.155 346.208 116.748 346.069L116.618 340.553Z" fill="#D58745"/>
<path d="M109.092 333.889C109.145 333.899 109.199 333.894 109.25 333.876C109.301 333.858 109.348 333.827 109.386 333.785C109.753 333.408 110.199 333.139 110.684 333.003C111.169 332.866 111.676 332.866 112.161 333.003C112.211 333.02 112.263 333.027 112.314 333.021C112.366 333.015 112.416 332.998 112.461 332.97C112.507 332.941 112.546 332.903 112.578 332.857C112.609 332.811 112.631 332.759 112.643 332.703C112.673 332.582 112.658 332.453 112.604 332.343C112.549 332.234 112.458 332.152 112.349 332.116C111.736 331.933 111.09 331.926 110.473 332.095C109.856 332.264 109.288 332.603 108.821 333.081C108.746 333.166 108.704 333.281 108.704 333.4C108.704 333.52 108.746 333.634 108.821 333.72C108.889 333.812 108.986 333.873 109.092 333.889Z" fill="#263238"/>
<path d="M122.686 333.967C122.781 334.008 122.886 334.008 122.98 333.967C123.026 333.936 123.065 333.894 123.096 333.845C123.127 333.796 123.148 333.741 123.159 333.682C123.17 333.624 123.171 333.564 123.16 333.505C123.149 333.446 123.128 333.391 123.098 333.342C122.775 332.698 122.322 332.146 121.776 331.728C121.229 331.309 120.603 331.036 119.946 330.929C119.894 330.926 119.841 330.934 119.792 330.954C119.743 330.974 119.698 331.006 119.66 331.046C119.623 331.087 119.593 331.136 119.574 331.189C119.554 331.243 119.545 331.301 119.546 331.359C119.548 331.482 119.59 331.599 119.663 331.69C119.737 331.781 119.837 331.839 119.946 331.855C120.466 331.943 120.961 332.163 121.391 332.498C121.821 332.832 122.176 333.273 122.428 333.785C122.458 333.833 122.496 333.873 122.541 333.905C122.585 333.936 122.635 333.957 122.686 333.967Z" fill="#263238"/>
<path d="M111.044 337.501L112.679 337.045C112.679 337.045 111.902 338.466 111.044 337.501Z" fill="#263238"/>
<path d="M101.918 341.57C101.918 341.57 108.386 335.937 106.916 327.122C106.916 327.122 118.488 322.049 123.051 334.946C123.051 334.946 124.015 323.888 113.137 321.723C102.259 319.558 89.382 335.91 101.707 348.312L101.918 341.57Z" fill="#263238"/>
<path d="M97.508 343.5C97.9276 344.362 98.4969 345.124 99.1831 345.742C99.8693 346.36 100.659 346.821 101.506 347.099C103.706 347.764 104.693 345.364 103.988 342.887C103.341 340.657 101.424 337.671 99.2838 338.049C97.1435 338.427 96.4143 341.296 97.508 343.5Z" fill="#EBB376"/>
<path d="M124.321 340.422C124.268 340.422 124.217 340.403 124.174 340.368C124.132 340.332 124.101 340.283 124.086 340.227C119.934 324.018 106.234 327.356 106.093 327.382C106.063 327.39 106.032 327.391 106.001 327.385C105.971 327.38 105.942 327.367 105.915 327.349C105.889 327.331 105.866 327.307 105.848 327.28C105.83 327.252 105.818 327.22 105.811 327.187C105.804 327.153 105.803 327.119 105.808 327.085C105.813 327.051 105.824 327.019 105.84 326.99C105.857 326.961 105.878 326.935 105.903 326.916C105.929 326.896 105.957 326.881 105.987 326.874C106.128 326.874 120.276 323.392 124.544 340.083C124.553 340.117 124.556 340.152 124.553 340.186C124.549 340.221 124.539 340.254 124.524 340.285C124.509 340.315 124.488 340.342 124.463 340.363C124.438 340.385 124.41 340.4 124.38 340.409L124.321 340.422Z" fill="#263238"/>
<path d="M117.159 348.768C116.749 349.834 116.41 350.932 116.148 352.054H115.595C113.114 351.754 112.067 350.75 111.62 349.642C111.42 349.115 111.335 348.543 111.373 347.972C111.391 347.649 111.447 347.329 111.538 347.021C113.001 347.96 114.629 348.538 116.312 348.716C116.83 348.742 117.159 348.768 117.159 348.768Z" fill="#263238"/>
<path d="M116.312 348.663L115.995 349.615C113.643 349.342 112.032 348.794 111.373 347.92C111.391 347.596 111.446 347.276 111.538 346.968C113.001 347.907 114.629 348.486 116.312 348.663Z" fill="white"/>
<path d="M115.595 352.002C113.114 351.702 112.067 350.698 111.62 349.589C112.563 349.725 113.478 350.038 114.325 350.515C114.877 350.853 115.321 351.372 115.595 352.002Z" fill="#DE5753"/>
<path d="M115.195 392.217C115.158 392.22 115.12 392.213 115.086 392.197C115.051 392.181 115.02 392.157 114.995 392.126C108.747 384.697 104.035 375.845 101.189 366.189C101.171 366.11 101.182 366.026 101.219 365.955C101.257 365.884 101.318 365.833 101.389 365.811C101.424 365.801 101.46 365.799 101.495 365.805C101.531 365.811 101.565 365.825 101.595 365.846C101.626 365.866 101.653 365.893 101.674 365.925C101.695 365.958 101.71 365.994 101.718 366.033C104.488 375.424 109.044 384.046 115.078 391.317C115.783 388.709 118.711 376.321 114.301 366.828C114.28 366.758 114.282 366.681 114.307 366.612C114.332 366.542 114.378 366.485 114.438 366.451C114.497 366.416 114.566 366.406 114.632 366.423C114.697 366.439 114.755 366.481 114.795 366.541C119.84 377.404 115.501 391.865 115.454 392.008C115.438 392.059 115.412 392.104 115.377 392.14C115.342 392.177 115.3 392.203 115.254 392.217H115.195Z" fill="#263238"/>
<path d="M115.56 391.669L116.454 392.973C116.534 393.084 116.577 393.222 116.577 393.365C116.577 393.507 116.534 393.645 116.454 393.756L115.548 395.06C115.494 395.131 115.426 395.188 115.35 395.228C115.274 395.267 115.191 395.287 115.107 395.287C115.023 395.287 114.94 395.267 114.864 395.228C114.788 395.188 114.72 395.131 114.666 395.06L113.819 393.991C113.745 393.882 113.705 393.749 113.705 393.612C113.705 393.476 113.745 393.343 113.819 393.234L114.572 391.722C114.621 391.627 114.691 391.548 114.775 391.491C114.859 391.434 114.955 391.402 115.053 391.397C115.151 391.391 115.249 391.414 115.338 391.461C115.426 391.509 115.503 391.581 115.56 391.669Z" fill="white"/>
<path opacity="0.7" d="M92.075 366.294C85.2777 368.993 83.3256 375.565 83.1844 389.27C86.7124 392.83 97.4258 393.026 97.4258 393.026C97.4258 393.026 99.2839 372.24 92.075 366.294Z" fill="white"/>
<path d="M163.188 470.887L175.113 473.065L180.84 474.108L182.51 467.549L177.335 465.802L164.682 461.538L163.188 470.887Z" fill="#EBB376"/>
<path d="M181.345 466.48L178.77 473.834C178.736 473.933 178.72 474.038 178.723 474.143C178.726 474.248 178.748 474.352 178.787 474.448C178.827 474.543 178.883 474.63 178.952 474.701C179.022 474.773 179.104 474.828 179.193 474.865L182.521 476.169C182.521 476.169 186.884 478.281 188.295 477.603C192.423 475.634 198.503 459.504 197.162 458.043C196.668 457.482 195.61 458.043 195.046 458.46C193.258 459.921 189.271 464.159 187.766 465.358C186.002 466.767 183.309 466.323 182.145 466.05C181.987 466.003 181.82 466.022 181.673 466.1C181.526 466.179 181.41 466.314 181.345 466.48Z" fill="#F27777"/>
<path opacity="0.2" d="M163.188 470.887L175.113 473.065L177.335 465.802L164.682 461.538L163.188 470.887Z" fill="black"/>
<path d="M175.277 464.433C175.277 464.433 126.661 434.128 109.868 434.988C93.0746 435.849 90.6756 452.253 97.5905 462.516C104.505 472.778 117.3 475.282 117.3 475.282C117.3 475.282 108.61 461.616 109.868 457.808C111.126 454.001 116.042 459.321 116.042 459.321C116.042 459.321 146.618 470.275 173.395 472.791L175.277 464.433Z" fill="#263238"/>
<path d="M176.065 463.598L173.313 461.551L169.773 473.587H174.019L176.065 463.598Z" fill="#F27777"/>
<path opacity="0.6" d="M176.065 463.598L173.313 461.551L169.773 473.587H174.019L176.065 463.598Z" fill="white"/>
</svg>
