<svg width="49" height="49" viewBox="0 0 49 49" fill="none" xmlns="http://www.w3.org/2000/svg">
<path d="M24.5 10.7227C27.5 7.72266 29.98 6.72266 33.5 6.72266C36.4174 6.72266 39.2153 7.88158 41.2782 9.94448C43.3411 12.0074 44.5 14.8053 44.5 17.7227C44.5 22.3027 41.48 25.8027 38.5 28.7227L24.5 42.7227L10.5 28.7227C7.5 25.8227 4.5 22.3227 4.5 17.7227C4.5 14.8053 5.65893 12.0074 7.72183 9.94448C9.78473 7.88158 12.5826 6.72266 15.5 6.72266C19.02 6.72266 21.5 7.72266 24.5 10.7227ZM24.5 10.7227L18.58 16.6427C18.1736 17.0461 17.8511 17.5259 17.631 18.0545C17.411 18.5831 17.2976 19.1501 17.2976 19.7227C17.2976 20.2953 17.411 20.8622 17.631 21.3908C17.8511 21.9194 18.1736 22.3992 18.58 22.8027C20.22 24.4427 22.84 24.5027 24.58 22.9427L28.72 19.1427C29.7577 18.201 31.1088 17.6794 32.51 17.6794C33.9112 17.6794 35.2623 18.201 36.3 19.1427L42.22 24.4627M36.5 30.7227L32.5 26.7227M30.5 36.7227L26.5 32.7227" stroke="#E53939" stroke-width="4" stroke-linecap="round" stroke-linejoin="round"/>
</svg>
