<svg width="49" height="48" viewBox="0 0 49 48" fill="none" xmlns="http://www.w3.org/2000/svg">
<path d="M10.5 32V26C10.5 25.4696 10.7107 24.9609 11.0858 24.5858C11.4609 24.2107 11.9696 24 12.5 24H36.5C37.0304 24 37.5391 24.2107 37.9142 24.5858C38.2893 24.9609 38.5 25.4696 38.5 26V32M24.5 24V16M34.5 32H42.5C43.6046 32 44.5 32.8954 44.5 34V42C44.5 43.1046 43.6046 44 42.5 44H34.5C33.3954 44 32.5 43.1046 32.5 42V34C32.5 32.8954 33.3954 32 34.5 32ZM6.5 32H14.5C15.6046 32 16.5 32.8954 16.5 34V42C16.5 43.1046 15.6046 44 14.5 44H6.5C5.39543 44 4.5 43.1046 4.5 42V34C4.5 32.8954 5.39543 32 6.5 32ZM20.5 4H28.5C29.6046 4 30.5 4.89543 30.5 6V14C30.5 15.1046 29.6046 16 28.5 16H20.5C19.3954 16 18.5 15.1046 18.5 14V6C18.5 4.89543 19.3954 4 20.5 4Z" stroke="#E53939" stroke-width="2" stroke-linecap="round" stroke-linejoin="round"/>
</svg>
