<svg width="49" height="49" viewBox="0 0 49 49" fill="none" xmlns="http://www.w3.org/2000/svg">
<path d="M14.5 42.0839H34.5M24.5 6.08392V42.0839M6.5 14.0839H10.5C14.5 14.0839 20.5 12.0839 24.5 10.0839C28.5 12.0839 34.5 14.0839 38.5 14.0839H42.5M32.5 32.0839L38.5 16.0839L44.5 32.0839C42.76 33.3839 40.66 34.0839 38.5 34.0839C36.34 34.0839 34.24 33.3839 32.5 32.0839ZM4.5 32.0839L10.5 16.0839L16.5 32.0839C14.76 33.3839 12.66 34.0839 10.5 34.0839C8.34 34.0839 6.24 33.3839 4.5 32.0839Z" stroke="#E53939" stroke-width="4" stroke-linecap="round" stroke-linejoin="round"/>
</svg>
