<svg width="236" height="272" viewBox="0 0 236 272" fill="none" xmlns="http://www.w3.org/2000/svg">
<path d="M58.0283 14.6671C56.6442 13.7664 55.4691 12.5594 54.5843 11.1333C53.7003 9.70617 53.1287 8.09472 52.9117 6.41266L52.0295 0.542861C52.0083 0.413542 51.943 0.296153 51.846 0.211774C51.749 0.127396 51.6263 0.0824482 51.5002 0.0842825C51.3731 0.0824482 51.2505 0.127396 51.1534 0.211774C51.0564 0.296153 50.9912 0.413542 50.9709 0.542861L50.0887 6.41266C49.854 8.08922 49.2753 9.69425 48.3923 11.1177C47.5101 12.542 46.343 13.7527 44.9721 14.6671L44.2663 15.1257C44.1816 15.1642 44.1102 15.2284 44.0625 15.3109C44.0149 15.3935 43.9937 15.4888 44.0016 15.5842C43.9937 15.6796 44.0149 15.7759 44.0625 15.8575C44.1102 15.9401 44.1816 16.0052 44.2663 16.0428L44.9721 16.5014C46.3386 17.4442 47.4995 18.6732 48.3808 20.1113C49.2621 21.5485 49.8434 23.1618 50.0887 24.8475L50.9709 30.6256C50.9912 30.7549 51.0564 30.8723 51.1534 30.9567C51.2505 31.0411 51.3731 31.086 51.5002 31.0842C51.6263 31.086 51.749 31.0411 51.846 30.9567C51.943 30.8723 52.0083 30.7549 52.0295 30.6256L52.9117 24.8475C53.1393 23.1572 53.7145 21.5366 54.5975 20.0967C55.4797 18.6567 56.6503 17.4305 58.0283 16.5014L58.734 16.0428C58.8187 16.0052 58.8893 15.9401 58.937 15.8575C58.9846 15.7759 59.0057 15.6796 58.9987 15.5842C59.0057 15.4888 58.9846 15.3935 58.937 15.3109C58.8893 15.2284 58.8187 15.1642 58.734 15.1257L58.0283 14.6671Z" fill="#E53939"/>
<path d="M219.949 221.047C219.642 220.853 219.382 220.593 219.186 220.287C218.991 219.981 218.864 219.636 218.817 219.276L218.628 218.069C218.628 218.039 218.616 218.01 218.595 217.989C218.574 217.968 218.545 217.956 218.515 217.956C218.485 217.956 218.456 217.968 218.435 217.989C218.414 218.01 218.402 218.039 218.402 218.069L218.213 219.276C218.165 219.636 218.039 219.981 217.843 220.287C217.648 220.593 217.388 220.853 217.081 221.047L216.892 221.161C216.855 221.161 216.855 221.236 216.855 221.274C216.853 221.294 216.855 221.315 216.862 221.334C216.868 221.354 216.878 221.372 216.892 221.387L217.081 221.462C217.38 221.666 217.634 221.928 217.828 222.232C218.023 222.537 218.154 222.878 218.213 223.234L218.402 224.478C218.402 224.508 218.414 224.537 218.435 224.558C218.456 224.579 218.485 224.591 218.515 224.591C218.545 224.591 218.574 224.579 218.595 224.558C218.616 224.537 218.628 224.508 218.628 224.478L218.817 223.234C218.876 222.878 219.007 222.537 219.201 222.232C219.396 221.928 219.65 221.666 219.949 221.462L220.138 221.387C220.151 221.372 220.161 221.354 220.168 221.334C220.175 221.315 220.177 221.294 220.175 221.274C220.175 221.236 220.175 221.161 220.138 221.161L219.949 221.047Z" fill="#E53939"/>
<path d="M235.873 269.416C235.716 269.323 235.582 269.197 235.477 269.048C235.373 268.898 235.302 268.728 235.269 268.549L235.194 267.908H235.08L234.967 268.549C234.941 268.726 234.876 268.895 234.779 269.044C234.681 269.194 234.552 269.321 234.401 269.416L234.326 269.492C234.316 269.492 234.306 269.496 234.299 269.503C234.292 269.51 234.288 269.519 234.288 269.529C234.288 269.539 234.292 269.549 234.299 269.556C234.306 269.563 234.316 269.567 234.326 269.567L234.401 269.642C234.552 269.738 234.681 269.865 234.779 270.014C234.876 270.164 234.941 270.333 234.967 270.509L235.08 271.15H235.194L235.269 270.509C235.302 270.33 235.373 270.16 235.477 270.011C235.582 269.861 235.716 269.736 235.873 269.642L235.948 269.567L235.873 269.416Z" fill="#E53939"/>
<path d="M4.56116 256.976C4.19815 256.731 3.89024 256.413 3.65666 256.043C3.42271 255.673 3.268 255.259 3.20272 254.827L2.97631 253.319C2.93857 253.243 2.90084 253.168 2.82537 253.168C2.78538 253.168 2.74689 253.184 2.71859 253.212C2.69029 253.24 2.67444 253.279 2.67444 253.319L2.44803 254.827C2.37558 255.262 2.21445 255.677 1.97408 256.047C1.73371 256.417 1.41976 256.733 1.05185 256.976L0.825456 257.089C0.787722 257.126 0.78772 257.164 0.78772 257.24C0.78772 257.277 0.787722 257.353 0.825456 257.353L1.05185 257.503C1.42316 257.743 1.73938 258.058 1.98013 258.429C2.2205 258.799 2.38011 259.216 2.44803 259.652L2.67444 261.16C2.67444 261.236 2.7499 261.273 2.82537 261.273C2.90084 261.273 2.93857 261.236 2.97631 261.16L3.20272 259.652C3.26347 259.218 3.4163 258.803 3.65063 258.432C3.88458 258.061 4.19513 257.745 4.56116 257.503L4.78757 257.353C4.8253 257.353 4.86303 257.277 4.86303 257.24C4.86303 257.211 4.85623 257.181 4.84302 257.155C4.82982 257.129 4.81096 257.106 4.78757 257.089L4.56116 256.976Z" fill="#E53939"/>
<path d="M72.7734 158.892C72.4104 158.647 72.1025 158.329 71.8689 157.959C71.635 157.59 71.4803 157.175 71.415 156.743L71.1886 155.235C71.1509 155.159 71.1131 155.084 71.0377 155.084C70.9977 155.084 70.9592 155.1 70.9309 155.128C70.9026 155.156 70.8867 155.195 70.8867 155.235L70.6603 156.743C70.5879 157.178 70.4267 157.593 70.1864 157.963C69.946 158.333 69.632 158.649 69.2641 158.892L69.0377 159.005C69 159.042 69 159.08 69 159.156C69 159.193 69 159.269 69.0377 159.269L69.2641 159.419C69.6354 159.659 69.9517 159.974 70.1924 160.345C70.4328 160.715 70.5924 161.132 70.6603 161.568L70.8867 163.076C70.8867 163.152 70.9622 163.189 71.0377 163.189C71.1131 163.189 71.1509 163.152 71.1886 163.076L71.415 161.568C71.4757 161.134 71.6286 160.719 71.8629 160.348C72.0969 159.977 72.4074 159.661 72.7734 159.419L72.9998 159.269C73.0376 159.269 73.0753 159.193 73.0753 159.156C73.0753 159.127 73.0685 159.097 73.0553 159.071C73.0421 159.045 73.0232 159.022 72.9998 159.005L72.7734 158.892Z" fill="#F27777"/>
</svg>
