<svg width="75" height="195" viewBox="0 0 75 195" fill="none" xmlns="http://www.w3.org/2000/svg">
<path d="M7.47609 7.10496C6.74772 6.66066 6.1293 6.07491 5.65929 5.38683C5.18929 4.69901 4.88144 3.9244 4.755 3.11534L4.31524 0.31742C4.29875 0.253431 4.26026 0.19618 4.20529 0.154211C4.15032 0.112243 4.08162 0.0876302 4.0129 0.0842623C3.94144 0.0832261 3.87273 0.106022 3.81501 0.148768C3.76004 0.191255 3.72431 0.251099 3.71057 0.31742L3.2708 3.11534C3.13887 3.92621 2.82551 4.70134 2.35276 5.38916C1.87725 6.07698 1.25335 6.66195 0.522235 7.10496L0.137428 7.33812C0.0961999 7.36506 0.0632238 7.39977 0.0412352 7.44019C0.0164981 7.48034 0.00274857 7.52516 0 7.57127C0 7.61791 0.0137469 7.66325 0.038484 7.70392C0.0604725 7.74459 0.0961999 7.77905 0.137428 7.80444L0.522235 8.03759C1.2561 8.48604 1.88 9.07568 2.35276 9.76764C2.82551 10.4599 3.13887 11.2389 3.2708 12.0531L3.71057 14.851C3.72431 14.9174 3.76004 14.9772 3.81501 15.0199C3.87273 15.0624 3.94144 15.0852 4.0129 15.0842C4.08162 15.0808 4.15032 15.0562 4.20529 15.0145C4.26026 14.9725 4.29875 14.9153 4.31524 14.851L4.755 12.0531C4.88144 11.2404 5.18929 10.4622 5.65929 9.76997C6.12655 9.07774 6.74772 8.48733 7.47609 8.03759L7.88838 7.80444C7.92686 7.77775 7.95711 7.74252 7.97635 7.70159C7.99559 7.66065 8.00382 7.61583 7.99833 7.57127C8.00108 7.52697 7.99284 7.48293 7.9736 7.44252C7.95436 7.40211 7.92411 7.36635 7.88838 7.33812L7.47609 7.10496Z" fill="#E53939"/>
<path d="M74.0055 184.69C73.1943 184.165 72.5075 183.472 71.9868 182.66C71.4661 181.847 71.1264 180.933 70.9868 179.978L70.4585 176.698C70.4585 176.618 70.4284 176.541 70.3718 176.485C70.3152 176.428 70.2359 176.396 70.1567 176.396C70.0736 176.396 69.9906 176.427 69.9302 176.482C69.8661 176.538 69.8246 176.615 69.8171 176.698L69.3265 179.978C69.1794 180.935 68.8322 181.85 68.3077 182.663C67.7794 183.475 67.0851 184.166 66.27 184.69L65.855 184.954C65.8135 184.986 65.7757 185.025 65.7531 185.07C65.7267 185.116 65.7078 185.166 65.704 185.218C65.704 185.272 65.7153 185.324 65.7455 185.371C65.7719 185.417 65.8097 185.455 65.855 185.482L66.27 185.746C67.0813 186.273 67.7719 186.966 68.3002 187.778C68.8247 188.589 69.1756 189.503 69.3265 190.458L69.8171 193.738C69.8246 193.822 69.8661 193.899 69.9302 193.954C69.9906 194.01 70.0736 194.041 70.1567 194.04C70.2359 194.04 70.3152 194.008 70.3718 193.952C70.4284 193.895 70.4585 193.818 70.4585 193.738L70.9868 190.458C71.1302 189.505 71.4736 188.593 71.9944 187.781C72.5151 186.969 73.198 186.276 74.0055 185.746L74.4207 185.482C74.4697 185.459 74.5112 185.421 74.5377 185.374C74.5641 185.327 74.5753 185.272 74.5716 185.218C74.5716 185.165 74.5565 185.112 74.5301 185.066C74.5037 185.02 74.4659 184.981 74.4207 184.954L74.0055 184.69Z" fill="#E53939"/>
</svg>
