<svg width="666" height="497" viewBox="0 0 666 497" fill="none" xmlns="http://www.w3.org/2000/svg">
<path d="M665.5 436.19H0.5V436.522H665.5V436.19Z" fill="#EBEBEB"/>
<path d="M598.867 457.589H554.817V457.922H598.867V457.589Z" fill="#EBEBEB"/>
<path d="M441.023 461.207H429.465V461.539H441.023V461.207Z" fill="#EBEBEB"/>
<path d="M553.487 445.247H527.965V445.579H553.487V445.247Z" fill="#EBEBEB"/>
<path d="M127.714 447.481H70.2717V447.814H127.714V447.481Z" fill="#EBEBEB"/>
<path d="M147.984 447.481H139.565V447.814H147.984V447.481Z" fill="#EBEBEB"/>
<path d="M299.95 453.094H175.355V453.426H299.95V453.094Z" fill="#EBEBEB"/>
<path d="M315.71 376.871H58.9003C56.8885 376.868 54.9603 376.066 53.539 374.642C52.1176 373.219 51.3193 371.289 51.3193 369.277V8.27536C51.3368 6.27507 52.1429 4.36247 53.5623 2.95299C54.9817 1.54351 56.9 0.750985 58.9003 0.747559H315.71C317.724 0.747559 319.656 1.54767 321.08 2.97188C322.504 4.39608 323.304 6.32772 323.304 8.34186V369.277C323.304 371.291 322.504 373.223 321.08 374.647C319.656 376.071 317.724 376.871 315.71 376.871ZM58.9003 1.01356C56.9767 1.01708 55.133 1.78372 53.7741 3.14518C52.4151 4.50665 51.6518 6.35171 51.6518 8.27536V369.277C51.6518 371.201 52.4151 373.046 53.7741 374.407C55.133 375.769 56.9767 376.535 58.9003 376.539H315.71C317.635 376.535 319.48 375.769 320.841 374.408C322.202 373.047 322.968 371.202 322.972 369.277V8.27536C322.968 6.35049 322.202 4.50546 320.841 3.14437C319.48 1.78328 317.635 1.01708 315.71 1.01356H58.9003Z" fill="#EBEBEB"/>
<path d="M603.402 376.871H346.579C344.566 376.868 342.637 376.067 341.213 374.643C339.79 373.22 338.988 371.29 338.985 369.277V8.27536C339.006 6.27386 339.815 4.36127 341.236 2.95216C342.658 1.54304 344.578 0.750948 346.579 0.747559H603.402C605.4 0.754481 607.315 1.54855 608.732 2.95766C610.148 4.36676 610.952 6.27737 610.97 8.27536V369.277C610.97 371.287 610.173 373.214 608.755 374.638C607.337 376.061 605.412 376.864 603.402 376.871ZM346.579 1.01356C344.654 1.01708 342.809 1.78328 341.448 3.14437C340.087 4.50546 339.321 6.35049 339.317 8.27536V369.277C339.321 371.202 340.087 373.047 341.448 374.408C342.809 375.769 344.654 376.535 346.579 376.539H603.402C605.327 376.535 607.172 375.769 608.533 374.408C609.894 373.047 610.66 371.202 610.664 369.277V8.27536C610.66 6.35049 609.894 4.50546 608.533 3.14437C607.172 1.78328 605.327 1.01708 603.402 1.01356H346.579Z" fill="#EBEBEB"/>
<path d="M590.461 434.128V368.546H560.191V307.725H555.921V342.584H544.284V332.942H523.323V299.559H519.439V258.768H516.34V298.814H508.959V358.158H494.994V298.814H469.764V349.008H443.284V288.174H439.014V323.033H427.377V313.391H406.416V280.021H402.532V239.217H399.433V279.276H392.052V338.621H378.087V279.276H352.857V336.679H335.846V303.296H331.963V262.505H328.864V302.551H321.495V361.896H307.517V302.551H282.3V361.896H269.878V368.546H248.119V307.725H243.85V342.584H232.213V332.942H211.252V299.559H207.368V258.768H204.269V298.814H197.5V295.476H172.269V298.814H158.304V295.476H150.923V255.416H147.824V296.22H143.94V329.603H122.98V339.246H111.342V304.373H107.073V365.207H76.802V434.128H590.461Z" fill="#EBEBEB"/>
<path d="M200.355 128.947C219.214 121.135 228.17 99.5146 220.358 80.6556C212.546 61.7966 190.926 52.841 172.067 60.6526C153.208 68.4643 144.252 90.0851 152.064 108.944C159.875 127.803 181.496 136.759 200.355 128.947Z" fill="#FAFAFA"/>
<path d="M167.029 94.3795C167.029 92.6758 166.353 91.0419 165.148 89.8372C163.943 88.6324 162.309 87.9556 160.605 87.9556C159.979 87.9598 159.356 88.0538 158.757 88.2349C158.853 87.5787 158.902 86.9165 158.903 86.2532C158.9 82.647 157.465 79.1897 154.913 76.641C152.362 74.0923 148.903 72.6606 145.297 72.6606C144.459 72.6615 143.622 72.7372 142.797 72.8867C141.457 70.6808 139.436 68.9708 137.038 68.0149C134.641 67.0591 131.997 66.9092 129.507 67.5881C127.017 68.2669 124.815 69.7376 123.235 71.778C121.654 73.8183 120.78 76.3176 120.745 78.8983H120.546C117.639 78.8983 114.852 80.053 112.797 82.1082C110.741 84.1635 109.587 86.951 109.587 89.8575C109.587 92.7641 110.741 95.5516 112.797 97.6069C114.852 99.6621 117.639 100.817 120.546 100.817H160.792C162.465 100.768 164.054 100.068 165.219 98.8659C166.384 97.6635 167.034 96.0538 167.029 94.3795Z" fill="#F0F0F0"/>
<path d="M571.735 183.396C571.735 182.553 571.569 181.717 571.246 180.938C570.923 180.159 570.45 179.451 569.853 178.854C569.257 178.257 568.549 177.784 567.769 177.461C566.99 177.139 566.155 176.972 565.311 176.972C564.685 176.972 564.063 177.062 563.462 177.238C563.747 175.306 563.612 173.336 563.066 171.461C562.52 169.586 561.576 167.85 560.299 166.373C559.021 164.896 557.44 163.712 555.663 162.902C553.886 162.091 551.956 161.674 550.003 161.677C549.163 161.676 548.326 161.756 547.502 161.917C546.162 159.711 544.141 158.001 541.743 157.045C539.346 156.089 536.703 155.939 534.213 156.618C531.722 157.297 529.521 158.768 527.94 160.808C526.36 162.848 525.486 165.348 525.451 167.928H525.251C522.345 167.928 519.557 169.083 517.502 171.138C515.447 173.194 514.292 175.981 514.292 178.888C514.292 181.794 515.447 184.582 517.502 186.637C519.557 188.692 522.345 189.847 525.251 189.847H565.497C567.174 189.802 568.767 189.101 569.933 187.895C571.099 186.689 571.746 185.074 571.735 183.396Z" fill="#F0F0F0"/>
<path d="M381.452 85.8675C381.456 83.1714 382.529 80.5869 384.437 78.6817C386.345 76.7765 388.93 75.7063 391.627 75.7063C392.613 75.704 393.595 75.8474 394.539 76.1319C394.39 75.0968 394.314 74.0523 394.313 73.0065C394.317 67.3002 396.585 61.8287 400.62 57.7938C404.655 53.7589 410.126 51.4906 415.833 51.4871C417.171 51.4883 418.507 51.613 419.823 51.8594C421.94 48.3665 425.138 45.6581 428.931 44.1437C432.725 42.6293 436.909 42.3912 440.85 43.4655C444.791 44.5398 448.275 46.8679 450.775 50.098C453.275 53.3281 454.656 57.2845 454.708 61.369H455.014C459.612 61.369 464.022 63.1955 467.273 66.4467C470.524 69.6979 472.351 74.1076 472.351 78.7055C472.351 83.3034 470.524 87.7131 467.273 90.9643C464.022 94.2155 459.612 96.042 455.014 96.042H391.334C388.684 95.9726 386.167 94.8692 384.32 92.9678C382.474 91.0665 381.444 88.5181 381.452 85.8675Z" fill="#F0F0F0"/>
<path d="M193.616 196.51C193.616 194.609 194.06 192.733 194.913 191.033C195.765 189.334 197.002 187.856 198.526 186.718C200.05 185.581 201.818 184.814 203.69 184.48C205.562 184.146 207.487 184.253 209.31 184.793C209.129 183.551 209.036 182.298 209.031 181.042C209.025 177.234 209.86 173.471 211.476 170.023C213.093 166.575 215.451 163.526 218.382 161.094C221.313 158.662 224.745 156.908 228.432 155.956C232.12 155.003 235.972 154.877 239.714 155.586C242.254 151.371 246.099 148.1 250.667 146.269C255.235 144.438 260.276 144.147 265.024 145.441C269.772 146.735 273.969 149.542 276.976 153.438C279.984 157.333 281.638 162.103 281.689 167.024H282.074C287.609 167.024 292.916 169.223 296.83 173.136C300.743 177.05 302.942 182.357 302.942 187.892C302.942 193.426 300.743 198.734 296.83 202.648C292.916 206.561 287.609 208.76 282.074 208.76H205.493C202.306 208.673 199.279 207.343 197.06 205.054C194.84 202.765 193.604 199.699 193.616 196.51Z" fill="#F0F0F0"/>
<path d="M247.641 113.625C247.637 113.009 247.492 112.403 247.215 111.853C246.939 111.304 246.539 110.825 246.047 110.456C245.555 110.086 244.985 109.835 244.38 109.723C243.775 109.61 243.152 109.639 242.56 109.808C242.613 109.402 242.64 108.993 242.64 108.584C242.641 107.473 242.424 106.372 241.999 105.345C241.575 104.318 240.952 103.385 240.166 102.599C239.38 101.813 238.447 101.19 237.42 100.765C236.393 100.341 235.292 100.123 234.181 100.125C233.659 100.126 233.138 100.175 232.625 100.271C231.795 98.8972 230.539 97.8312 229.048 97.2349C227.558 96.6387 225.913 96.5447 224.364 96.9673C222.815 97.3899 221.446 98.3059 220.465 99.5766C219.484 100.847 218.943 102.403 218.926 104.009H218.793C217.037 104.086 215.379 104.838 214.164 106.108C212.949 107.378 212.271 109.068 212.271 110.825C212.271 112.582 212.949 114.272 214.164 115.542C215.379 116.812 217.037 117.564 218.793 117.641H243.757C244.801 117.613 245.793 117.177 246.519 116.426C247.245 115.675 247.648 114.669 247.641 113.625Z" fill="#F0F0F0"/>
<path d="M102.165 234.921C102.165 234.298 102.311 233.684 102.592 233.127C102.872 232.571 103.278 232.088 103.778 231.717C104.279 231.346 104.859 231.097 105.472 230.991C106.086 230.884 106.716 230.923 107.312 231.104C107.254 230.694 107.223 230.281 107.219 229.867C107.219 228.756 107.438 227.657 107.863 226.632C108.289 225.606 108.912 224.674 109.697 223.89C110.483 223.106 111.416 222.484 112.442 222.06C113.468 221.637 114.568 221.419 115.678 221.421C116.2 221.416 116.722 221.465 117.234 221.567C118.068 220.197 119.325 219.134 120.815 218.54C122.306 217.946 123.949 217.853 125.497 218.275C127.045 218.697 128.414 219.611 129.397 220.879C130.38 222.147 130.924 223.7 130.946 225.305H131.066C131.986 225.264 132.906 225.41 133.768 225.734C134.63 226.059 135.418 226.554 136.084 227.191C136.75 227.828 137.28 228.593 137.642 229.441C138.003 230.288 138.19 231.2 138.19 232.121C138.19 233.042 138.003 233.954 137.642 234.801C137.28 235.649 136.75 236.414 136.084 237.051C135.418 237.688 134.63 238.183 133.768 238.508C132.906 238.832 131.986 238.978 131.066 238.937H106.049C105.004 238.909 104.013 238.473 103.287 237.722C102.56 236.971 102.158 235.965 102.165 234.921Z" fill="#F0F0F0"/>
<path d="M476.547 247.955C476.547 246.896 476.967 245.882 477.715 245.133C478.464 244.385 479.479 243.965 480.537 243.965C480.925 243.96 481.311 244.019 481.681 244.138C481.622 243.728 481.591 243.315 481.587 242.901C481.587 241.791 481.806 240.691 482.232 239.666C482.657 238.64 483.28 237.709 484.066 236.924C484.851 236.14 485.784 235.518 486.81 235.094C487.836 234.671 488.936 234.453 490.046 234.455C490.568 234.452 491.089 234.497 491.602 234.588C492.436 233.217 493.693 232.155 495.183 231.561C496.674 230.967 498.317 230.874 499.865 231.296C501.413 231.718 502.782 232.632 503.765 233.9C504.748 235.168 505.292 236.721 505.315 238.326H505.434C507.19 238.403 508.848 239.155 510.063 240.425C511.278 241.695 511.956 243.384 511.956 245.142C511.956 246.899 511.278 248.589 510.063 249.859C508.848 251.128 507.19 251.88 505.434 251.958H480.43C479.388 251.93 478.399 251.496 477.673 250.748C476.947 249.999 476.543 248.997 476.547 247.955Z" fill="#F0F0F0"/>
<path d="M519.905 88.195L463.034 174.778L460.534 178.582L455.586 180.883L279.6 262.664L296.997 322.222L300.973 335.841L287.181 347.226L168.452 435.99H70.2185L247.84 315.093L237.08 256.507L234.154 240.56L247.907 234.229L435.476 147.872L496.563 72.3148L480.164 69.0696L531.675 47.6965L529.042 103.41L519.905 88.195Z" fill="#E0E0E0"/>
<path d="M333 496.252C475.42 496.252 590.874 489.512 590.874 481.197C590.874 472.882 475.42 466.141 333 466.141C190.58 466.141 75.1263 472.882 75.1263 481.197C75.1263 489.512 190.58 496.252 333 496.252Z" fill="#F5F5F5"/>
<path d="M388.501 302.751L378.34 304.4L382.17 327.941L325.911 361.869L261.805 347.518L257.975 323.977L247.8 325.627L252.934 357.134L329.968 388.363L330.008 388.669L330.234 388.469L330.513 388.589L330.46 388.283L393.621 334.258L388.501 302.751Z" fill="#263238"/>
<path opacity="0.2" d="M388.501 302.751L378.34 304.4L382.17 327.941L325.911 361.869L261.805 347.518L257.975 323.977L247.8 325.627L252.934 357.134L329.968 388.363L330.008 388.669L330.234 388.469L330.513 388.589L330.46 388.283L393.621 334.258L388.501 302.751Z" fill="white"/>
<path d="M398.822 309.653L368.511 309.693L350.968 300.077L416.338 299.984L398.822 309.653Z" fill="#263238"/>
<path d="M421.804 301.554L345.515 301.66C344.933 301.66 344.375 301.429 343.964 301.017C343.552 300.606 343.321 300.048 343.321 299.466C343.335 298.896 343.571 298.355 343.978 297.958C344.386 297.56 344.933 297.337 345.502 297.338L421.791 297.231C422.373 297.235 422.931 297.467 423.344 297.877C423.757 298.287 423.992 298.844 423.999 299.426C423.981 299.996 423.743 300.537 423.333 300.935C422.923 301.332 422.375 301.554 421.804 301.554Z" fill="#263238"/>
<path d="M237.466 331.013L267.79 330.96L285.293 321.291L219.923 321.397L237.466 331.013Z" fill="#263238"/>
<path d="M214.47 322.98L290.759 322.86C291.34 322.857 291.896 322.624 292.307 322.214C292.718 321.803 292.95 321.247 292.954 320.666C292.954 320.084 292.723 319.526 292.311 319.114C291.899 318.702 291.341 318.471 290.759 318.471L214.457 318.604C214.17 318.604 213.885 318.661 213.619 318.772C213.354 318.882 213.113 319.044 212.91 319.248C212.707 319.452 212.547 319.694 212.438 319.96C212.329 320.226 212.274 320.511 212.276 320.799C212.276 321.086 212.333 321.371 212.443 321.637C212.554 321.902 212.716 322.143 212.919 322.346C213.123 322.549 213.365 322.709 213.632 322.818C213.898 322.927 214.183 322.982 214.47 322.98Z" fill="#263238"/>
<path d="M344.691 457.775H310.31V371.631C310.314 367.073 312.127 362.702 315.352 359.48C318.576 356.258 322.948 354.448 327.507 354.448C332.064 354.448 336.435 356.258 339.658 359.481C342.88 362.703 344.691 367.074 344.691 371.631V457.775Z" fill="#263238"/>
<path opacity="0.3" d="M344.691 457.775H310.31V371.631C310.314 367.073 312.127 362.702 315.352 359.48C318.576 356.258 322.948 354.448 327.507 354.448C332.064 354.448 336.435 356.258 339.658 359.481C342.88 362.703 344.691 367.074 344.691 371.631V457.775Z" fill="white"/>
<path d="M362.925 474.387H292.076L304.285 451.458H350.715L362.925 474.387Z" fill="#263238"/>
<path opacity="0.2" d="M362.925 474.387H292.076L304.285 451.458H350.715L362.925 474.387Z" fill="white"/>
<path d="M284.109 471.714H370.905C372.598 471.714 374.222 472.387 375.419 473.584C376.617 474.781 377.289 476.405 377.289 478.098V484.455H277.725V478.098C277.725 476.405 278.398 474.781 279.595 473.584C280.792 472.387 282.416 471.714 284.109 471.714Z" fill="#263238"/>
<path d="M327.507 379.625C330.923 379.625 333.692 376.856 333.692 373.44C333.692 370.025 330.923 367.256 327.507 367.256C324.091 367.256 321.323 370.025 321.323 373.44C321.323 376.856 324.091 379.625 327.507 379.625Z" fill="#263238"/>
<path d="M432.87 47.0449H471.081C474.199 47.0449 477.189 48.2836 479.394 50.4885C481.599 52.6934 482.838 55.6839 482.838 58.8021V92.0521C482.84 93.5972 482.537 95.1275 481.947 96.5555C481.357 97.9835 480.491 99.2812 479.399 100.374C478.307 101.467 477.01 102.335 475.583 102.926C474.156 103.518 472.626 103.823 471.081 103.823H455.959L451.969 114.316L447.979 103.823H432.87C429.748 103.823 426.754 102.583 424.547 100.375C422.339 98.1677 421.099 95.1739 421.099 92.0521V58.8021C421.099 57.257 421.404 55.7271 421.995 54.2998C422.587 52.8725 423.454 51.5758 424.548 50.4838C425.641 49.3919 426.938 48.5261 428.366 47.9361C429.794 47.346 431.325 47.0432 432.87 47.0449Z" fill="#F27777"/>
<path opacity="0.7" d="M432.87 47.0449H471.081C474.199 47.0449 477.189 48.2836 479.394 50.4885C481.599 52.6934 482.838 55.6839 482.838 58.8021V92.0521C482.84 93.5972 482.537 95.1275 481.947 96.5555C481.357 97.9835 480.491 99.2812 479.399 100.374C478.307 101.467 477.01 102.335 475.583 102.926C474.156 103.518 472.626 103.823 471.081 103.823H455.959L451.969 114.316L447.979 103.823H432.87C429.748 103.823 426.754 102.583 424.547 100.375C422.339 98.1677 421.099 95.1739 421.099 92.0521V58.8021C421.099 57.257 421.404 55.7271 421.995 54.2998C422.587 52.8725 423.454 51.5758 424.548 50.4838C425.641 49.3919 426.938 48.5261 428.366 47.9361C429.794 47.346 431.325 47.0432 432.87 47.0449Z" fill="white"/>
<path d="M451.969 68.6973C444.295 60.7173 435.69 64.0024 435.69 71.7696C435.69 79.5368 451.969 90.2965 451.969 90.2965C451.969 90.2965 468.248 79.5501 468.248 71.7696C468.248 63.9891 459.643 60.7173 451.969 68.6973Z" fill="#F27777"/>
<path d="M197.872 83.8992H159.661C158.116 83.8974 156.586 84.2003 155.158 84.7903C153.73 85.3804 152.432 86.2461 151.339 87.3381C150.246 88.43 149.379 89.7267 148.787 91.154C148.195 92.5813 147.891 94.1113 147.891 95.6564V128.906C147.891 132.028 149.131 135.022 151.338 137.229C153.546 139.437 156.539 140.677 159.661 140.677H174.73L178.72 151.171L182.71 140.677H197.872C199.417 140.677 200.947 140.372 202.374 139.781C203.802 139.189 205.098 138.322 206.19 137.229C207.282 136.135 208.148 134.838 208.738 133.41C209.328 131.982 209.631 130.451 209.629 128.906V95.6564C209.629 94.1124 209.325 92.5835 208.734 91.1571C208.143 89.7307 207.277 88.4345 206.186 87.3428C205.094 86.251 203.798 85.385 202.371 84.7941C200.945 84.2033 199.416 83.8992 197.872 83.8992Z" fill="#F27777"/>
<path opacity="0.7" d="M197.872 83.8992H159.661C158.116 83.8974 156.586 84.2003 155.158 84.7903C153.73 85.3804 152.432 86.2461 151.339 87.3381C150.246 88.43 149.379 89.7267 148.787 91.154C148.195 92.5813 147.891 94.1113 147.891 95.6564V128.906C147.891 132.028 149.131 135.022 151.338 137.229C153.546 139.437 156.539 140.677 159.661 140.677H174.73L178.72 151.171L182.71 140.677H197.872C199.417 140.677 200.947 140.372 202.374 139.781C203.802 139.189 205.098 138.322 206.19 137.229C207.282 136.135 208.148 134.838 208.738 133.41C209.328 131.982 209.631 130.451 209.629 128.906V95.6564C209.629 94.1124 209.325 92.5835 208.734 91.1571C208.143 89.7307 207.277 88.4345 206.186 87.3428C205.094 86.251 203.798 85.385 202.371 84.7941C200.945 84.2033 199.416 83.8992 197.872 83.8992Z" fill="white"/>
<path d="M176.778 120.607C176.525 120.608 176.275 120.553 176.046 120.448C175.816 120.342 175.612 120.188 175.448 119.995L168 111.231C167.7 110.878 167.553 110.42 167.59 109.959C167.628 109.498 167.847 109.07 168.2 108.77C168.552 108.47 169.01 108.323 169.471 108.36C169.933 108.398 170.36 108.617 170.66 108.97L176.778 116.178L186.873 104.288C187.018 104.104 187.198 103.951 187.403 103.839C187.608 103.726 187.833 103.656 188.066 103.632C188.299 103.609 188.534 103.632 188.757 103.701C188.981 103.77 189.188 103.884 189.366 104.035C189.545 104.186 189.692 104.371 189.797 104.58C189.903 104.789 189.965 105.017 189.98 105.25C189.996 105.483 189.964 105.717 189.887 105.938C189.811 106.159 189.69 106.362 189.533 106.536L178.121 119.995C177.955 120.188 177.749 120.342 177.517 120.448C177.285 120.554 177.033 120.608 176.778 120.607Z" fill="white"/>
<path d="M192.163 125.556C199.57 118.149 199.57 106.141 192.163 98.7342C184.757 91.3276 172.748 91.3276 165.342 98.7342C157.935 106.141 157.935 118.149 165.342 125.556C172.748 132.962 184.757 132.962 192.163 125.556Z" fill="#F27777"/>
<path d="M404.314 223.682L404.82 217.538L397.398 211.739C396.856 211.314 396.186 211.085 395.497 211.087H390.549C389.825 211.09 389.125 211.346 388.569 211.809C388.013 212.273 387.636 212.916 387.503 213.627L386.519 219.12C386.381 219.877 386.531 220.658 386.94 221.31C387.348 221.962 387.986 222.438 388.727 222.645L393.369 223.975C393.505 224.013 393.638 224.062 393.768 224.121C394.911 224.56 401.987 227.499 404.314 223.682Z" fill="#E4897B"/>
<path d="M416.55 224.055L402.2 215.729L399.939 223.988L413.186 232.247L416.55 224.055Z" fill="#E4897B"/>
<path d="M445.917 194.928C448.018 200.633 445.185 243.393 436.048 248.952C429.89 252.716 404.793 228.51 404.793 228.51L405.697 217.484L426.884 230.066C428.214 206.685 426.884 190.911 434.239 187.307L445.917 194.928Z" fill="#263238"/>
<path opacity="0.3" d="M445.172 222.193C443.736 233.032 441.182 243.818 437.338 247.848C436.946 248.262 436.498 248.62 436.008 248.912C435.46 249.164 434.866 249.302 434.262 249.318C433.659 249.334 433.058 249.228 432.497 249.005C423.44 246.465 404.82 228.47 404.82 228.47L405.724 217.444L426.911 230.026C428.241 206.645 426.911 190.871 434.266 187.267L445.917 194.928C446.981 197.76 446.781 210.01 445.172 222.193Z" fill="white"/>
<path opacity="0.2" d="M445.172 222.193C443.736 233.032 441.182 243.818 437.338 247.848C434.268 233.846 434.078 219.366 436.78 205.288L445.172 222.193Z" fill="black"/>
<path d="M516.726 295.223C516.726 295.223 483.476 280.593 446.236 294.451C446.236 294.451 436.567 215.596 436.806 204.703C437.046 193.81 494.768 194.369 494.768 194.369C494.768 194.369 497.681 225.97 502.256 244.909C506.831 263.848 518.469 291.459 516.726 295.223Z" fill="#263238"/>
<path d="M429.904 472.672L441.461 472.366C441.67 472.362 441.873 472.428 442.04 472.553C442.206 472.678 442.326 472.856 442.379 473.057L444.813 482.367C444.872 482.592 444.878 482.827 444.832 483.055C444.787 483.283 444.689 483.497 444.548 483.681C444.407 483.866 444.226 484.016 444.019 484.12C443.811 484.224 443.582 484.28 443.35 484.282C439.187 484.282 433.149 484.282 427.909 484.389C421.791 484.548 417.894 484.243 410.699 484.389C406.363 484.509 404.993 480.159 406.802 479.721C415.008 477.699 420.381 478.098 427.377 473.509C428.127 473.005 429.001 472.715 429.904 472.672Z" fill="#263238"/>
<path d="M488.703 472.672L500.261 472.366C500.469 472.362 500.673 472.428 500.839 472.553C501.005 472.678 501.125 472.856 501.178 473.057L503.612 482.367C503.673 482.591 503.682 482.826 503.638 483.054C503.594 483.282 503.499 483.496 503.358 483.681C503.218 483.866 503.038 484.017 502.83 484.121C502.623 484.225 502.395 484.28 502.163 484.282C497.986 484.282 491.948 484.282 486.708 484.389C480.59 484.548 476.693 484.243 469.511 484.389C465.162 484.509 463.792 480.159 465.601 479.721C473.82 477.699 479.18 478.098 486.176 473.509C486.927 473.007 487.8 472.717 488.703 472.672Z" fill="#263238"/>
<path d="M507.23 260.896C512.789 284.995 503.24 474.547 503.24 474.547H484.766L476.879 316.583L447.845 474.547L428.148 473.11C441.023 350.75 452.421 277.693 452.421 277.693V268.383L507.23 260.896Z" fill="#263238"/>
<path opacity="0.2" d="M428.148 473.11L447.859 474.547L470.695 350.192L476.879 316.583L484.766 474.547H503.24C503.24 474.547 512.789 284.995 507.23 260.909L452.434 268.45V277.76C452.434 277.76 441.036 350.737 428.148 473.11Z" fill="white"/>
<path d="M499.409 232.513C499.729 234.043 500.048 235.532 500.367 236.969L500.886 239.243C501.258 240.826 501.617 242.382 501.976 243.858C502.162 244.603 502.335 245.348 502.522 246.066C504.636 254.751 506.392 261.055 506.804 263.848L452.421 273.876C449.92 267.785 447.779 261.906 445.943 256.427C445.717 255.762 445.491 255.097 445.292 254.432C444.826 253.035 444.401 251.665 443.962 250.309C443.749 249.617 443.549 248.979 443.337 248.234C442.938 246.904 442.552 245.574 442.193 244.244C441.993 243.512 441.794 242.794 441.621 242.076C432.191 206.578 435.955 186.216 435.955 186.216C439.971 184.349 444.098 182.727 448.311 181.362C449.189 181.056 450.106 180.803 450.971 180.524C458.593 178.663 466.315 177.242 474.1 176.268C475.576 176.068 477.065 175.909 478.542 175.776H478.755C480.518 175.623 482.294 175.828 483.977 176.377C485.66 176.926 487.215 177.808 488.549 178.971C489.883 180.134 490.97 181.554 491.743 183.146C492.517 184.738 492.962 186.47 493.052 188.238C493.464 195.593 494.236 202.868 495.207 209.691C496.231 217.006 497.494 223.948 498.824 230.266C498.931 230.851 499.05 231.423 499.17 231.981L499.409 232.513Z" fill="#F27777"/>
<path d="M464.963 150.506C465.069 158.366 466.426 172.437 472.384 175.988C472.384 175.988 460.015 186.549 456.424 186.628C453.897 186.628 450.386 182.333 450.386 182.333C457.887 178.077 456.437 171.959 453.91 166.559L464.963 150.506Z" fill="#E4897B"/>
<path opacity="0.2" d="M460.454 157.049L453.897 166.545C454.514 167.829 455.017 169.164 455.4 170.535C458.326 169.205 461.77 164.524 461.425 161.092C461.346 159.697 461.017 158.328 460.454 157.049Z" fill="black"/>
<path d="M456.357 186.642C456.357 186.642 459.536 189.302 463.167 191.815C467.237 188.823 476.653 181.082 475.217 175.603C474.339 174.086 469.897 173.767 469.897 173.767C469.897 173.767 466.319 180.524 456.357 186.642Z" fill="#F27777"/>
<path d="M456.357 186.642C454.452 188.766 452.862 191.153 451.636 193.731C448.005 192.148 447.952 181.535 448.976 180.191C450.537 178.94 452.39 178.107 454.362 177.771C453.946 179.3 453.909 180.908 454.257 182.454C454.605 184 455.326 185.438 456.357 186.642Z" fill="#F27777"/>
<g opacity="0.5">
<path d="M456.357 186.642C456.357 186.642 459.536 189.302 463.167 191.815C467.237 188.823 476.653 181.082 475.217 175.603C474.339 174.086 469.897 173.767 469.897 173.767C469.897 173.767 466.319 180.524 456.357 186.642Z" fill="white"/>
<path d="M456.357 186.642C454.452 188.766 452.861 191.153 451.636 193.731C448.005 192.148 447.952 181.534 448.976 180.191C450.536 178.94 452.39 178.107 454.362 177.771C453.945 179.3 453.909 180.908 454.257 182.454C454.605 184 455.326 185.438 456.357 186.642Z" fill="white"/>
</g>
<path d="M519.812 297.205C519.08 299.146 515.024 299.745 515.024 299.745C516.553 288.639 512.749 279.795 509.704 273.969C502.109 259.712 480.803 243.645 472.756 222.964C472.397 222.073 472.078 221.182 471.785 220.304C463.114 193.704 473.966 174.419 473.966 174.419C475.429 174.605 476.853 174.805 478.196 175.031C479.22 175.19 480.204 175.377 481.149 175.549C486.247 176.44 491.258 177.775 496.124 179.539C496.124 179.539 499.835 225.145 503.612 245.72C507.389 266.295 520.53 295.276 519.812 297.205Z" fill="#263238"/>
<path opacity="0.3" d="M519.812 297.205C519.08 299.146 515.024 299.745 515.024 299.745C516.553 288.639 512.749 279.795 509.704 273.969C504.703 264.593 493.744 254.418 484.593 242.675C479.883 236.917 476.001 230.529 473.062 223.695C472.942 223.456 472.849 223.203 472.756 222.964C472.397 222.073 472.078 221.182 471.785 220.304C463.114 193.704 473.966 174.419 473.966 174.419C475.429 174.605 476.853 174.805 478.196 175.031C479.22 175.19 480.204 175.377 481.149 175.549C486.247 176.44 491.258 177.775 496.124 179.539C496.124 179.539 497.015 190.392 498.345 203.905C498.851 208.919 499.409 214.306 500.021 219.639C501.125 229.361 502.362 238.911 503.612 245.72C507.363 266.255 520.53 295.276 519.812 297.205Z" fill="white"/>
<path opacity="0.2" d="M475.975 196.657C475.975 196.657 472.171 210.768 472.703 222.964C472.344 222.073 472.025 221.182 471.732 220.304C463.06 193.704 473.913 174.419 473.913 174.419C475.376 174.605 476.799 174.805 478.143 175.031L479.366 190.007L471.014 191.842L475.975 196.657Z" fill="black"/>
<path d="M446.05 297.258L448.071 298.588C445.155 275.162 443.521 251.595 443.177 227.991C443.177 226.036 443.177 224.161 443.177 222.365C443.097 188.145 448.111 181.681 448.497 181.295L443.39 183.21L434.545 186.708C433.269 215.981 446.05 297.258 446.05 297.258Z" fill="#263238"/>
<path opacity="0.3" d="M446.05 297.258L448.071 298.588C445.155 275.162 443.521 251.595 443.177 227.991C443.177 226.036 443.177 224.161 443.177 222.365C443.097 188.145 448.111 181.681 448.497 181.295L443.39 183.21L434.545 186.708C433.269 215.981 446.05 297.258 446.05 297.258Z" fill="white"/>
<path opacity="0.2" d="M443.536 193.504L438.07 197.322C438.07 197.322 440.291 213.96 443.097 222.365C443.018 188.145 448.032 181.681 448.417 181.295L443.39 183.21C440.786 185.86 438.642 188.926 437.046 192.281L443.536 193.504Z" fill="black"/>
<path opacity="0.1" d="M494.981 199.45C495.495 203.349 496.784 207.107 498.771 210.502C498.359 206.512 497.96 202.602 497.587 198.838C496.685 198.855 495.797 199.064 494.981 199.45Z" fill="black"/>
<path opacity="0.2" d="M470.695 350.192L476.879 316.583L475.682 298.801C475.682 298.801 467.21 329.643 470.695 350.192Z" fill="black"/>
<path d="M438.974 136.274C437.139 139.772 438.323 144.255 438.841 147.154C439.36 150.053 439.719 153.937 442.525 149.136C445.332 144.334 445.505 127.164 438.974 136.274Z" fill="#263238"/>
<path d="M465.042 144.467C465.947 154.376 467.596 155.719 463.393 161.478C457.076 170.136 445.106 173.448 441.807 163.832C438.841 155.121 435.41 139.054 444.467 133.761C446.467 132.59 448.731 131.946 451.047 131.888C453.364 131.83 455.657 132.361 457.712 133.43C459.768 134.5 461.518 136.074 462.8 138.004C464.082 139.934 464.854 142.158 465.042 144.467Z" fill="#FF8B7B"/>
<path d="M465.069 151.264C459.962 152.221 460.214 150.04 460.414 149.495C461.265 147.127 459.084 144.401 456.663 140.797C454.243 137.192 461.132 130.835 467.303 131.26C472.943 131.659 473.607 149.708 465.069 151.264Z" fill="#263238"/>
<path d="M444.268 158.938C444.268 158.938 447.978 159.151 454.469 155.466C454.11 157.834 452.873 160.028 448.949 161.079C445.026 162.13 444.268 158.938 444.268 158.938Z" fill="white"/>
<path d="M470.535 150.333C470.022 152.575 468.671 154.535 466.758 155.812C464.311 157.355 462.462 155.014 462.622 151.982C462.755 149.242 464.204 145.146 466.904 144.853C469.604 144.56 471.227 147.46 470.535 150.333Z" fill="#FF8B7B"/>
<path d="M444.72 148.883C444.299 150.97 443.592 152.988 442.619 154.881C443.112 155.12 443.652 155.25 444.201 155.261C444.749 155.273 445.294 155.166 445.797 154.948L444.72 148.883Z" fill="#FF5652"/>
<path d="M466.505 127.098C463.766 124.291 446.077 125.395 439.812 129.239C436.567 131.221 436.833 134.399 438.15 135.995C442.805 141.634 447.46 136.966 447.46 136.966C448.195 136.216 449.071 135.619 450.038 135.208C451.004 134.797 452.043 134.581 453.093 134.572C454.143 134.564 455.185 134.763 456.158 135.157C457.131 135.552 458.017 136.135 458.765 136.873L468.181 132.245C468.36 131.315 468.3 130.355 468.007 129.455C467.713 128.555 467.197 127.744 466.505 127.098Z" fill="#263238"/>
<path d="M452.953 146.649C453.086 147.473 452.766 148.205 452.221 148.284C451.676 148.364 451.13 147.779 450.997 146.954C450.864 146.13 451.184 145.398 451.716 145.319C452.248 145.239 452.806 145.824 452.953 146.649Z" fill="#263238"/>
<path d="M443.629 148.112C443.776 148.936 443.443 149.668 442.911 149.761C442.379 149.854 441.821 149.242 441.688 148.431C441.555 147.619 441.874 146.875 442.406 146.782C442.938 146.688 443.496 147.3 443.629 148.112Z" fill="#263238"/>
<path d="M455.36 143.191C455.276 143.217 455.186 143.222 455.1 143.203C455.013 143.184 454.933 143.143 454.868 143.084C454.432 142.649 453.902 142.32 453.318 142.124C452.734 141.928 452.113 141.87 451.503 141.954C451.437 141.981 451.366 141.994 451.295 141.992C451.223 141.99 451.153 141.972 451.089 141.939C451.026 141.907 450.97 141.861 450.925 141.805C450.881 141.749 450.85 141.684 450.833 141.615C450.816 141.545 450.815 141.473 450.829 141.403C450.843 141.333 450.872 141.267 450.915 141.209C450.957 141.152 451.011 141.104 451.074 141.069C451.136 141.035 451.205 141.014 451.277 141.009C452.043 140.875 452.83 140.925 453.573 141.157C454.315 141.388 454.992 141.794 455.546 142.339C455.613 142.394 455.663 142.467 455.69 142.549C455.718 142.63 455.723 142.718 455.703 142.802C455.684 142.887 455.642 142.964 455.581 143.025C455.52 143.087 455.444 143.13 455.36 143.151V143.191Z" fill="#263238"/>
<path d="M439.081 145.558C438.989 145.585 438.892 145.585 438.801 145.558C438.739 145.54 438.681 145.509 438.631 145.469C438.581 145.428 438.539 145.378 438.508 145.321C438.477 145.264 438.458 145.202 438.451 145.138C438.444 145.073 438.45 145.008 438.469 144.946C438.672 144.2 439.053 143.514 439.579 142.947C440.104 142.379 440.759 141.948 441.488 141.688C441.55 141.667 441.615 141.66 441.68 141.666C441.745 141.672 441.808 141.691 441.865 141.722C441.923 141.753 441.973 141.796 442.013 141.847C442.054 141.898 442.083 141.957 442.1 142.02C442.118 142.08 442.124 142.144 442.118 142.206C442.112 142.269 442.094 142.33 442.064 142.386C442.035 142.441 441.994 142.491 441.946 142.531C441.897 142.57 441.841 142.6 441.78 142.619C441.197 142.832 440.675 143.187 440.262 143.651C439.849 144.115 439.557 144.674 439.413 145.279C439.385 145.349 439.339 145.411 439.281 145.46C439.223 145.508 439.155 145.542 439.081 145.558Z" fill="#263238"/>
<path d="M413.292 232.088L353.575 224.959L340.435 271.283L351.075 288.599L416.138 294.039L426.885 243.752L413.292 232.088Z" fill="#263238"/>
<path opacity="0.5" d="M340.435 271.27L344.571 278.026L345.502 279.529L351.075 288.599L416.138 294.039L426.871 243.752L421.073 238.778L419.29 237.235L413.292 232.088L353.575 224.959L340.435 271.27Z" fill="white"/>
<path opacity="0.4" d="M426.871 243.752L367.806 237.434L353.575 224.959L413.292 232.088L426.871 243.752Z" fill="white"/>
<path opacity="0.2" d="M367.806 237.434L351.075 288.599L340.435 271.27L353.575 224.959L367.806 237.434Z" fill="white"/>
<path d="M344.571 278.026L345.502 279.529L360.97 231.596L421.073 238.778L419.29 237.235L359.879 230.611L344.571 278.026Z" fill="#263238"/>
<path d="M400.87 235.386L397.744 232.766L382.676 230.758L385.429 233.657L400.87 235.386Z" fill="#263238"/>
<path d="M406.682 236.224C406.682 236.224 406.682 220.53 406.137 219.506C405.591 218.482 384.511 216.061 382.928 215.835C381.345 215.609 375.134 231.157 375.134 231.157L376.464 232.939L380.454 233.285C380.454 233.285 384.857 219.892 385.362 219.559C385.867 219.227 402.16 221.208 402.652 221.541C403.144 221.873 401.947 233.883 401.947 233.883L403.41 235.785L406.682 236.224Z" fill="#263238"/>
<path d="M344.119 264.088L348.694 269.594L349.066 268.437L351.992 259.379L352.351 258.289L352.976 256.347C352.976 256.347 351.766 257.837 350.117 259.539C348.445 261.445 346.405 262.992 344.119 264.088Z" fill="#F27777"/>
<path opacity="0.2" d="M345.568 264.5L349.066 268.49L351.992 259.433L352.351 258.342C350.888 260.31 348.228 263.502 345.568 264.5Z" fill="white"/>
<path opacity="0.2" d="M350.117 259.592C350.755 259.512 351.447 259.459 351.992 259.433L352.976 256.4C352.976 256.4 351.766 257.89 350.117 259.592Z" fill="black"/>
<path d="M341.964 253.049L341.525 261.122C344.771 259.46 348.437 258.798 352.059 259.22L352.418 258.089L354.679 251.067L354.918 250.335C354.918 250.335 347.63 249.83 341.964 253.049Z" fill="#F27777"/>
<path d="M349.731 239.044C351.428 241.994 353.603 244.641 356.169 246.877L356.421 246.026L357.113 243.792L358.27 240.068L358.829 238.259L358.988 237.74C357.845 236.17 356.843 234.501 355.996 232.753L349.731 239.044Z" fill="#F27777"/>
<path d="M362.832 228.071C363.693 229.3 364.378 230.643 364.867 232.061L365.811 232.181L367.141 232.327L369.202 232.593L371.197 232.833L371.902 232.912C371.713 229.834 370.425 226.927 368.271 224.72L362.832 228.071Z" fill="#F27777"/>
<path opacity="0.2" d="M364.069 228.178C364.791 229.441 365.375 230.779 365.811 232.168L367.141 232.314C367.021 232.152 366.94 231.965 366.903 231.766C366.866 231.568 366.875 231.364 366.928 231.17C367.065 230.867 367.306 230.623 367.607 230.482C367.908 230.34 368.25 230.311 368.571 230.4C368.891 230.488 369.17 230.687 369.357 230.963C369.543 231.238 369.625 231.571 369.588 231.902C369.519 232.166 369.371 232.403 369.163 232.58L371.158 232.819C370.918 231.117 370.213 227.632 368.218 225.73L364.069 228.178Z" fill="white"/>
<path opacity="0.2" d="M342.523 253.341L342.323 259.885C342.323 259.885 347.896 257.65 352.418 258.089L354.679 251.067C350.498 250.747 346.306 251.531 342.523 253.341ZM349.612 252.463C349.956 252.506 350.282 252.644 350.551 252.862C350.82 253.081 351.023 253.371 351.135 253.699C351.248 254.027 351.266 254.381 351.187 254.718C351.108 255.056 350.936 255.365 350.689 255.61C350.443 255.854 350.133 256.025 349.795 256.101C349.457 256.178 349.104 256.158 348.776 256.043C348.449 255.929 348.16 255.724 347.943 255.453C347.726 255.183 347.59 254.856 347.55 254.512C347.43 253.527 348.361 252.61 349.612 252.463Z" fill="white"/>
<path opacity="0.2" d="M350.888 239.363C352.471 241.785 354.328 244.016 356.421 246.013L357.113 243.778C356.662 243.596 356.294 243.254 356.081 242.817C355.868 242.38 355.824 241.879 355.958 241.412C356.092 240.944 356.394 240.543 356.806 240.285C357.218 240.027 357.711 239.93 358.19 240.014C358.19 240.014 358.257 240.014 358.27 240.014L358.829 238.206C357.651 237.01 356.668 235.636 355.916 234.136L350.888 239.363Z" fill="white"/>
<path opacity="0.2" d="M499.968 219.599C496.244 228.337 490.445 239.549 484.54 242.674C479.83 236.917 475.948 230.529 473.009 223.695C475.669 216.766 481.348 203.027 485.511 200.154C488.65 198 494.103 200.886 498.292 203.865C498.798 208.879 499.356 214.266 499.968 219.599Z" fill="black"/>
<path d="M427.656 237.035L417.189 237.594L423.426 249.285C423.426 249.285 432.218 246.837 431.406 242.023L427.656 237.035Z" fill="#E4897B"/>
<path d="M410.712 243.22L416.311 252.663L423.44 249.285L417.189 237.594L410.712 243.22Z" fill="#E4897B"/>
<path d="M443.656 234.907L426.818 237.222L428.215 245.295L443.616 243.486L443.656 234.907Z" fill="#E4897B"/>
<path d="M496.071 179.5C508.134 186.628 492.174 239.443 482.878 242.422C473.581 245.401 441.408 244.417 441.408 244.417L439.706 234.189L475.975 229.268C478.998 220.065 481.223 210.618 482.625 201.032C483.226 196.7 484.735 192.542 487.052 188.832C489.369 185.122 492.442 181.942 496.071 179.5Z" fill="#263238"/>
<path opacity="0.3" d="M496.071 179.5C508.134 186.628 492.174 239.443 482.878 242.422C473.581 245.401 441.408 244.417 441.408 244.417L439.706 234.189L475.975 229.268C478.998 220.065 481.223 210.618 482.625 201.032C483.226 196.7 484.735 192.542 487.052 188.832C489.369 185.122 492.442 181.942 496.071 179.5Z" fill="white"/>
<path d="M202.341 226.608C206.331 233.697 209.882 241.597 215.255 247.715C218.926 251.32 222.969 254.671 227.052 258.222C230.71 261.374 234.394 264.566 237.972 267.878C238.626 268.448 239.047 269.239 239.155 270.099C239.262 270.96 239.049 271.83 238.555 272.544C238.061 273.257 237.321 273.762 236.477 273.964C235.633 274.166 234.745 274.049 233.982 273.637C225.027 269.275 216.466 264.149 208.393 258.315C207.382 257.517 206.025 256.467 205.121 255.576C198.391 249.032 193.683 241.145 189.626 232.793C185.995 224.387 197.886 218.588 202.275 226.608H202.341Z" fill="#DC897C"/>
<path d="M224.219 254.844L212.781 263.542C212.781 263.542 206.238 258.103 201.41 253.341C199.554 251.669 197.926 249.759 196.569 247.662C195.598 245.694 196.688 239.682 198.072 234.003C199.548 227.965 201.343 222.312 201.343 222.312C204.469 225.983 212.276 242.927 212.276 242.927L224.219 254.844Z" fill="#F27777"/>
<path opacity="0.2" d="M201.41 253.341C199.554 251.669 197.926 249.759 196.569 247.662C195.598 245.694 196.688 239.682 198.072 234.003C200.067 234.482 203.139 242.927 201.41 253.341Z" fill="black"/>
<path d="M197.087 284.038C193.496 295.409 183.335 304.453 171.259 295.236C159.182 286.019 182.63 240.44 191.209 236.716C199.787 232.992 197.087 284.038 197.087 284.038Z" fill="#F27777"/>
<path opacity="0.2" d="M197.087 284.038C193.496 295.409 183.335 304.453 171.259 295.236C159.182 286.019 182.63 240.44 191.209 236.716C199.787 232.992 197.087 284.038 197.087 284.038Z" fill="black"/>
<path d="M229.659 484.442C221.812 484.442 220.775 484.322 216.359 484.163C212.582 484.03 211.691 484.508 208.658 484.442C206.118 484.442 206.211 481.955 206.996 479.122C207.381 477.712 207.993 474.759 208.525 472.472L220.016 471.647C221.626 474.733 225.336 479.135 229.699 479.72C233.928 480.359 232.784 484.442 229.659 484.442Z" fill="#F27777"/>
<path d="M162.028 275.033H191.288C193.044 285.873 201.277 337.543 202.78 365.686C204.535 398.817 215.149 451.87 220.775 472.605C219.192 474.015 211.757 474.613 208.246 472.858C208.246 472.858 177.656 411.678 181.646 373.414C158.411 308.15 161.27 279.835 162.028 275.033Z" fill="#F27777"/>
<g opacity="0.7">
<path d="M162.028 275.033H191.288C193.044 285.873 201.277 337.543 202.78 365.686C204.535 398.817 215.149 451.87 220.775 472.605C219.192 474.015 211.757 474.613 208.246 472.858C208.246 472.858 177.656 411.678 181.646 373.414C158.411 308.15 161.27 279.835 162.028 275.033Z" fill="white"/>
</g>
<path d="M172.855 484.442C165.008 484.442 163.97 484.322 159.555 484.163C155.777 484.03 154.886 484.508 151.854 484.442C149.314 484.442 149.407 481.955 150.191 479.122C150.577 477.712 151.189 474.759 151.721 472.472L163.212 471.647C164.821 474.733 168.532 479.135 172.894 479.72C177.257 480.306 175.98 484.442 172.855 484.442Z" fill="#F27777"/>
<path opacity="0.2" d="M173.998 350.458C170.354 338.488 167.734 328.034 165.872 319.109C167.721 312.127 170.328 306.142 173.852 302.551C173.892 302.551 178.999 322.009 173.998 350.458Z" fill="black"/>
<path d="M150.045 275.033H180.489C178.401 291.073 171.964 340.017 167.987 365.886C162.946 398.67 162.295 451.285 163.558 472.725C161.723 473.789 155.033 475.079 151.415 473.948C151.415 473.948 134.311 407.634 145.67 369.118C136.16 299.08 148.13 277.866 150.045 275.033Z" fill="#F27777"/>
<g opacity="0.7">
<path d="M150.045 275.033H180.489C178.401 291.073 171.964 340.017 167.987 365.886C162.946 398.67 162.295 451.285 163.558 472.725C161.723 473.789 155.033 475.079 151.415 473.948C151.415 473.948 134.311 407.634 145.67 369.118C136.16 299.08 148.13 277.866 150.045 275.033Z" fill="white"/>
</g>
<path d="M198.311 177.225C198.311 177.225 201.277 195.366 195.465 201.75C189.653 208.134 169.61 209.451 162.946 197.667C156.283 185.883 160.366 168.66 175.674 165.109C190.983 161.558 198.311 177.225 198.311 177.225Z" fill="#263238"/>
<path d="M155.272 213.202C155.834 220.147 156.02 227.117 155.831 234.083C155.738 237.966 155.565 242.275 155.232 246.917C154.587 256.362 153.379 265.759 151.615 275.06L191.515 281.71C191.515 281.71 205.546 236.131 197.646 219.373C197.606 219.333 178.72 206.312 155.272 213.202Z" fill="#263238"/>
<path d="M281.276 264.992L278.191 264.513C277.621 264.421 277.037 264.467 276.488 264.647C275.94 264.828 275.443 265.138 275.039 265.55L271.195 269.407C270.436 270.174 269.874 271.112 269.554 272.142C269.235 273.173 269.168 274.265 269.36 275.326L269.586 276.656C274.64 277.813 280.957 275.326 280.957 275.326L282.833 274.834C283.222 274.742 283.589 274.574 283.912 274.339C284.236 274.104 284.509 273.807 284.717 273.466C284.925 273.124 285.063 272.745 285.123 272.349C285.183 271.954 285.164 271.551 285.067 271.163L284.123 267.426C283.928 266.792 283.557 266.227 283.053 265.796C282.549 265.365 281.933 265.086 281.276 264.992Z" fill="#E4897B"/>
<path d="M182.471 228.936L168.678 212.217C173.254 208.853 173.094 197.481 172.456 191.177L183.096 203.027C181.5 207.576 180.875 212.59 187.445 215.33C187.405 215.356 182.457 228.896 182.471 228.936Z" fill="#E4897B"/>
<path opacity="0.2" d="M176.778 196.045L183.056 203.04C182.665 204.103 182.367 205.198 182.165 206.312C179.638 205.514 176.366 202.083 176.339 199.316C176.283 198.208 176.432 197.099 176.778 196.045Z" fill="black"/>
<path d="M168.453 180.297C169.078 189.78 169.157 193.797 173.919 198.917C181.074 206.498 192.446 204.237 194.68 194.927C196.649 186.522 195.279 172.424 186.088 168.208C184.138 167.218 181.957 166.771 179.775 166.914C177.593 167.058 175.489 167.786 173.685 169.022C171.881 170.259 170.443 171.959 169.523 173.942C168.602 175.926 168.232 178.121 168.453 180.297Z" fill="#E4897B"/>
<path d="M177.231 174.512C171.325 180.51 180.928 189.368 170.461 187.666C159.994 185.963 166.045 171.626 172.695 169.046C179.345 166.465 177.231 174.512 177.231 174.512Z" fill="#263238"/>
<path d="M182.963 183.569C182.963 184.367 183.415 185.032 183.92 185.059C184.426 185.086 184.825 184.447 184.798 183.649C184.772 182.851 184.359 182.186 183.854 182.173C183.348 182.16 182.949 182.771 182.963 183.569Z" fill="#263238"/>
<path d="M192.512 184.141C192.512 184.939 192.951 185.618 193.456 185.631C193.962 185.644 194.361 185.032 194.347 184.301C194.334 183.569 193.895 182.838 193.39 182.811C192.884 182.785 192.485 183.343 192.512 184.141Z" fill="#263238"/>
<path d="M193.164 182.771L195.026 182.306C195.026 182.306 194.095 183.769 193.164 182.771Z" fill="#263238"/>
<path d="M189.879 185.338C190.614 187.196 191.584 188.953 192.765 190.565C192.366 190.835 191.911 191.011 191.434 191.08C190.957 191.149 190.471 191.11 190.012 190.964L189.879 185.338Z" fill="#DE5753"/>
<path d="M185.623 193.717C186.06 193.813 186.505 193.871 186.953 193.89C186.982 193.89 187.011 193.884 187.037 193.873C187.064 193.861 187.088 193.844 187.108 193.823C187.128 193.802 187.144 193.777 187.153 193.75C187.163 193.722 187.167 193.693 187.166 193.664C187.167 193.633 187.163 193.602 187.152 193.573C187.142 193.544 187.126 193.518 187.104 193.495C187.083 193.473 187.058 193.455 187.029 193.443C187.001 193.431 186.97 193.425 186.94 193.425C185.95 193.386 184.982 193.128 184.105 192.668C183.228 192.207 182.466 191.557 181.872 190.765C181.86 190.734 181.842 190.707 181.818 190.685C181.795 190.662 181.766 190.645 181.736 190.635C181.705 190.624 181.672 190.62 181.64 190.623C181.607 190.627 181.576 190.637 181.548 190.653C181.52 190.67 181.496 190.692 181.477 190.719C181.458 190.746 181.446 190.776 181.44 190.808C181.434 190.84 181.435 190.873 181.443 190.904C181.451 190.936 181.466 190.965 181.487 190.991C182.485 192.375 183.957 193.346 185.623 193.717Z" fill="#263238"/>
<path d="M166.484 189.102C166.76 189.977 167.216 190.784 167.823 191.471C168.43 192.158 169.175 192.71 170.009 193.092C172.097 193.917 173.334 191.549 172.908 188.996C172.536 186.695 170.98 183.489 168.812 183.769C166.644 184.048 165.646 186.801 166.484 189.102Z" fill="#E4897B"/>
<path d="M180.822 179.034C180.945 179.049 181.068 179.015 181.167 178.941C181.582 178.557 182.087 178.282 182.635 178.143C183.184 178.004 183.758 178.004 184.306 178.143C184.362 178.163 184.421 178.171 184.481 178.166C184.54 178.162 184.597 178.144 184.649 178.115C184.701 178.086 184.746 178.046 184.781 177.998C184.816 177.95 184.84 177.895 184.851 177.837C184.881 177.715 184.863 177.587 184.801 177.479C184.739 177.37 184.638 177.289 184.519 177.252C183.827 177.061 183.098 177.049 182.4 177.216C181.703 177.384 181.059 177.725 180.529 178.209C180.444 178.296 180.396 178.413 180.396 178.535C180.396 178.657 180.444 178.774 180.529 178.861C180.6 178.955 180.705 179.017 180.822 179.034Z" fill="#263238"/>
<path d="M195.172 179.899C195.279 179.938 195.397 179.938 195.505 179.899C195.553 179.862 195.595 179.816 195.626 179.763C195.657 179.711 195.677 179.653 195.686 179.592C195.695 179.531 195.691 179.47 195.676 179.411C195.661 179.351 195.634 179.296 195.598 179.247C195.19 178.618 194.643 178.091 194 177.706C193.357 177.321 192.634 177.088 191.887 177.026C191.828 177.025 191.769 177.038 191.714 177.062C191.66 177.085 191.611 177.12 191.571 177.164C191.531 177.208 191.5 177.26 191.482 177.316C191.463 177.372 191.456 177.432 191.461 177.491C191.468 177.616 191.52 177.734 191.609 177.823C191.697 177.911 191.815 177.964 191.94 177.97C192.532 178.024 193.103 178.212 193.61 178.521C194.118 178.83 194.547 179.251 194.866 179.752C194.947 179.837 195.056 179.889 195.172 179.899Z" fill="#263238"/>
<path d="M183.628 182.199L185.477 181.734C185.477 181.734 184.559 183.184 183.628 182.199Z" fill="#263238"/>
<path d="M186.408 170.841C186.408 170.841 187.059 176.906 177.55 180.883C180.066 179.358 181.885 176.909 182.617 174.06C182.617 174.06 179 181.761 171.804 181.388C164.609 181.016 165.779 198.811 169.025 204.464C169.025 204.464 159.848 198.731 159.023 192.002C159.023 192.002 159.914 198.492 163.638 201.804C163.638 201.804 157.52 199.051 154.594 187.32C151.016 173.076 162.069 162.183 170.727 160.201C183.734 157.235 187.512 161.93 187.512 161.93C187.512 161.93 191.608 159.643 197.367 167.556C203.126 175.47 205.839 192.334 198.87 200.886C199.82 194.35 199.228 187.681 197.141 181.415C197.141 181.415 191.196 179.752 187.831 171.679C187.739 173.311 187.202 174.886 186.278 176.234C185.354 177.582 184.079 178.652 182.591 179.327C182.591 179.327 186.115 177.185 186.408 170.841Z" fill="#263238"/>
<path d="M192.153 284.091L192.419 278.412L151.655 271.655L149.354 276.27L192.153 284.091Z" fill="#F27777"/>
<path opacity="0.7" d="M192.153 284.091L192.419 278.412L151.655 271.655L149.354 276.27L192.153 284.091Z" fill="white"/>
<path d="M163.438 278.305L149.952 276.058L151.402 272.36L164.077 274.461L163.438 278.305Z" fill="#263238"/>
<path d="M188.576 278.518L192.605 279.196L192.326 283.093L187.937 282.375L188.576 278.518Z" fill="#263238"/>
<path d="M165.368 274.657L164.73 278.501L186.576 282.126L187.214 278.281L165.368 274.657Z" fill="#263238"/>
<path d="M174.478 280.433L180.382 281.413C180.788 281.48 181.172 281.206 181.239 280.8L181.729 277.848C181.796 277.442 181.522 277.059 181.116 276.991L175.211 276.012C174.806 275.944 174.422 276.219 174.355 276.625L173.865 279.577C173.798 279.982 174.072 280.366 174.478 280.433Z" fill="white"/>
<path d="M172.749 231.476C172.76 232.946 172.648 234.414 172.416 235.865C171.591 241.078 168.931 248.261 165.5 255.403C159.395 268.157 150.87 280.832 146.042 282.149L152.187 267.772L153.716 240.759L154.554 225.823L155.272 213.202C155.272 213.202 160.925 211.14 164.077 211.193C164.09 211.193 172.629 219.32 172.749 231.476Z" fill="#F27777"/>
<path d="M191.142 215.888C192.944 223.411 194.017 231.089 194.348 238.818C194.866 251.413 197.087 284.038 197.087 284.038C197.087 284.038 201.862 233.271 201.343 222.259C201.33 222.312 195.93 216.926 191.142 215.888Z" fill="#F27777"/>
<path d="M230.298 315.293C226.946 319.495 218.461 318.298 211.358 312.633C204.256 306.967 201.197 298.96 204.536 294.771C207.874 290.581 216.373 291.752 223.488 297.431C230.604 303.11 233.649 311.09 230.298 315.293Z" fill="#263238"/>
<path d="M246.79 305.623C248.004 305.518 249.131 304.951 249.942 304.041C253.227 299.918 247.122 289.57 236.296 280.952C225.47 272.334 214.032 268.676 210.747 272.799C210.032 273.791 209.732 275.021 209.909 276.23C209.391 276.48 208.936 276.844 208.579 277.294C207.874 278.28 207.587 279.503 207.781 280.699C207.226 280.939 206.738 281.308 206.358 281.777C206.008 282.266 205.761 282.821 205.633 283.409C205.505 283.997 205.498 284.604 205.613 285.195C205.033 285.415 204.52 285.782 204.123 286.259C203.779 286.753 203.541 287.312 203.422 287.903C203.303 288.493 203.306 289.101 203.432 289.69C202.837 289.897 202.308 290.26 201.902 290.741C199.242 294.172 204.256 302.711 213.247 309.946C222.238 317.181 231.761 320.147 234.527 316.716C234.911 316.213 235.15 315.615 235.219 314.987C235.82 314.977 236.414 314.844 236.962 314.597C237.511 314.35 238.004 313.994 238.411 313.55C238.786 313.057 239.029 312.475 239.115 311.861C239.716 311.838 240.306 311.694 240.849 311.438C241.393 311.182 241.88 310.819 242.281 310.372C242.656 309.9 242.907 309.342 243.012 308.749C244.223 308.663 245.354 308.11 246.164 307.206C246.489 306.732 246.702 306.191 246.79 305.623Z" fill="#263238"/>
<path opacity="0.3" d="M246.79 305.623C248.004 305.518 249.131 304.951 249.942 304.041C253.227 299.918 247.122 289.57 236.296 280.952C225.47 272.334 214.032 268.676 210.747 272.799C210.032 273.791 209.732 275.021 209.909 276.23C209.391 276.48 208.936 276.844 208.579 277.294C207.874 278.28 207.587 279.503 207.781 280.699C207.226 280.939 206.738 281.308 206.358 281.777C206.008 282.266 205.761 282.821 205.633 283.409C205.505 283.997 205.498 284.604 205.613 285.195C205.033 285.415 204.52 285.782 204.123 286.259C203.779 286.753 203.541 287.312 203.422 287.903C203.303 288.493 203.306 289.101 203.432 289.69C202.837 289.897 202.308 290.26 201.902 290.741C199.242 294.172 204.256 302.711 213.247 309.946C222.238 317.181 231.761 320.147 234.527 316.716C234.911 316.213 235.15 315.615 235.219 314.987C235.82 314.977 236.414 314.844 236.962 314.597C237.511 314.35 238.004 313.994 238.411 313.55C238.786 313.057 239.029 312.475 239.115 311.861C239.716 311.838 240.306 311.694 240.849 311.438C241.393 311.182 241.88 310.819 242.281 310.372C242.656 309.9 242.907 309.342 243.012 308.749C244.223 308.663 245.354 308.11 246.164 307.206C246.489 306.732 246.702 306.191 246.79 305.623Z" fill="white"/>
<path d="M291.77 281.643C296.438 275.796 299.551 268.863 300.819 261.489C302.087 254.116 301.469 246.541 299.023 239.471C296.577 232.4 292.382 226.063 286.829 221.049C281.275 216.035 274.544 212.508 267.261 210.795C259.978 209.081 252.38 209.239 245.173 211.251C237.967 213.264 231.387 217.066 226.046 222.305C220.705 227.544 216.775 234.049 214.623 241.215C212.472 248.381 212.167 255.975 213.739 263.289C214.009 264.462 213.984 265.683 213.666 266.844C213.348 268.005 212.747 269.068 211.917 269.939C211.827 270.018 211.746 270.107 211.678 270.205C208.339 274.395 214.537 284.835 225.536 293.653C236.535 302.471 248.146 306.115 251.485 301.926L251.684 301.647C252.355 300.644 253.264 299.821 254.328 299.253C255.393 298.685 256.582 298.388 257.789 298.388C264.339 298.285 270.784 296.729 276.661 293.834C282.537 290.938 287.698 286.775 291.77 281.643Z" fill="#F27777"/>
<path opacity="0.7" d="M291.77 281.643C296.438 275.796 299.551 268.863 300.819 261.489C302.087 254.116 301.469 246.541 299.023 239.471C296.577 232.4 292.382 226.063 286.829 221.049C281.275 216.035 274.544 212.508 267.261 210.795C259.978 209.081 252.38 209.239 245.173 211.251C237.967 213.264 231.387 217.066 226.046 222.305C220.705 227.544 216.775 234.049 214.623 241.215C212.472 248.381 212.167 255.975 213.739 263.289C214.009 264.462 213.984 265.683 213.666 266.844C213.348 268.005 212.747 269.068 211.917 269.939C211.827 270.018 211.746 270.107 211.678 270.205C208.339 274.395 214.537 284.835 225.536 293.653C236.535 302.471 248.146 306.115 251.485 301.926L251.684 301.647C252.355 300.644 253.264 299.821 254.328 299.253C255.393 298.685 256.582 298.388 257.789 298.388C264.339 298.285 270.784 296.729 276.661 293.834C282.537 290.938 287.698 286.775 291.77 281.643Z" fill="white"/>
<path d="M236.602 292.749C236.536 292.752 236.47 292.735 236.414 292.699C236.359 292.663 236.315 292.611 236.29 292.55C236.266 292.489 236.26 292.421 236.276 292.357C236.291 292.292 236.326 292.234 236.376 292.19C237.014 291.592 251.737 277.8 264.399 278.757L258.72 274.235C258.673 274.195 258.638 274.143 258.619 274.084C258.601 274.026 258.598 273.963 258.613 273.903L260.249 268.078L249.41 273.398C249.355 273.424 249.295 273.435 249.234 273.429C249.174 273.422 249.117 273.399 249.07 273.361C249.022 273.324 248.987 273.273 248.967 273.216C248.947 273.159 248.944 273.097 248.957 273.038L251.684 261.215L241.629 265.418C241.578 265.443 241.521 265.457 241.463 265.457C241.405 265.457 241.348 265.443 241.297 265.418C241.252 265.382 241.218 265.334 241.2 265.28C241.181 265.226 241.178 265.167 241.19 265.112L243.079 254.392L237.666 257.318C237.614 257.351 237.554 257.369 237.493 257.369C237.432 257.369 237.371 257.351 237.32 257.318L231.388 252.596C231.721 256.134 232.545 271.137 223.674 282.269C223.618 282.323 223.544 282.354 223.466 282.358C223.389 282.361 223.312 282.336 223.252 282.287C223.191 282.237 223.151 282.168 223.138 282.091C223.125 282.015 223.141 281.936 223.182 281.87C233.064 269.461 230.697 252.078 230.67 251.905C230.662 251.842 230.673 251.778 230.701 251.721C230.729 251.664 230.774 251.617 230.83 251.586C230.884 251.553 230.946 251.535 231.009 251.535C231.072 251.535 231.135 251.553 231.189 251.586L237.546 256.653L243.358 253.448C243.41 253.416 243.47 253.399 243.531 253.399C243.592 253.399 243.652 253.416 243.704 253.448C243.751 253.482 243.787 253.529 243.808 253.583C243.83 253.637 243.835 253.696 243.824 253.753L241.922 264.54L252.003 260.27C252.054 260.241 252.111 260.226 252.169 260.226C252.228 260.226 252.285 260.241 252.336 260.27C252.381 260.308 252.416 260.358 252.434 260.415C252.453 260.471 252.456 260.532 252.442 260.59L249.782 272.373L260.661 267.053C260.714 267.022 260.773 267.005 260.834 267.005C260.895 267.005 260.955 267.022 261.007 267.053C261.054 267.093 261.089 267.146 261.105 267.205C261.122 267.265 261.12 267.328 261.1 267.386L259.331 273.757L265.702 278.824C265.754 278.869 265.791 278.929 265.808 278.995C265.825 279.062 265.82 279.132 265.795 279.196C265.769 279.261 265.723 279.316 265.663 279.352C265.603 279.388 265.532 279.404 265.463 279.396C252.908 277.547 237.027 292.39 236.868 292.536C236.855 292.597 236.822 292.652 236.773 292.691C236.725 292.73 236.664 292.75 236.602 292.749Z" fill="#263238"/>
<path opacity="0.2" d="M290.44 247.968C285.12 254.791 272.844 254.112 263.016 246.452C253.187 238.791 249.516 227.06 254.823 220.237C260.129 213.414 272.419 214.093 282.247 221.754C292.076 229.414 295.76 241.145 290.44 247.968Z" fill="white"/>
<path opacity="0.2" d="M255.075 283.466C251.205 288.44 242.241 287.948 235.125 282.362C228.01 276.776 225.283 268.211 229.154 263.236C233.024 258.262 241.988 258.741 249.104 264.327C256.219 269.913 258.946 278.478 255.075 283.466Z" fill="white"/>
<path opacity="0.2" d="M172.748 231.476C172.759 232.946 172.648 234.414 172.416 235.865C171.591 241.078 168.931 248.26 165.5 255.403C161.013 251.004 157.058 246.094 153.716 240.773L154.554 225.837C159.275 224.294 164.941 223.177 167.854 225.052C169.965 226.781 171.641 228.982 172.748 231.476Z" fill="black"/>
<path d="M164.981 220.916C167.522 227.858 169.596 234.894 172.576 241.438C174.478 244.776 177.763 247.236 180.755 250.016C185.29 254.006 190.145 257.81 195.039 261.6L209.856 272.998C210.551 273.527 211.023 274.296 211.18 275.155C211.337 276.013 211.167 276.9 210.704 277.64C210.241 278.38 209.517 278.92 208.676 279.154C207.835 279.387 206.937 279.298 206.158 278.904C200.466 276.044 194.946 272.998 189.48 269.753C184.014 266.508 178.654 263.103 173.4 259.246C169.277 256.147 164.622 252.676 161.563 248.181C160.554 246.653 159.635 245.067 158.81 243.433C155.876 237.591 153.459 231.502 151.588 225.238C149.141 216.367 161.803 212.297 164.981 220.916Z" fill="#DC897C"/>
<path d="M155.272 213.202C158.537 213.31 161.657 214.573 164.077 216.766C169.091 221.727 171.897 236.876 175.236 242.688C177.523 246.678 187.804 255.695 187.804 255.695L175.236 264.46C175.236 264.46 165.074 255.442 161.51 249.511C157.946 243.579 144.247 221.035 155.272 213.202Z" fill="#F27777"/>
<path d="M206.211 271.748L215.747 268.982L213.952 279.848C213.952 279.848 205.293 281.803 204.469 277.308L206.211 271.748Z" fill="#E4897B"/>
<path d="M225.244 271.549L220.522 280.38L213.952 279.848L215.748 268.982L225.244 271.549Z" fill="#E4897B"/>
</svg>
